<?xml version="1.0" encoding="utf-8" standalone="no"?>
<!DOCTYPE svg PUBLIC "-//W3C//DTD SVG 1.1//EN"
  "http://www.w3.org/Graphics/SVG/1.1/DTD/svg11.dtd">
<!-- Created with matplotlib (https://matplotlib.org/) -->
<svg height="396pt" version="1.1" viewBox="0 0 396 396" width="396pt" xmlns="http://www.w3.org/2000/svg" xmlns:xlink="http://www.w3.org/1999/xlink">
 <defs>
  <style type="text/css">
*{stroke-linecap:butt;stroke-linejoin:round;white-space:pre;}
  </style>
 </defs>
 <g id="figure_1">
  <g id="patch_1">
   <path d="M 0 396 
L 396 396 
L 396 0 
L 0 0 
z
" style="fill:#ffffff;"/>
  </g>
  <g id="axes_1">
   <g id="patch_2">
    <path d="M 75.473 336.652 
L 344.2895 336.652 
L 344.2895 27.858 
L 75.473 27.858 
z
" style="fill:#ffffff;"/>
   </g>
   <g id="PathCollection_1">
    <defs>
     <path d="M 0 3 
C 0.795609 3 1.55874 2.683901 2.12132 2.12132 
C 2.683901 1.55874 3 0.795609 3 0 
C 3 -0.795609 2.683901 -1.55874 2.12132 -2.12132 
C 1.55874 -2.683901 0.795609 -3 0 -3 
C -0.795609 -3 -1.55874 -2.683901 -2.12132 -2.12132 
C -2.683901 -1.55874 -3 -0.795609 -3 0 
C -3 0.795609 -2.683901 1.55874 -2.12132 2.12132 
C -1.55874 2.683901 -0.795609 3 0 3 
z
" id="m2edf5c2b2e" style="stroke:#000000;"/>
    </defs>
    <g clip-path="url(#p4519a67c7a)">
     <use style="stroke:#000000;" x="319.646381" xlink:href="#m2edf5c2b2e" y="157.504034"/>
     <use style="stroke:#000000;" x="265.64964" xlink:href="#m2edf5c2b2e" y="217.305953"/>
     <use style="stroke:#000000;" x="221.355595" xlink:href="#m2edf5c2b2e" y="258.322261"/>
     <use style="stroke:#000000;" x="87.720384" xlink:href="#m2edf5c2b2e" y="254.615829"/>
     <use style="stroke:#000000;" x="297.09607" xlink:href="#m2edf5c2b2e" y="99.502801"/>
     <use style="stroke:#000000;" x="265.178104" xlink:href="#m2edf5c2b2e" y="136.780317"/>
     <use style="stroke:#000000;" x="138.482948" xlink:href="#m2edf5c2b2e" y="307.315522"/>
     <use style="stroke:#000000;" x="220.531143" xlink:href="#m2edf5c2b2e" y="153.619016"/>
     <use style="stroke:#000000;" x="164.314873" xlink:href="#m2edf5c2b2e" y="249.670873"/>
     <use style="stroke:#000000;" x="215.258585" xlink:href="#m2edf5c2b2e" y="197.327225"/>
     <use style="stroke:#000000;" x="279.582575" xlink:href="#m2edf5c2b2e" y="186.630597"/>
     <use style="stroke:#000000;" x="266.635215" xlink:href="#m2edf5c2b2e" y="104.965342"/>
     <use style="stroke:#000000;" x="249.096708" xlink:href="#m2edf5c2b2e" y="190.260738"/>
     <use style="stroke:#000000;" x="240.439059" xlink:href="#m2edf5c2b2e" y="200.222711"/>
     <use style="stroke:#000000;" x="226.736354" xlink:href="#m2edf5c2b2e" y="79.833915"/>
     <use style="stroke:#000000;" x="205.823603" xlink:href="#m2edf5c2b2e" y="191.445753"/>
     <use style="stroke:#000000;" x="218.316454" xlink:href="#m2edf5c2b2e" y="234.604118"/>
     <use style="stroke:#000000;" x="273.01654" xlink:href="#m2edf5c2b2e" y="205.646265"/>
     <use style="stroke:#000000;" x="204.349654" xlink:href="#m2edf5c2b2e" y="236.496116"/>
     <use style="stroke:#000000;" x="254.194044" xlink:href="#m2edf5c2b2e" y="179.761169"/>
     <use style="stroke:#000000;" x="129.124345" xlink:href="#m2edf5c2b2e" y="290.634521"/>
     <use style="stroke:#000000;" x="214.888136" xlink:href="#m2edf5c2b2e" y="280.233637"/>
     <use style="stroke:#000000;" x="106.741852" xlink:href="#m2edf5c2b2e" y="289.214379"/>
     <use style="stroke:#000000;" x="125.418246" xlink:href="#m2edf5c2b2e" y="270.1908"/>
     <use style="stroke:#000000;" x="217.289164" xlink:href="#m2edf5c2b2e" y="178.091206"/>
     <use style="stroke:#000000;" x="234.697333" xlink:href="#m2edf5c2b2e" y="158.221852"/>
     <use style="stroke:#000000;" x="221.113412" xlink:href="#m2edf5c2b2e" y="175.462216"/>
     <use style="stroke:#000000;" x="108.021269" xlink:href="#m2edf5c2b2e" y="273.197973"/>
     <use style="stroke:#000000;" x="214.641602" xlink:href="#m2edf5c2b2e" y="201.011452"/>
     <use style="stroke:#000000;" x="226.95757" xlink:href="#m2edf5c2b2e" y="172.347524"/>
     <use style="stroke:#000000;" x="255.337182" xlink:href="#m2edf5c2b2e" y="187.010117"/>
     <use style="stroke:#000000;" x="220.746549" xlink:href="#m2edf5c2b2e" y="190.223224"/>
     <use style="stroke:#000000;" x="155.337359" xlink:href="#m2edf5c2b2e" y="282.515926"/>
     <use style="stroke:#000000;" x="282.357081" xlink:href="#m2edf5c2b2e" y="153.897375"/>
     <use style="stroke:#000000;" x="298.109406" xlink:href="#m2edf5c2b2e" y="203.955731"/>
     <use style="stroke:#000000;" x="180.024224" xlink:href="#m2edf5c2b2e" y="213.533787"/>
     <use style="stroke:#000000;" x="320.521185" xlink:href="#m2edf5c2b2e" y="160.898974"/>
     <use style="stroke:#000000;" x="219.16343" xlink:href="#m2edf5c2b2e" y="198.466838"/>
     <use style="stroke:#000000;" x="203.991681" xlink:href="#m2edf5c2b2e" y="322.506802"/>
     <use style="stroke:#000000;" x="307.417144" xlink:href="#m2edf5c2b2e" y="145.269996"/>
     <use style="stroke:#000000;" x="209.682908" xlink:href="#m2edf5c2b2e" y="217.827156"/>
     <use style="stroke:#000000;" x="228.486804" xlink:href="#m2edf5c2b2e" y="256.734325"/>
     <use style="stroke:#000000;" x="159.007622" xlink:href="#m2edf5c2b2e" y="215.265318"/>
     <use style="stroke:#000000;" x="199.121305" xlink:href="#m2edf5c2b2e" y="227.868876"/>
     <use style="stroke:#000000;" x="251.395052" xlink:href="#m2edf5c2b2e" y="151.481565"/>
     <use style="stroke:#000000;" x="272.244449" xlink:href="#m2edf5c2b2e" y="126.228679"/>
     <use style="stroke:#000000;" x="281.982753" xlink:href="#m2edf5c2b2e" y="143.18019"/>
     <use style="stroke:#000000;" x="276.410513" xlink:href="#m2edf5c2b2e" y="184.270951"/>
     <use style="stroke:#000000;" x="210.053204" xlink:href="#m2edf5c2b2e" y="126.526048"/>
     <use style="stroke:#000000;" x="214.164841" xlink:href="#m2edf5c2b2e" y="261.131402"/>
     <use style="stroke:#000000;" x="234.523705" xlink:href="#m2edf5c2b2e" y="183.747316"/>
     <use style="stroke:#000000;" x="273.735807" xlink:href="#m2edf5c2b2e" y="145.916535"/>
     <use style="stroke:#000000;" x="277.85836" xlink:href="#m2edf5c2b2e" y="234.370355"/>
     <use style="stroke:#000000;" x="186.023154" xlink:href="#m2edf5c2b2e" y="284.71364"/>
     <use style="stroke:#000000;" x="135.790867" xlink:href="#m2edf5c2b2e" y="277.494596"/>
     <use style="stroke:#000000;" x="296.802822" xlink:href="#m2edf5c2b2e" y="157.845523"/>
     <use style="stroke:#000000;" x="275.207854" xlink:href="#m2edf5c2b2e" y="254.957897"/>
     <use style="stroke:#000000;" x="302.704278" xlink:href="#m2edf5c2b2e" y="42.003198"/>
     <use style="stroke:#000000;" x="223.437833" xlink:href="#m2edf5c2b2e" y="220.954049"/>
     <use style="stroke:#000000;" x="190.63974" xlink:href="#m2edf5c2b2e" y="282.618823"/>
     <use style="stroke:#000000;" x="201.40689" xlink:href="#m2edf5c2b2e" y="240.801739"/>
     <use style="stroke:#000000;" x="221.12738" xlink:href="#m2edf5c2b2e" y="116.843662"/>
     <use style="stroke:#000000;" x="280.993853" xlink:href="#m2edf5c2b2e" y="87.554801"/>
     <use style="stroke:#000000;" x="246.630299" xlink:href="#m2edf5c2b2e" y="121.8563"/>
     <use style="stroke:#000000;" x="226.538398" xlink:href="#m2edf5c2b2e" y="198.978842"/>
     <use style="stroke:#000000;" x="332.042116" xlink:href="#m2edf5c2b2e" y="182.150285"/>
     <use style="stroke:#000000;" x="329.806355" xlink:href="#m2edf5c2b2e" y="138.283826"/>
     <use style="stroke:#000000;" x="235.504634" xlink:href="#m2edf5c2b2e" y="214.590451"/>
     <use style="stroke:#000000;" x="270.439449" xlink:href="#m2edf5c2b2e" y="170.007493"/>
     <use style="stroke:#000000;" x="293.712878" xlink:href="#m2edf5c2b2e" y="225.850443"/>
     <use style="stroke:#000000;" x="134.577388" xlink:href="#m2edf5c2b2e" y="269.439444"/>
     <use style="stroke:#000000;" x="280.737878" xlink:href="#m2edf5c2b2e" y="134.091492"/>
     <use style="stroke:#000000;" x="330.954349" xlink:href="#m2edf5c2b2e" y="236.032724"/>
     <use style="stroke:#000000;" x="218.263652" xlink:href="#m2edf5c2b2e" y="114.485544"/>
     <use style="stroke:#000000;" x="303.363789" xlink:href="#m2edf5c2b2e" y="110.600182"/>
     <use style="stroke:#000000;" x="301.535122" xlink:href="#m2edf5c2b2e" y="208.060345"/>
    </g>
   </g>
   <g id="matplotlib.axis_1">
    <g id="xtick_1">
     <g id="line2d_1">
      <defs>
       <path d="M 0 0 
L 0 6 
" id="m330dbbfc34" style="stroke:#000000;stroke-width:1.25;"/>
      </defs>
      <g>
       <use style="stroke:#000000;stroke-width:1.25;" x="129.155334" xlink:href="#m330dbbfc34" y="336.652"/>
      </g>
     </g>
     <g id="text_1">
      <!-- −40 -->
      <defs>
       <path d="M 10.59375 35.5 
L 73.1875 35.5 
L 73.1875 27.203125 
L 10.59375 27.203125 
z
" id="DejaVuSans-8722"/>
       <path d="M 37.796875 64.3125 
L 12.890625 25.390625 
L 37.796875 25.390625 
z
M 35.203125 72.90625 
L 47.609375 72.90625 
L 47.609375 25.390625 
L 58.015625 25.390625 
L 58.015625 17.1875 
L 47.609375 17.1875 
L 47.609375 0 
L 37.796875 0 
L 37.796875 17.1875 
L 4.890625 17.1875 
L 4.890625 26.703125 
z
" id="DejaVuSans-52"/>
       <path d="M 31.78125 66.40625 
Q 24.171875 66.40625 20.328125 58.90625 
Q 16.5 51.421875 16.5 36.375 
Q 16.5 21.390625 20.328125 13.890625 
Q 24.171875 6.390625 31.78125 6.390625 
Q 39.453125 6.390625 43.28125 13.890625 
Q 47.125 21.390625 47.125 36.375 
Q 47.125 51.421875 43.28125 58.90625 
Q 39.453125 66.40625 31.78125 66.40625 
z
M 31.78125 74.21875 
Q 44.046875 74.21875 50.515625 64.515625 
Q 56.984375 54.828125 56.984375 36.375 
Q 56.984375 17.96875 50.515625 8.265625 
Q 44.046875 -1.421875 31.78125 -1.421875 
Q 19.53125 -1.421875 13.0625 8.265625 
Q 6.59375 17.96875 6.59375 36.375 
Q 6.59375 54.828125 13.0625 64.515625 
Q 19.53125 74.21875 31.78125 74.21875 
z
" id="DejaVuSans-48"/>
      </defs>
      <g transform="translate(114.065483 357.017766)scale(0.143 -0.143)">
       <use xlink:href="#DejaVuSans-8722"/>
       <use x="83.789062" xlink:href="#DejaVuSans-52"/>
       <use x="147.412109" xlink:href="#DejaVuSans-48"/>
      </g>
     </g>
    </g>
    <g id="xtick_2">
     <g id="line2d_2">
      <g>
       <use style="stroke:#000000;stroke-width:1.25;" x="187.368999" xlink:href="#m330dbbfc34" y="336.652"/>
      </g>
     </g>
     <g id="text_2">
      <!-- −20 -->
      <defs>
       <path d="M 19.1875 8.296875 
L 53.609375 8.296875 
L 53.609375 0 
L 7.328125 0 
L 7.328125 8.296875 
Q 12.9375 14.109375 22.625 23.890625 
Q 32.328125 33.6875 34.8125 36.53125 
Q 39.546875 41.84375 41.421875 45.53125 
Q 43.3125 49.21875 43.3125 52.78125 
Q 43.3125 58.59375 39.234375 62.25 
Q 35.15625 65.921875 28.609375 65.921875 
Q 23.96875 65.921875 18.8125 64.3125 
Q 13.671875 62.703125 7.8125 59.421875 
L 7.8125 69.390625 
Q 13.765625 71.78125 18.9375 73 
Q 24.125 74.21875 28.421875 74.21875 
Q 39.75 74.21875 46.484375 68.546875 
Q 53.21875 62.890625 53.21875 53.421875 
Q 53.21875 48.921875 51.53125 44.890625 
Q 49.859375 40.875 45.40625 35.40625 
Q 44.1875 33.984375 37.640625 27.21875 
Q 31.109375 20.453125 19.1875 8.296875 
z
" id="DejaVuSans-50"/>
      </defs>
      <g transform="translate(172.279148 357.017766)scale(0.143 -0.143)">
       <use xlink:href="#DejaVuSans-8722"/>
       <use x="83.789062" xlink:href="#DejaVuSans-50"/>
       <use x="147.412109" xlink:href="#DejaVuSans-48"/>
      </g>
     </g>
    </g>
    <g id="xtick_3">
     <g id="line2d_3">
      <g>
       <use style="stroke:#000000;stroke-width:1.25;" x="245.582665" xlink:href="#m330dbbfc34" y="336.652"/>
      </g>
     </g>
     <g id="text_3">
      <!-- 0 -->
      <g transform="translate(241.033477 357.017766)scale(0.143 -0.143)">
       <use xlink:href="#DejaVuSans-48"/>
      </g>
     </g>
    </g>
    <g id="xtick_4">
     <g id="line2d_4">
      <g>
       <use style="stroke:#000000;stroke-width:1.25;" x="303.79633" xlink:href="#m330dbbfc34" y="336.652"/>
      </g>
     </g>
     <g id="text_4">
      <!-- 20 -->
      <g transform="translate(294.697955 357.017766)scale(0.143 -0.143)">
       <use xlink:href="#DejaVuSans-50"/>
       <use x="63.623047" xlink:href="#DejaVuSans-48"/>
      </g>
     </g>
    </g>
    <g id="text_5">
     <!-- DeepAccess Differential Accessibility Effect Size -->
     <defs>
      <path d="M 19.671875 64.796875 
L 19.671875 8.109375 
L 31.59375 8.109375 
Q 46.6875 8.109375 53.6875 14.9375 
Q 60.6875 21.78125 60.6875 36.53125 
Q 60.6875 51.171875 53.6875 57.984375 
Q 46.6875 64.796875 31.59375 64.796875 
z
M 9.8125 72.90625 
L 30.078125 72.90625 
Q 51.265625 72.90625 61.171875 64.09375 
Q 71.09375 55.28125 71.09375 36.53125 
Q 71.09375 17.671875 61.125 8.828125 
Q 51.171875 0 30.078125 0 
L 9.8125 0 
z
" id="DejaVuSans-68"/>
      <path d="M 56.203125 29.59375 
L 56.203125 25.203125 
L 14.890625 25.203125 
Q 15.484375 15.921875 20.484375 11.0625 
Q 25.484375 6.203125 34.421875 6.203125 
Q 39.59375 6.203125 44.453125 7.46875 
Q 49.3125 8.734375 54.109375 11.28125 
L 54.109375 2.78125 
Q 49.265625 0.734375 44.1875 -0.34375 
Q 39.109375 -1.421875 33.890625 -1.421875 
Q 20.796875 -1.421875 13.15625 6.1875 
Q 5.515625 13.8125 5.515625 26.8125 
Q 5.515625 40.234375 12.765625 48.109375 
Q 20.015625 56 32.328125 56 
Q 43.359375 56 49.78125 48.890625 
Q 56.203125 41.796875 56.203125 29.59375 
z
M 47.21875 32.234375 
Q 47.125 39.59375 43.09375 43.984375 
Q 39.0625 48.390625 32.421875 48.390625 
Q 24.90625 48.390625 20.390625 44.140625 
Q 15.875 39.890625 15.1875 32.171875 
z
" id="DejaVuSans-101"/>
      <path d="M 18.109375 8.203125 
L 18.109375 -20.796875 
L 9.078125 -20.796875 
L 9.078125 54.6875 
L 18.109375 54.6875 
L 18.109375 46.390625 
Q 20.953125 51.265625 25.265625 53.625 
Q 29.59375 56 35.59375 56 
Q 45.5625 56 51.78125 48.09375 
Q 58.015625 40.1875 58.015625 27.296875 
Q 58.015625 14.40625 51.78125 6.484375 
Q 45.5625 -1.421875 35.59375 -1.421875 
Q 29.59375 -1.421875 25.265625 0.953125 
Q 20.953125 3.328125 18.109375 8.203125 
z
M 48.6875 27.296875 
Q 48.6875 37.203125 44.609375 42.84375 
Q 40.53125 48.484375 33.40625 48.484375 
Q 26.265625 48.484375 22.1875 42.84375 
Q 18.109375 37.203125 18.109375 27.296875 
Q 18.109375 17.390625 22.1875 11.75 
Q 26.265625 6.109375 33.40625 6.109375 
Q 40.53125 6.109375 44.609375 11.75 
Q 48.6875 17.390625 48.6875 27.296875 
z
" id="DejaVuSans-112"/>
      <path d="M 34.1875 63.1875 
L 20.796875 26.90625 
L 47.609375 26.90625 
z
M 28.609375 72.90625 
L 39.796875 72.90625 
L 67.578125 0 
L 57.328125 0 
L 50.6875 18.703125 
L 17.828125 18.703125 
L 11.1875 0 
L 0.78125 0 
z
" id="DejaVuSans-65"/>
      <path d="M 48.78125 52.59375 
L 48.78125 44.1875 
Q 44.96875 46.296875 41.140625 47.34375 
Q 37.3125 48.390625 33.40625 48.390625 
Q 24.65625 48.390625 19.8125 42.84375 
Q 14.984375 37.3125 14.984375 27.296875 
Q 14.984375 17.28125 19.8125 11.734375 
Q 24.65625 6.203125 33.40625 6.203125 
Q 37.3125 6.203125 41.140625 7.25 
Q 44.96875 8.296875 48.78125 10.40625 
L 48.78125 2.09375 
Q 45.015625 0.34375 40.984375 -0.53125 
Q 36.96875 -1.421875 32.421875 -1.421875 
Q 20.0625 -1.421875 12.78125 6.34375 
Q 5.515625 14.109375 5.515625 27.296875 
Q 5.515625 40.671875 12.859375 48.328125 
Q 20.21875 56 33.015625 56 
Q 37.15625 56 41.109375 55.140625 
Q 45.0625 54.296875 48.78125 52.59375 
z
" id="DejaVuSans-99"/>
      <path d="M 44.28125 53.078125 
L 44.28125 44.578125 
Q 40.484375 46.53125 36.375 47.5 
Q 32.28125 48.484375 27.875 48.484375 
Q 21.1875 48.484375 17.84375 46.4375 
Q 14.5 44.390625 14.5 40.28125 
Q 14.5 37.15625 16.890625 35.375 
Q 19.28125 33.59375 26.515625 31.984375 
L 29.59375 31.296875 
Q 39.15625 29.25 43.1875 25.515625 
Q 47.21875 21.78125 47.21875 15.09375 
Q 47.21875 7.46875 41.1875 3.015625 
Q 35.15625 -1.421875 24.609375 -1.421875 
Q 20.21875 -1.421875 15.453125 -0.5625 
Q 10.6875 0.296875 5.421875 2 
L 5.421875 11.28125 
Q 10.40625 8.6875 15.234375 7.390625 
Q 20.0625 6.109375 24.8125 6.109375 
Q 31.15625 6.109375 34.5625 8.28125 
Q 37.984375 10.453125 37.984375 14.40625 
Q 37.984375 18.0625 35.515625 20.015625 
Q 33.0625 21.96875 24.703125 23.78125 
L 21.578125 24.515625 
Q 13.234375 26.265625 9.515625 29.90625 
Q 5.8125 33.546875 5.8125 39.890625 
Q 5.8125 47.609375 11.28125 51.796875 
Q 16.75 56 26.8125 56 
Q 31.78125 56 36.171875 55.265625 
Q 40.578125 54.546875 44.28125 53.078125 
z
" id="DejaVuSans-115"/>
      <path id="DejaVuSans-32"/>
      <path d="M 9.421875 54.6875 
L 18.40625 54.6875 
L 18.40625 0 
L 9.421875 0 
z
M 9.421875 75.984375 
L 18.40625 75.984375 
L 18.40625 64.59375 
L 9.421875 64.59375 
z
" id="DejaVuSans-105"/>
      <path d="M 37.109375 75.984375 
L 37.109375 68.5 
L 28.515625 68.5 
Q 23.6875 68.5 21.796875 66.546875 
Q 19.921875 64.59375 19.921875 59.515625 
L 19.921875 54.6875 
L 34.71875 54.6875 
L 34.71875 47.703125 
L 19.921875 47.703125 
L 19.921875 0 
L 10.890625 0 
L 10.890625 47.703125 
L 2.296875 47.703125 
L 2.296875 54.6875 
L 10.890625 54.6875 
L 10.890625 58.5 
Q 10.890625 67.625 15.140625 71.796875 
Q 19.390625 75.984375 28.609375 75.984375 
z
" id="DejaVuSans-102"/>
      <path d="M 41.109375 46.296875 
Q 39.59375 47.171875 37.8125 47.578125 
Q 36.03125 48 33.890625 48 
Q 26.265625 48 22.1875 43.046875 
Q 18.109375 38.09375 18.109375 28.8125 
L 18.109375 0 
L 9.078125 0 
L 9.078125 54.6875 
L 18.109375 54.6875 
L 18.109375 46.1875 
Q 20.953125 51.171875 25.484375 53.578125 
Q 30.03125 56 36.53125 56 
Q 37.453125 56 38.578125 55.875 
Q 39.703125 55.765625 41.0625 55.515625 
z
" id="DejaVuSans-114"/>
      <path d="M 54.890625 33.015625 
L 54.890625 0 
L 45.90625 0 
L 45.90625 32.71875 
Q 45.90625 40.484375 42.875 44.328125 
Q 39.84375 48.1875 33.796875 48.1875 
Q 26.515625 48.1875 22.3125 43.546875 
Q 18.109375 38.921875 18.109375 30.90625 
L 18.109375 0 
L 9.078125 0 
L 9.078125 54.6875 
L 18.109375 54.6875 
L 18.109375 46.1875 
Q 21.34375 51.125 25.703125 53.5625 
Q 30.078125 56 35.796875 56 
Q 45.21875 56 50.046875 50.171875 
Q 54.890625 44.34375 54.890625 33.015625 
z
" id="DejaVuSans-110"/>
      <path d="M 18.3125 70.21875 
L 18.3125 54.6875 
L 36.8125 54.6875 
L 36.8125 47.703125 
L 18.3125 47.703125 
L 18.3125 18.015625 
Q 18.3125 11.328125 20.140625 9.421875 
Q 21.96875 7.515625 27.59375 7.515625 
L 36.8125 7.515625 
L 36.8125 0 
L 27.59375 0 
Q 17.1875 0 13.234375 3.875 
Q 9.28125 7.765625 9.28125 18.015625 
L 9.28125 47.703125 
L 2.6875 47.703125 
L 2.6875 54.6875 
L 9.28125 54.6875 
L 9.28125 70.21875 
z
" id="DejaVuSans-116"/>
      <path d="M 34.28125 27.484375 
Q 23.390625 27.484375 19.1875 25 
Q 14.984375 22.515625 14.984375 16.5 
Q 14.984375 11.71875 18.140625 8.90625 
Q 21.296875 6.109375 26.703125 6.109375 
Q 34.1875 6.109375 38.703125 11.40625 
Q 43.21875 16.703125 43.21875 25.484375 
L 43.21875 27.484375 
z
M 52.203125 31.203125 
L 52.203125 0 
L 43.21875 0 
L 43.21875 8.296875 
Q 40.140625 3.328125 35.546875 0.953125 
Q 30.953125 -1.421875 24.3125 -1.421875 
Q 15.921875 -1.421875 10.953125 3.296875 
Q 6 8.015625 6 15.921875 
Q 6 25.140625 12.171875 29.828125 
Q 18.359375 34.515625 30.609375 34.515625 
L 43.21875 34.515625 
L 43.21875 35.40625 
Q 43.21875 41.609375 39.140625 45 
Q 35.0625 48.390625 27.6875 48.390625 
Q 23 48.390625 18.546875 47.265625 
Q 14.109375 46.140625 10.015625 43.890625 
L 10.015625 52.203125 
Q 14.9375 54.109375 19.578125 55.046875 
Q 24.21875 56 28.609375 56 
Q 40.484375 56 46.34375 49.84375 
Q 52.203125 43.703125 52.203125 31.203125 
z
" id="DejaVuSans-97"/>
      <path d="M 9.421875 75.984375 
L 18.40625 75.984375 
L 18.40625 0 
L 9.421875 0 
z
" id="DejaVuSans-108"/>
      <path d="M 48.6875 27.296875 
Q 48.6875 37.203125 44.609375 42.84375 
Q 40.53125 48.484375 33.40625 48.484375 
Q 26.265625 48.484375 22.1875 42.84375 
Q 18.109375 37.203125 18.109375 27.296875 
Q 18.109375 17.390625 22.1875 11.75 
Q 26.265625 6.109375 33.40625 6.109375 
Q 40.53125 6.109375 44.609375 11.75 
Q 48.6875 17.390625 48.6875 27.296875 
z
M 18.109375 46.390625 
Q 20.953125 51.265625 25.265625 53.625 
Q 29.59375 56 35.59375 56 
Q 45.5625 56 51.78125 48.09375 
Q 58.015625 40.1875 58.015625 27.296875 
Q 58.015625 14.40625 51.78125 6.484375 
Q 45.5625 -1.421875 35.59375 -1.421875 
Q 29.59375 -1.421875 25.265625 0.953125 
Q 20.953125 3.328125 18.109375 8.203125 
L 18.109375 0 
L 9.078125 0 
L 9.078125 75.984375 
L 18.109375 75.984375 
z
" id="DejaVuSans-98"/>
      <path d="M 32.171875 -5.078125 
Q 28.375 -14.84375 24.75 -17.8125 
Q 21.140625 -20.796875 15.09375 -20.796875 
L 7.90625 -20.796875 
L 7.90625 -13.28125 
L 13.1875 -13.28125 
Q 16.890625 -13.28125 18.9375 -11.515625 
Q 21 -9.765625 23.484375 -3.21875 
L 25.09375 0.875 
L 2.984375 54.6875 
L 12.5 54.6875 
L 29.59375 11.921875 
L 46.6875 54.6875 
L 56.203125 54.6875 
z
" id="DejaVuSans-121"/>
      <path d="M 9.8125 72.90625 
L 55.90625 72.90625 
L 55.90625 64.59375 
L 19.671875 64.59375 
L 19.671875 43.015625 
L 54.390625 43.015625 
L 54.390625 34.71875 
L 19.671875 34.71875 
L 19.671875 8.296875 
L 56.78125 8.296875 
L 56.78125 0 
L 9.8125 0 
z
" id="DejaVuSans-69"/>
      <path d="M 53.515625 70.515625 
L 53.515625 60.890625 
Q 47.90625 63.578125 42.921875 64.890625 
Q 37.9375 66.21875 33.296875 66.21875 
Q 25.25 66.21875 20.875 63.09375 
Q 16.5 59.96875 16.5 54.203125 
Q 16.5 49.359375 19.40625 46.890625 
Q 22.3125 44.4375 30.421875 42.921875 
L 36.375 41.703125 
Q 47.40625 39.59375 52.65625 34.296875 
Q 57.90625 29 57.90625 20.125 
Q 57.90625 9.515625 50.796875 4.046875 
Q 43.703125 -1.421875 29.984375 -1.421875 
Q 24.8125 -1.421875 18.96875 -0.25 
Q 13.140625 0.921875 6.890625 3.21875 
L 6.890625 13.375 
Q 12.890625 10.015625 18.65625 8.296875 
Q 24.421875 6.59375 29.984375 6.59375 
Q 38.421875 6.59375 43.015625 9.90625 
Q 47.609375 13.234375 47.609375 19.390625 
Q 47.609375 24.75 44.3125 27.78125 
Q 41.015625 30.8125 33.5 32.328125 
L 27.484375 33.5 
Q 16.453125 35.6875 11.515625 40.375 
Q 6.59375 45.0625 6.59375 53.421875 
Q 6.59375 63.09375 13.40625 68.65625 
Q 20.21875 74.21875 32.171875 74.21875 
Q 37.3125 74.21875 42.625 73.28125 
Q 47.953125 72.359375 53.515625 70.515625 
z
" id="DejaVuSans-83"/>
      <path d="M 5.515625 54.6875 
L 48.1875 54.6875 
L 48.1875 46.484375 
L 14.40625 7.171875 
L 48.1875 7.171875 
L 48.1875 0 
L 4.296875 0 
L 4.296875 8.203125 
L 38.09375 47.515625 
L 5.515625 47.515625 
z
" id="DejaVuSans-122"/>
     </defs>
     <g transform="translate(22.277844 375.845281)scale(0.156 -0.156)">
      <use xlink:href="#DejaVuSans-68"/>
      <use x="77.001953" xlink:href="#DejaVuSans-101"/>
      <use x="138.525391" xlink:href="#DejaVuSans-101"/>
      <use x="200.048828" xlink:href="#DejaVuSans-112"/>
      <use x="263.525391" xlink:href="#DejaVuSans-65"/>
      <use x="331.917969" xlink:href="#DejaVuSans-99"/>
      <use x="386.898438" xlink:href="#DejaVuSans-99"/>
      <use x="441.878906" xlink:href="#DejaVuSans-101"/>
      <use x="503.402344" xlink:href="#DejaVuSans-115"/>
      <use x="555.501953" xlink:href="#DejaVuSans-115"/>
      <use x="607.601562" xlink:href="#DejaVuSans-32"/>
      <use x="639.388672" xlink:href="#DejaVuSans-68"/>
      <use x="716.390625" xlink:href="#DejaVuSans-105"/>
      <use x="744.173828" xlink:href="#DejaVuSans-102"/>
      <use x="779.378906" xlink:href="#DejaVuSans-102"/>
      <use x="814.583984" xlink:href="#DejaVuSans-101"/>
      <use x="876.107422" xlink:href="#DejaVuSans-114"/>
      <use x="917.189453" xlink:href="#DejaVuSans-101"/>
      <use x="978.712891" xlink:href="#DejaVuSans-110"/>
      <use x="1042.091797" xlink:href="#DejaVuSans-116"/>
      <use x="1081.300781" xlink:href="#DejaVuSans-105"/>
      <use x="1109.083984" xlink:href="#DejaVuSans-97"/>
      <use x="1170.363281" xlink:href="#DejaVuSans-108"/>
      <use x="1198.146484" xlink:href="#DejaVuSans-32"/>
      <use x="1229.933594" xlink:href="#DejaVuSans-65"/>
      <use x="1298.326172" xlink:href="#DejaVuSans-99"/>
      <use x="1353.306641" xlink:href="#DejaVuSans-99"/>
      <use x="1408.287109" xlink:href="#DejaVuSans-101"/>
      <use x="1469.810547" xlink:href="#DejaVuSans-115"/>
      <use x="1521.910156" xlink:href="#DejaVuSans-115"/>
      <use x="1574.009766" xlink:href="#DejaVuSans-105"/>
      <use x="1601.792969" xlink:href="#DejaVuSans-98"/>
      <use x="1665.269531" xlink:href="#DejaVuSans-105"/>
      <use x="1693.052734" xlink:href="#DejaVuSans-108"/>
      <use x="1720.835938" xlink:href="#DejaVuSans-105"/>
      <use x="1748.619141" xlink:href="#DejaVuSans-116"/>
      <use x="1787.828125" xlink:href="#DejaVuSans-121"/>
      <use x="1847.007812" xlink:href="#DejaVuSans-32"/>
      <use x="1878.794922" xlink:href="#DejaVuSans-69"/>
      <use x="1941.978516" xlink:href="#DejaVuSans-102"/>
      <use x="1977.183594" xlink:href="#DejaVuSans-102"/>
      <use x="2012.388672" xlink:href="#DejaVuSans-101"/>
      <use x="2073.912109" xlink:href="#DejaVuSans-99"/>
      <use x="2128.892578" xlink:href="#DejaVuSans-116"/>
      <use x="2168.101562" xlink:href="#DejaVuSans-32"/>
      <use x="2199.888672" xlink:href="#DejaVuSans-83"/>
      <use x="2263.365234" xlink:href="#DejaVuSans-105"/>
      <use x="2291.148438" xlink:href="#DejaVuSans-122"/>
      <use x="2343.638672" xlink:href="#DejaVuSans-101"/>
     </g>
    </g>
   </g>
   <g id="matplotlib.axis_2">
    <g id="ytick_1">
     <g id="line2d_5">
      <defs>
       <path d="M 0 0 
L -6 0 
" id="m2bec24b5f9" style="stroke:#000000;stroke-width:1.25;"/>
      </defs>
      <g>
       <use style="stroke:#000000;stroke-width:1.25;" x="75.473" xlink:href="#m2bec24b5f9" y="297.362558"/>
      </g>
     </g>
     <g id="text_6">
      <!-- −10 -->
      <defs>
       <path d="M 12.40625 8.296875 
L 28.515625 8.296875 
L 28.515625 63.921875 
L 10.984375 60.40625 
L 10.984375 69.390625 
L 28.421875 72.90625 
L 38.28125 72.90625 
L 38.28125 8.296875 
L 54.390625 8.296875 
L 54.390625 0 
L 12.40625 0 
z
" id="DejaVuSans-49"/>
      </defs>
      <g transform="translate(35.793297 302.795441)scale(0.143 -0.143)">
       <use xlink:href="#DejaVuSans-8722"/>
       <use x="83.789062" xlink:href="#DejaVuSans-49"/>
       <use x="147.412109" xlink:href="#DejaVuSans-48"/>
      </g>
     </g>
    </g>
    <g id="ytick_2">
     <g id="line2d_6">
      <g>
       <use style="stroke:#000000;stroke-width:1.25;" x="75.473" xlink:href="#m2bec24b5f9" y="242.99437"/>
      </g>
     </g>
     <g id="text_7">
      <!-- −5 -->
      <defs>
       <path d="M 10.796875 72.90625 
L 49.515625 72.90625 
L 49.515625 64.59375 
L 19.828125 64.59375 
L 19.828125 46.734375 
Q 21.96875 47.46875 24.109375 47.828125 
Q 26.265625 48.1875 28.421875 48.1875 
Q 40.625 48.1875 47.75 41.5 
Q 54.890625 34.8125 54.890625 23.390625 
Q 54.890625 11.625 47.5625 5.09375 
Q 40.234375 -1.421875 26.90625 -1.421875 
Q 22.3125 -1.421875 17.546875 -0.640625 
Q 12.796875 0.140625 7.71875 1.703125 
L 7.71875 11.625 
Q 12.109375 9.234375 16.796875 8.0625 
Q 21.484375 6.890625 26.703125 6.890625 
Q 35.15625 6.890625 40.078125 11.328125 
Q 45.015625 15.765625 45.015625 23.390625 
Q 45.015625 31 40.078125 35.4375 
Q 35.15625 39.890625 26.703125 39.890625 
Q 22.75 39.890625 18.8125 39.015625 
Q 14.890625 38.140625 10.796875 36.28125 
z
" id="DejaVuSans-53"/>
      </defs>
      <g transform="translate(44.891672 248.427253)scale(0.143 -0.143)">
       <use xlink:href="#DejaVuSans-8722"/>
       <use x="83.789062" xlink:href="#DejaVuSans-53"/>
      </g>
     </g>
    </g>
    <g id="ytick_3">
     <g id="line2d_7">
      <g>
       <use style="stroke:#000000;stroke-width:1.25;" x="75.473" xlink:href="#m2bec24b5f9" y="188.626182"/>
      </g>
     </g>
     <g id="text_8">
      <!-- 0 -->
      <g transform="translate(56.874625 194.059065)scale(0.143 -0.143)">
       <use xlink:href="#DejaVuSans-48"/>
      </g>
     </g>
    </g>
    <g id="ytick_4">
     <g id="line2d_8">
      <g>
       <use style="stroke:#000000;stroke-width:1.25;" x="75.473" xlink:href="#m2bec24b5f9" y="134.257994"/>
      </g>
     </g>
     <g id="text_9">
      <!-- 5 -->
      <g transform="translate(56.874625 139.690877)scale(0.143 -0.143)">
       <use xlink:href="#DejaVuSans-53"/>
      </g>
     </g>
    </g>
    <g id="ytick_5">
     <g id="line2d_9">
      <g>
       <use style="stroke:#000000;stroke-width:1.25;" x="75.473" xlink:href="#m2bec24b5f9" y="79.889806"/>
      </g>
     </g>
     <g id="text_10">
      <!-- 10 -->
      <g transform="translate(47.77625 85.322689)scale(0.143 -0.143)">
       <use xlink:href="#DejaVuSans-49"/>
       <use x="63.623047" xlink:href="#DejaVuSans-48"/>
      </g>
     </g>
    </g>
    <g id="text_11">
     <!-- MIAA Differential Accessibility Effect Size -->
     <defs>
      <path d="M 9.8125 72.90625 
L 24.515625 72.90625 
L 43.109375 23.296875 
L 61.8125 72.90625 
L 76.515625 72.90625 
L 76.515625 0 
L 66.890625 0 
L 66.890625 64.015625 
L 48.09375 14.015625 
L 38.1875 14.015625 
L 19.390625 64.015625 
L 19.390625 0 
L 9.8125 0 
z
" id="DejaVuSans-77"/>
      <path d="M 9.8125 72.90625 
L 19.671875 72.90625 
L 19.671875 0 
L 9.8125 0 
z
" id="DejaVuSans-73"/>
     </defs>
     <g transform="translate(28.548984 342.168406)rotate(-90)scale(0.156 -0.156)">
      <use xlink:href="#DejaVuSans-77"/>
      <use x="86.279297" xlink:href="#DejaVuSans-73"/>
      <use x="115.771484" xlink:href="#DejaVuSans-65"/>
      <use x="184.210938" xlink:href="#DejaVuSans-65"/>
      <use x="252.619141" xlink:href="#DejaVuSans-32"/>
      <use x="284.40625" xlink:href="#DejaVuSans-68"/>
      <use x="361.408203" xlink:href="#DejaVuSans-105"/>
      <use x="389.191406" xlink:href="#DejaVuSans-102"/>
      <use x="424.396484" xlink:href="#DejaVuSans-102"/>
      <use x="459.601562" xlink:href="#DejaVuSans-101"/>
      <use x="521.125" xlink:href="#DejaVuSans-114"/>
      <use x="562.207031" xlink:href="#DejaVuSans-101"/>
      <use x="623.730469" xlink:href="#DejaVuSans-110"/>
      <use x="687.109375" xlink:href="#DejaVuSans-116"/>
      <use x="726.318359" xlink:href="#DejaVuSans-105"/>
      <use x="754.101562" xlink:href="#DejaVuSans-97"/>
      <use x="815.380859" xlink:href="#DejaVuSans-108"/>
      <use x="843.164062" xlink:href="#DejaVuSans-32"/>
      <use x="874.951172" xlink:href="#DejaVuSans-65"/>
      <use x="943.34375" xlink:href="#DejaVuSans-99"/>
      <use x="998.324219" xlink:href="#DejaVuSans-99"/>
      <use x="1053.304688" xlink:href="#DejaVuSans-101"/>
      <use x="1114.828125" xlink:href="#DejaVuSans-115"/>
      <use x="1166.927734" xlink:href="#DejaVuSans-115"/>
      <use x="1219.027344" xlink:href="#DejaVuSans-105"/>
      <use x="1246.810547" xlink:href="#DejaVuSans-98"/>
      <use x="1310.287109" xlink:href="#DejaVuSans-105"/>
      <use x="1338.070312" xlink:href="#DejaVuSans-108"/>
      <use x="1365.853516" xlink:href="#DejaVuSans-105"/>
      <use x="1393.636719" xlink:href="#DejaVuSans-116"/>
      <use x="1432.845703" xlink:href="#DejaVuSans-121"/>
      <use x="1492.025391" xlink:href="#DejaVuSans-32"/>
      <use x="1523.8125" xlink:href="#DejaVuSans-69"/>
      <use x="1586.996094" xlink:href="#DejaVuSans-102"/>
      <use x="1622.201172" xlink:href="#DejaVuSans-102"/>
      <use x="1657.40625" xlink:href="#DejaVuSans-101"/>
      <use x="1718.929688" xlink:href="#DejaVuSans-99"/>
      <use x="1773.910156" xlink:href="#DejaVuSans-116"/>
      <use x="1813.119141" xlink:href="#DejaVuSans-32"/>
      <use x="1844.90625" xlink:href="#DejaVuSans-83"/>
      <use x="1908.382812" xlink:href="#DejaVuSans-105"/>
      <use x="1936.166016" xlink:href="#DejaVuSans-122"/>
      <use x="1988.65625" xlink:href="#DejaVuSans-101"/>
     </g>
    </g>
   </g>
   <g id="patch_3">
    <path d="M 75.473 336.652 
L 75.473 27.858 
" style="fill:none;stroke:#000000;stroke-linecap:square;stroke-linejoin:miter;stroke-width:1.25;"/>
   </g>
   <g id="patch_4">
    <path d="M 344.2895 336.652 
L 344.2895 27.858 
" style="fill:none;stroke:#000000;stroke-linecap:square;stroke-linejoin:miter;stroke-width:1.25;"/>
   </g>
   <g id="patch_5">
    <path d="M 75.473 336.652 
L 344.2895 336.652 
" style="fill:none;stroke:#000000;stroke-linecap:square;stroke-linejoin:miter;stroke-width:1.25;"/>
   </g>
   <g id="patch_6">
    <path d="M 75.473 27.858 
L 344.2895 27.858 
" style="fill:none;stroke:#000000;stroke-linecap:square;stroke-linejoin:miter;stroke-width:1.25;"/>
   </g>
   <g id="text_12">
    <!-- R=0.62 -->
    <defs>
     <path d="M 44.390625 34.1875 
Q 47.5625 33.109375 50.5625 29.59375 
Q 53.5625 26.078125 56.59375 19.921875 
L 66.609375 0 
L 56 0 
L 46.6875 18.703125 
Q 43.0625 26.03125 39.671875 28.421875 
Q 36.28125 30.8125 30.421875 30.8125 
L 19.671875 30.8125 
L 19.671875 0 
L 9.8125 0 
L 9.8125 72.90625 
L 32.078125 72.90625 
Q 44.578125 72.90625 50.734375 67.671875 
Q 56.890625 62.453125 56.890625 51.90625 
Q 56.890625 45.015625 53.6875 40.46875 
Q 50.484375 35.9375 44.390625 34.1875 
z
M 19.671875 64.796875 
L 19.671875 38.921875 
L 32.078125 38.921875 
Q 39.203125 38.921875 42.84375 42.21875 
Q 46.484375 45.515625 46.484375 51.90625 
Q 46.484375 58.296875 42.84375 61.546875 
Q 39.203125 64.796875 32.078125 64.796875 
z
" id="DejaVuSans-82"/>
     <path d="M 10.59375 45.40625 
L 73.1875 45.40625 
L 73.1875 37.203125 
L 10.59375 37.203125 
z
M 10.59375 25.484375 
L 73.1875 25.484375 
L 73.1875 17.1875 
L 10.59375 17.1875 
z
" id="DejaVuSans-61"/>
     <path d="M 10.6875 12.40625 
L 21 12.40625 
L 21 0 
L 10.6875 0 
z
" id="DejaVuSans-46"/>
     <path d="M 33.015625 40.375 
Q 26.375 40.375 22.484375 35.828125 
Q 18.609375 31.296875 18.609375 23.390625 
Q 18.609375 15.53125 22.484375 10.953125 
Q 26.375 6.390625 33.015625 6.390625 
Q 39.65625 6.390625 43.53125 10.953125 
Q 47.40625 15.53125 47.40625 23.390625 
Q 47.40625 31.296875 43.53125 35.828125 
Q 39.65625 40.375 33.015625 40.375 
z
M 52.59375 71.296875 
L 52.59375 62.3125 
Q 48.875 64.0625 45.09375 64.984375 
Q 41.3125 65.921875 37.59375 65.921875 
Q 27.828125 65.921875 22.671875 59.328125 
Q 17.53125 52.734375 16.796875 39.40625 
Q 19.671875 43.65625 24.015625 45.921875 
Q 28.375 48.1875 33.59375 48.1875 
Q 44.578125 48.1875 50.953125 41.515625 
Q 57.328125 34.859375 57.328125 23.390625 
Q 57.328125 12.15625 50.6875 5.359375 
Q 44.046875 -1.421875 33.015625 -1.421875 
Q 20.359375 -1.421875 13.671875 8.265625 
Q 6.984375 17.96875 6.984375 36.375 
Q 6.984375 53.65625 15.1875 63.9375 
Q 23.390625 74.21875 37.203125 74.21875 
Q 40.921875 74.21875 44.703125 73.484375 
Q 48.484375 72.75 52.59375 71.296875 
z
" id="DejaVuSans-54"/>
    </defs>
    <g transform="translate(129.155334 79.889806)scale(0.156 -0.156)">
     <use xlink:href="#DejaVuSans-82"/>
     <use x="69.482422" xlink:href="#DejaVuSans-61"/>
     <use x="153.271484" xlink:href="#DejaVuSans-48"/>
     <use x="216.894531" xlink:href="#DejaVuSans-46"/>
     <use x="248.681641" xlink:href="#DejaVuSans-54"/>
     <use x="312.304688" xlink:href="#DejaVuSans-50"/>
    </g>
   </g>
  </g>
 </g>
 <defs>
  <clipPath id="p4519a67c7a">
   <rect height="308.794" width="268.8165" x="75.473" y="27.858"/>
  </clipPath>
 </defs>
</svg>
