<?xml version="1.0" encoding="utf-8" standalone="no"?>
<!DOCTYPE svg PUBLIC "-//W3C//DTD SVG 1.1//EN"
  "http://www.w3.org/Graphics/SVG/1.1/DTD/svg11.dtd">
<!-- Created with matplotlib (https://matplotlib.org/) -->
<svg height="360pt" version="1.1" viewBox="0 0 360 360" width="360pt" xmlns="http://www.w3.org/2000/svg" xmlns:xlink="http://www.w3.org/1999/xlink">
 <defs>
  <style type="text/css">
*{stroke-linecap:butt;stroke-linejoin:round;white-space:pre;}
  </style>
 </defs>
 <g id="figure_1">
  <g id="patch_1">
   <path d="M 0 360 
L 360 360 
L 360 0 
L 0 0 
z
" style="fill:#ffffff;"/>
  </g>
  <g id="axes_1">
   <g id="patch_2">
    <path d="M 91.065 294.06 
L 331.62782 294.06 
L 331.62782 19.44 
L 91.065 19.44 
z
" style="fill:#ffffff;"/>
   </g>
   <g id="PathCollection_1">
    <defs>
     <path d="M 0 3 
C 0.795609 3 1.55874 2.683901 2.12132 2.12132 
C 2.683901 1.55874 3 0.795609 3 0 
C 3 -0.795609 2.683901 -1.55874 2.12132 -2.12132 
C 1.55874 -2.683901 0.795609 -3 0 -3 
C -0.795609 -3 -1.55874 -2.683901 -2.12132 -2.12132 
C -2.683901 -1.55874 -3 -0.795609 -3 0 
C -3 0.795609 -2.683901 1.55874 -2.12132 2.12132 
C -1.55874 2.683901 -0.795609 3 0 3 
z
" id="m6974774363" style="stroke:#000000;"/>
    </defs>
    <g clip-path="url(#pff173424cd)">
     <use style="stroke:#000000;" x="169.124773" xlink:href="#m6974774363" y="112.811723"/>
     <use style="stroke:#000000;" x="179.634585" xlink:href="#m6974774363" y="95.414822"/>
     <use style="stroke:#000000;" x="224.253309" xlink:href="#m6974774363" y="115.331461"/>
     <use style="stroke:#000000;" x="237.89452" xlink:href="#m6974774363" y="93.520097"/>
     <use style="stroke:#000000;" x="250.535768" xlink:href="#m6974774363" y="105.203276"/>
     <use style="stroke:#000000;" x="212.387728" xlink:href="#m6974774363" y="123.037233"/>
     <use style="stroke:#000000;" x="239.909877" xlink:href="#m6974774363" y="120.550741"/>
     <use style="stroke:#000000;" x="248.943859" xlink:href="#m6974774363" y="77.189759"/>
     <use style="stroke:#000000;" x="189.201008" xlink:href="#m6974774363" y="107.96751"/>
     <use style="stroke:#000000;" x="223.494543" xlink:href="#m6974774363" y="81.504888"/>
     <use style="stroke:#000000;" x="244.937736" xlink:href="#m6974774363" y="103.658408"/>
     <use style="stroke:#000000;" x="239.831411" xlink:href="#m6974774363" y="96.575665"/>
     <use style="stroke:#000000;" x="165.510083" xlink:href="#m6974774363" y="114.49942"/>
     <use style="stroke:#000000;" x="217.040168" xlink:href="#m6974774363" y="82.243024"/>
     <use style="stroke:#000000;" x="227.315947" xlink:href="#m6974774363" y="78.012797"/>
     <use style="stroke:#000000;" x="147.773394" xlink:href="#m6974774363" y="104.4249"/>
     <use style="stroke:#000000;" x="166.405674" xlink:href="#m6974774363" y="125.335716"/>
     <use style="stroke:#000000;" x="278.312849" xlink:href="#m6974774363" y="112.959166"/>
     <use style="stroke:#000000;" x="209.139353" xlink:href="#m6974774363" y="83.926005"/>
     <use style="stroke:#000000;" x="222.367599" xlink:href="#m6974774363" y="141.743564"/>
     <use style="stroke:#000000;" x="222.918854" xlink:href="#m6974774363" y="64.891179"/>
     <use style="stroke:#000000;" x="241.372344" xlink:href="#m6974774363" y="188.643181"/>
     <use style="stroke:#000000;" x="223.99381" xlink:href="#m6974774363" y="85.133274"/>
     <use style="stroke:#000000;" x="290.182937" xlink:href="#m6974774363" y="99.290069"/>
     <use style="stroke:#000000;" x="307.912559" xlink:href="#m6974774363" y="80.46227"/>
     <use style="stroke:#000000;" x="191.642028" xlink:href="#m6974774363" y="95.826334"/>
     <use style="stroke:#000000;" x="280.748888" xlink:href="#m6974774363" y="130.138309"/>
     <use style="stroke:#000000;" x="289.732877" xlink:href="#m6974774363" y="33.19866"/>
     <use style="stroke:#000000;" x="207.349018" xlink:href="#m6974774363" y="96.336026"/>
     <use style="stroke:#000000;" x="252.718745" xlink:href="#m6974774363" y="134.954606"/>
     <use style="stroke:#000000;" x="163.627866" xlink:href="#m6974774363" y="101.820062"/>
     <use style="stroke:#000000;" x="255.81062" xlink:href="#m6974774363" y="130.393369"/>
     <use style="stroke:#000000;" x="244.305973" xlink:href="#m6974774363" y="93.433239"/>
     <use style="stroke:#000000;" x="209.753487" xlink:href="#m6974774363" y="91.768857"/>
     <use style="stroke:#000000;" x="209.924652" xlink:href="#m6974774363" y="116.357024"/>
     <use style="stroke:#000000;" x="215.551731" xlink:href="#m6974774363" y="115.803499"/>
     <use style="stroke:#000000;" x="261.545691" xlink:href="#m6974774363" y="104.168101"/>
     <use style="stroke:#000000;" x="271.745082" xlink:href="#m6974774363" y="87.582747"/>
     <use style="stroke:#000000;" x="316.789127" xlink:href="#m6974774363" y="122.886243"/>
     <use style="stroke:#000000;" x="219.817949" xlink:href="#m6974774363" y="94.000524"/>
     <use style="stroke:#000000;" x="194.124402" xlink:href="#m6974774363" y="109.571616"/>
     <use style="stroke:#000000;" x="252.895752" xlink:href="#m6974774363" y="104.579613"/>
     <use style="stroke:#000000;" x="291.598504" xlink:href="#m6974774363" y="91.617503"/>
     <use style="stroke:#000000;" x="263.167252" xlink:href="#m6974774363" y="86.518307"/>
     <use style="stroke:#000000;" x="295.640111" xlink:href="#m6974774363" y="128.79945"/>
     <use style="stroke:#000000;" x="236.407653" xlink:href="#m6974774363" y="70.180723"/>
     <use style="stroke:#000000;" x="213.351914" xlink:href="#m6974774363" y="95.594443"/>
     <use style="stroke:#000000;" x="185.405313" xlink:href="#m6974774363" y="101.259115"/>
     <use style="stroke:#000000;" x="277.900052" xlink:href="#m6974774363" y="91.551051"/>
     <use style="stroke:#000000;" x="225.097578" xlink:href="#m6974774363" y="112.654589"/>
     <use style="stroke:#000000;" x="257.049715" xlink:href="#m6974774363" y="153.367797"/>
     <use style="stroke:#000000;" x="281.288747" xlink:href="#m6974774363" y="89.982041"/>
     <use style="stroke:#000000;" x="241.87029" xlink:href="#m6974774363" y="58.166423"/>
     <use style="stroke:#000000;" x="236.260457" xlink:href="#m6974774363" y="118.127965"/>
     <use style="stroke:#000000;" x="202.704157" xlink:href="#m6974774363" y="125.559343"/>
     <use style="stroke:#000000;" x="189.544472" xlink:href="#m6974774363" y="90.369721"/>
     <use style="stroke:#000000;" x="174.502535" xlink:href="#m6974774363" y="76.661929"/>
     <use style="stroke:#000000;" x="298.049612" xlink:href="#m6974774363" y="85.372913"/>
     <use style="stroke:#000000;" x="195.075788" xlink:href="#m6974774363" y="115.261196"/>
     <use style="stroke:#000000;" x="170.52767" xlink:href="#m6974774363" y="91.551051"/>
     <use style="stroke:#000000;" x="294.672943" xlink:href="#m6974774363" y="88.087317"/>
     <use style="stroke:#000000;" x="288.22568" xlink:href="#m6974774363" y="131.374591"/>
     <use style="stroke:#000000;" x="236.085881" xlink:href="#m6974774363" y="109.988251"/>
     <use style="stroke:#000000;" x="197.070782" xlink:href="#m6974774363" y="110.892856"/>
     <use style="stroke:#000000;" x="215.038915" xlink:href="#m6974774363" y="120.511747"/>
     <use style="stroke:#000000;" x="233.886822" xlink:href="#m6974774363" y="103.010603"/>
     <use style="stroke:#000000;" x="306.450277" xlink:href="#m6974774363" y="89.982041"/>
     <use style="stroke:#000000;" x="218.428834" xlink:href="#m6974774363" y="114.750352"/>
     <use style="stroke:#000000;" x="260.222476" xlink:href="#m6974774363" y="105.489341"/>
     <use style="stroke:#000000;" x="301.139386" xlink:href="#m6974774363" y="89.501614"/>
     <use style="stroke:#000000;" x="196.538635" xlink:href="#m6974774363" y="88.087317"/>
     <use style="stroke:#000000;" x="184.500338" xlink:href="#m6974774363" y="128.79945"/>
     <use style="stroke:#000000;" x="234.134819" xlink:href="#m6974774363" y="93.267603"/>
     <use style="stroke:#000000;" x="178.429931" xlink:href="#m6974774363" y="118.724931"/>
     <use style="stroke:#000000;" x="236.101261" xlink:href="#m6974774363" y="123.509906"/>
     <use style="stroke:#000000;" x="310.698215" xlink:href="#m6974774363" y="90.80172"/>
     <use style="stroke:#000000;" x="257.032401" xlink:href="#m6974774363" y="106.512213"/>
     <use style="stroke:#000000;" x="158.855363" xlink:href="#m6974774363" y="94.744304"/>
     <use style="stroke:#000000;" x="219.854565" xlink:href="#m6974774363" y="145.137034"/>
     <use style="stroke:#000000;" x="221.179106" xlink:href="#m6974774363" y="90.318984"/>
     <use style="stroke:#000000;" x="181.794292" xlink:href="#m6974774363" y="107.849243"/>
     <use style="stroke:#000000;" x="215.487309" xlink:href="#m6974774363" y="140.731574"/>
     <use style="stroke:#000000;" x="185.8097" xlink:href="#m6974774363" y="92.455657"/>
     <use style="stroke:#000000;" x="239.899875" xlink:href="#m6974774363" y="168.415035"/>
     <use style="stroke:#000000;" x="272.603199" xlink:href="#m6974774363" y="96.714928"/>
     <use style="stroke:#000000;" x="250.447909" xlink:href="#m6974774363" y="88.890602"/>
     <use style="stroke:#000000;" x="246.12539" xlink:href="#m6974774363" y="55.737864"/>
     <use style="stroke:#000000;" x="293.408724" xlink:href="#m6974774363" y="112.219918"/>
     <use style="stroke:#000000;" x="197.770807" xlink:href="#m6974774363" y="87.296682"/>
     <use style="stroke:#000000;" x="213.931587" xlink:href="#m6974774363" y="89.982041"/>
     <use style="stroke:#000000;" x="199.523656" xlink:href="#m6974774363" y="76.093931"/>
     <use style="stroke:#000000;" x="185.082723" xlink:href="#m6974774363" y="119.491423"/>
     <use style="stroke:#000000;" x="260.605105" xlink:href="#m6974774363" y="67.360737"/>
     <use style="stroke:#000000;" x="191.41923" xlink:href="#m6974774363" y="89.081493"/>
     <use style="stroke:#000000;" x="199.809199" xlink:href="#m6974774363" y="107.688418"/>
     <use style="stroke:#000000;" x="263.327103" xlink:href="#m6974774363" y="116.182401"/>
     <use style="stroke:#000000;" x="216.927601" xlink:href="#m6974774363" y="106.729762"/>
     <use style="stroke:#000000;" x="215.718017" xlink:href="#m6974774363" y="71.489438"/>
     <use style="stroke:#000000;" x="214.961595" xlink:href="#m6974774363" y="111.736645"/>
     <use style="stroke:#000000;" x="211.705293" xlink:href="#m6974774363" y="89.982041"/>
     <use style="stroke:#000000;" x="193.396169" xlink:href="#m6974774363" y="112.811723"/>
     <use style="stroke:#000000;" x="184.870013" xlink:href="#m6974774363" y="107.218829"/>
     <use style="stroke:#000000;" x="232.643467" xlink:href="#m6974774363" y="84.068834"/>
     <use style="stroke:#000000;" x="213.551509" xlink:href="#m6974774363" y="110.892856"/>
     <use style="stroke:#000000;" x="243.034981" xlink:href="#m6974774363" y="104.777212"/>
     <use style="stroke:#000000;" x="210.901666" xlink:href="#m6974774363" y="95.414822"/>
     <use style="stroke:#000000;" x="166.024969" xlink:href="#m6974774363" y="85.549378"/>
     <use style="stroke:#000000;" x="207.08603" xlink:href="#m6974774363" y="83.812034"/>
     <use style="stroke:#000000;" x="240.550387" xlink:href="#m6974774363" y="79.557665"/>
     <use style="stroke:#000000;" x="215.564721" xlink:href="#m6974774363" y="116.357024"/>
     <use style="stroke:#000000;" x="185.47885" xlink:href="#m6974774363" y="96.022445"/>
     <use style="stroke:#000000;" x="170.547027" xlink:href="#m6974774363" y="92.354336"/>
     <use style="stroke:#000000;" x="232.949493" xlink:href="#m6974774363" y="104.168101"/>
     <use style="stroke:#000000;" x="284.654691" xlink:href="#m6974774363" y="116.692093"/>
     <use style="stroke:#000000;" x="218.391883" xlink:href="#m6974774363" y="91.551051"/>
     <use style="stroke:#000000;" x="158.826551" xlink:href="#m6974774363" y="80.131434"/>
     <use style="stroke:#000000;" x="238.776383" xlink:href="#m6974774363" y="86.261507"/>
     <use style="stroke:#000000;" x="238.426085" xlink:href="#m6974774363" y="53.912054"/>
     <use style="stroke:#000000;" x="187.401439" xlink:href="#m6974774363" y="96.022445"/>
     <use style="stroke:#000000;" x="202.012249" xlink:href="#m6974774363" y="98.108738"/>
     <use style="stroke:#000000;" x="225.954601" xlink:href="#m6974774363" y="87.166112"/>
     <use style="stroke:#000000;" x="210.488291" xlink:href="#m6974774363" y="101.986246"/>
     <use style="stroke:#000000;" x="173.640463" xlink:href="#m6974774363" y="111.312978"/>
     <use style="stroke:#000000;" x="150.928853" xlink:href="#m6974774363" y="114.727104"/>
     <use style="stroke:#000000;" x="211.392598" xlink:href="#m6974774363" y="103.944473"/>
     <use style="stroke:#000000;" x="154.33039" xlink:href="#m6974774363" y="100.05656"/>
     <use style="stroke:#000000;" x="152.555565" xlink:href="#m6974774363" y="113.876164"/>
     <use style="stroke:#000000;" x="207.092717" xlink:href="#m6974774363" y="123.395935"/>
     <use style="stroke:#000000;" x="162.66057" xlink:href="#m6974774363" y="214.567258"/>
     <use style="stroke:#000000;" x="158.040889" xlink:href="#m6974774363" y="280.30134"/>
     <use style="stroke:#000000;" x="158.723118" xlink:href="#m6974774363" y="165.244564"/>
     <use style="stroke:#000000;" x="222.819524" xlink:href="#m6974774363" y="152.395624"/>
     <use style="stroke:#000000;" x="187.438735" xlink:href="#m6974774363" y="204.044173"/>
     <use style="stroke:#000000;" x="208.201916" xlink:href="#m6974774363" y="165.03288"/>
     <use style="stroke:#000000;" x="210.11847" xlink:href="#m6974774363" y="208.821678"/>
     <use style="stroke:#000000;" x="198.022027" xlink:href="#m6974774363" y="205.809255"/>
     <use style="stroke:#000000;" x="249.935815" xlink:href="#m6974774363" y="190.148592"/>
     <use style="stroke:#000000;" x="145.533252" xlink:href="#m6974774363" y="172.481047"/>
     <use style="stroke:#000000;" x="173.060169" xlink:href="#m6974774363" y="217.339071"/>
     <use style="stroke:#000000;" x="141.074784" xlink:href="#m6974774363" y="198.669412"/>
     <use style="stroke:#000000;" x="240.875176" xlink:href="#m6974774363" y="190.73716"/>
     <use style="stroke:#000000;" x="235.698984" xlink:href="#m6974774363" y="187.359424"/>
     <use style="stroke:#000000;" x="147.355568" xlink:href="#m6974774363" y="178.041235"/>
     <use style="stroke:#000000;" x="179.916172" xlink:href="#m6974774363" y="265.858481"/>
     <use style="stroke:#000000;" x="234.398259" xlink:href="#m6974774363" y="185.011413"/>
     <use style="stroke:#000000;" x="261.566078" xlink:href="#m6974774363" y="194.933567"/>
     <use style="stroke:#000000;" x="208.391249" xlink:href="#m6974774363" y="154.243842"/>
     <use style="stroke:#000000;" x="162.929069" xlink:href="#m6974774363" y="254.342929"/>
     <use style="stroke:#000000;" x="178.062016" xlink:href="#m6974774363" y="224.597662"/>
     <use style="stroke:#000000;" x="141.428197" xlink:href="#m6974774363" y="202.45642"/>
     <use style="stroke:#000000;" x="142.407165" xlink:href="#m6974774363" y="166.946566"/>
     <use style="stroke:#000000;" x="213.491774" xlink:href="#m6974774363" y="201.861036"/>
     <use style="stroke:#000000;" x="153.685563" xlink:href="#m6974774363" y="183.8225"/>
     <use style="stroke:#000000;" x="134.859051" xlink:href="#m6974774363" y="155.132801"/>
     <use style="stroke:#000000;" x="284.196187" xlink:href="#m6974774363" y="171.847085"/>
     <use style="stroke:#000000;" x="194.665087" xlink:href="#m6974774363" y="234.741095"/>
     <use style="stroke:#000000;" x="146.546258" xlink:href="#m6974774363" y="244.159341"/>
     <use style="stroke:#000000;" x="163.979877" xlink:href="#m6974774363" y="223.538343"/>
     <use style="stroke:#000000;" x="137.107745" xlink:href="#m6974774363" y="224.568617"/>
     <use style="stroke:#000000;" x="149.334065" xlink:href="#m6974774363" y="246.707627"/>
     <use style="stroke:#000000;" x="148.717445" xlink:href="#m6974774363" y="227.28302"/>
     <use style="stroke:#000000;" x="174.230604" xlink:href="#m6974774363" y="203.625584"/>
     <use style="stroke:#000000;" x="158.040672" xlink:href="#m6974774363" y="180.490708"/>
     <use style="stroke:#000000;" x="200.893287" xlink:href="#m6974774363" y="210.754225"/>
     <use style="stroke:#000000;" x="212.249474" xlink:href="#m6974774363" y="216.858644"/>
     <use style="stroke:#000000;" x="202.863169" xlink:href="#m6974774363" y="190.658284"/>
     <use style="stroke:#000000;" x="166.946592" xlink:href="#m6974774363" y="211.208565"/>
     <use style="stroke:#000000;" x="155.659637" xlink:href="#m6974774363" y="170.267244"/>
     <use style="stroke:#000000;" x="179.229689" xlink:href="#m6974774363" y="257.570778"/>
     <use style="stroke:#000000;" x="204.871198" xlink:href="#m6974774363" y="208.859929"/>
     <use style="stroke:#000000;" x="169.137657" xlink:href="#m6974774363" y="177.551434"/>
     <use style="stroke:#000000;" x="161.493884" xlink:href="#m6974774363" y="182.82621"/>
     <use style="stroke:#000000;" x="169.616915" xlink:href="#m6974774363" y="221.043209"/>
     <use style="stroke:#000000;" x="136.523439" xlink:href="#m6974774363" y="212.840161"/>
     <use style="stroke:#000000;" x="190.083903" xlink:href="#m6974774363" y="229.832006"/>
     <use style="stroke:#000000;" x="137.953007" xlink:href="#m6974774363" y="230.390792"/>
     <use style="stroke:#000000;" x="159.885964" xlink:href="#m6974774363" y="205.448579"/>
     <use style="stroke:#000000;" x="167.26595" xlink:href="#m6974774363" y="173.474066"/>
     <use style="stroke:#000000;" x="200.597598" xlink:href="#m6974774363" y="210.646013"/>
     <use style="stroke:#000000;" x="158.301284" xlink:href="#m6974774363" y="192.182308"/>
     <use style="stroke:#000000;" x="187.25179" xlink:href="#m6974774363" y="248.26275"/>
     <use style="stroke:#000000;" x="200.84009" xlink:href="#m6974774363" y="214.508229"/>
     <use style="stroke:#000000;" x="175.042112" xlink:href="#m6974774363" y="188.48041"/>
     <use style="stroke:#000000;" x="195.233834" xlink:href="#m6974774363" y="251.726485"/>
     <use style="stroke:#000000;" x="175.141478" xlink:href="#m6974774363" y="240.935245"/>
     <use style="stroke:#000000;" x="194.344106" xlink:href="#m6974774363" y="190.84252"/>
     <use style="stroke:#000000;" x="180.150319" xlink:href="#m6974774363" y="213.618537"/>
     <use style="stroke:#000000;" x="144.840722" xlink:href="#m6974774363" y="176.094012"/>
     <use style="stroke:#000000;" x="173.538694" xlink:href="#m6974774363" y="187.972926"/>
     <use style="stroke:#000000;" x="142.480462" xlink:href="#m6974774363" y="260.423205"/>
     <use style="stroke:#000000;" x="170.581217" xlink:href="#m6974774363" y="184.25417"/>
     <use style="stroke:#000000;" x="105.903693" xlink:href="#m6974774363" y="211.121511"/>
     <use style="stroke:#000000;" x="134.577343" xlink:href="#m6974774363" y="227.906683"/>
     <use style="stroke:#000000;" x="133.697513" xlink:href="#m6974774363" y="223.584424"/>
     <use style="stroke:#000000;" x="139.199809" xlink:href="#m6974774363" y="208.877678"/>
     <use style="stroke:#000000;" x="145.550662" xlink:href="#m6974774363" y="220.502822"/>
     <use style="stroke:#000000;" x="141.195045" xlink:href="#m6974774363" y="257.797434"/>
     <use style="stroke:#000000;" x="134.4696" xlink:href="#m6974774363" y="203.299167"/>
     <use style="stroke:#000000;" x="142.165336" xlink:href="#m6974774363" y="268.515409"/>
     <use style="stroke:#000000;" x="133.153659" xlink:href="#m6974774363" y="228.827888"/>
     <use style="stroke:#000000;" x="209.55022" xlink:href="#m6974774363" y="238.171011"/>
     <use style="stroke:#000000;" x="168.644039" xlink:href="#m6974774363" y="235.553667"/>
     <use style="stroke:#000000;" x="166.157431" xlink:href="#m6974774363" y="254.01501"/>
    </g>
   </g>
   <g id="matplotlib.axis_1">
    <g id="xtick_1">
     <g id="line2d_1">
      <defs>
       <path d="M 0 0 
L 0 6 
" id="m5ae089f9cc" style="stroke:#000000;stroke-width:1.25;"/>
      </defs>
      <g>
       <use style="stroke:#000000;stroke-width:1.25;" x="110.168352" xlink:href="#m5ae089f9cc" y="294.06"/>
      </g>
     </g>
     <g id="text_1">
      <!-- −0.2 -->
      <defs>
       <path d="M 10.59375 35.5 
L 73.1875 35.5 
L 73.1875 27.203125 
L 10.59375 27.203125 
z
" id="DejaVuSans-8722"/>
       <path d="M 31.78125 66.40625 
Q 24.171875 66.40625 20.328125 58.90625 
Q 16.5 51.421875 16.5 36.375 
Q 16.5 21.390625 20.328125 13.890625 
Q 24.171875 6.390625 31.78125 6.390625 
Q 39.453125 6.390625 43.28125 13.890625 
Q 47.125 21.390625 47.125 36.375 
Q 47.125 51.421875 43.28125 58.90625 
Q 39.453125 66.40625 31.78125 66.40625 
z
M 31.78125 74.21875 
Q 44.046875 74.21875 50.515625 64.515625 
Q 56.984375 54.828125 56.984375 36.375 
Q 56.984375 17.96875 50.515625 8.265625 
Q 44.046875 -1.421875 31.78125 -1.421875 
Q 19.53125 -1.421875 13.0625 8.265625 
Q 6.59375 17.96875 6.59375 36.375 
Q 6.59375 54.828125 13.0625 64.515625 
Q 19.53125 74.21875 31.78125 74.21875 
z
" id="DejaVuSans-48"/>
       <path d="M 10.6875 12.40625 
L 21 12.40625 
L 21 0 
L 10.6875 0 
z
" id="DejaVuSans-46"/>
       <path d="M 19.1875 8.296875 
L 53.609375 8.296875 
L 53.609375 0 
L 7.328125 0 
L 7.328125 8.296875 
Q 12.9375 14.109375 22.625 23.890625 
Q 32.328125 33.6875 34.8125 36.53125 
Q 39.546875 41.84375 41.421875 45.53125 
Q 43.3125 49.21875 43.3125 52.78125 
Q 43.3125 58.59375 39.234375 62.25 
Q 35.15625 65.921875 28.609375 65.921875 
Q 23.96875 65.921875 18.8125 64.3125 
Q 13.671875 62.703125 7.8125 59.421875 
L 7.8125 69.390625 
Q 13.765625 71.78125 18.9375 73 
Q 24.125 74.21875 28.421875 74.21875 
Q 39.75 74.21875 46.484375 68.546875 
Q 53.21875 62.890625 53.21875 53.421875 
Q 53.21875 48.921875 51.53125 44.890625 
Q 49.859375 40.875 45.40625 35.40625 
Q 44.1875 33.984375 37.640625 27.21875 
Q 31.109375 20.453125 19.1875 8.296875 
z
" id="DejaVuSans-50"/>
      </defs>
      <g transform="translate(90.135032 316.097422)scale(0.165 -0.165)">
       <use xlink:href="#DejaVuSans-8722"/>
       <use x="83.789062" xlink:href="#DejaVuSans-48"/>
       <use x="147.412109" xlink:href="#DejaVuSans-46"/>
       <use x="179.199219" xlink:href="#DejaVuSans-50"/>
      </g>
     </g>
    </g>
    <g id="xtick_2">
     <g id="line2d_2">
      <g>
       <use style="stroke:#000000;stroke-width:1.25;" x="182.783113" xlink:href="#m5ae089f9cc" y="294.06"/>
      </g>
     </g>
     <g id="text_2">
      <!-- 0.0 -->
      <g transform="translate(169.663035 316.097422)scale(0.165 -0.165)">
       <use xlink:href="#DejaVuSans-48"/>
       <use x="63.623047" xlink:href="#DejaVuSans-46"/>
       <use x="95.410156" xlink:href="#DejaVuSans-48"/>
      </g>
     </g>
    </g>
    <g id="xtick_3">
     <g id="line2d_3">
      <g>
       <use style="stroke:#000000;stroke-width:1.25;" x="255.397874" xlink:href="#m5ae089f9cc" y="294.06"/>
      </g>
     </g>
     <g id="text_3">
      <!-- 0.2 -->
      <g transform="translate(242.277796 316.097422)scale(0.165 -0.165)">
       <use xlink:href="#DejaVuSans-48"/>
       <use x="63.623047" xlink:href="#DejaVuSans-46"/>
       <use x="95.410156" xlink:href="#DejaVuSans-50"/>
      </g>
     </g>
    </g>
    <g id="xtick_4">
     <g id="line2d_4">
      <g>
       <use style="stroke:#000000;stroke-width:1.25;" x="328.012635" xlink:href="#m5ae089f9cc" y="294.06"/>
      </g>
     </g>
     <g id="text_4">
      <!-- 0.4 -->
      <defs>
       <path d="M 37.796875 64.3125 
L 12.890625 25.390625 
L 37.796875 25.390625 
z
M 35.203125 72.90625 
L 47.609375 72.90625 
L 47.609375 25.390625 
L 58.015625 25.390625 
L 58.015625 17.1875 
L 47.609375 17.1875 
L 47.609375 0 
L 37.796875 0 
L 37.796875 17.1875 
L 4.890625 17.1875 
L 4.890625 26.703125 
z
" id="DejaVuSans-52"/>
      </defs>
      <g transform="translate(314.892557 316.097422)scale(0.165 -0.165)">
       <use xlink:href="#DejaVuSans-48"/>
       <use x="63.623047" xlink:href="#DejaVuSans-46"/>
       <use x="95.410156" xlink:href="#DejaVuSans-52"/>
      </g>
     </g>
    </g>
    <g id="text_5">
     <!-- log10 MIAA ESC / DE -->
     <defs>
      <path d="M 9.421875 75.984375 
L 18.40625 75.984375 
L 18.40625 0 
L 9.421875 0 
z
" id="DejaVuSans-108"/>
      <path d="M 30.609375 48.390625 
Q 23.390625 48.390625 19.1875 42.75 
Q 14.984375 37.109375 14.984375 27.296875 
Q 14.984375 17.484375 19.15625 11.84375 
Q 23.34375 6.203125 30.609375 6.203125 
Q 37.796875 6.203125 41.984375 11.859375 
Q 46.1875 17.53125 46.1875 27.296875 
Q 46.1875 37.015625 41.984375 42.703125 
Q 37.796875 48.390625 30.609375 48.390625 
z
M 30.609375 56 
Q 42.328125 56 49.015625 48.375 
Q 55.71875 40.765625 55.71875 27.296875 
Q 55.71875 13.875 49.015625 6.21875 
Q 42.328125 -1.421875 30.609375 -1.421875 
Q 18.84375 -1.421875 12.171875 6.21875 
Q 5.515625 13.875 5.515625 27.296875 
Q 5.515625 40.765625 12.171875 48.375 
Q 18.84375 56 30.609375 56 
z
" id="DejaVuSans-111"/>
      <path d="M 45.40625 27.984375 
Q 45.40625 37.75 41.375 43.109375 
Q 37.359375 48.484375 30.078125 48.484375 
Q 22.859375 48.484375 18.828125 43.109375 
Q 14.796875 37.75 14.796875 27.984375 
Q 14.796875 18.265625 18.828125 12.890625 
Q 22.859375 7.515625 30.078125 7.515625 
Q 37.359375 7.515625 41.375 12.890625 
Q 45.40625 18.265625 45.40625 27.984375 
z
M 54.390625 6.78125 
Q 54.390625 -7.171875 48.1875 -13.984375 
Q 42 -20.796875 29.203125 -20.796875 
Q 24.46875 -20.796875 20.265625 -20.09375 
Q 16.0625 -19.390625 12.109375 -17.921875 
L 12.109375 -9.1875 
Q 16.0625 -11.328125 19.921875 -12.34375 
Q 23.78125 -13.375 27.78125 -13.375 
Q 36.625 -13.375 41.015625 -8.765625 
Q 45.40625 -4.15625 45.40625 5.171875 
L 45.40625 9.625 
Q 42.625 4.78125 38.28125 2.390625 
Q 33.9375 0 27.875 0 
Q 17.828125 0 11.671875 7.65625 
Q 5.515625 15.328125 5.515625 27.984375 
Q 5.515625 40.671875 11.671875 48.328125 
Q 17.828125 56 27.875 56 
Q 33.9375 56 38.28125 53.609375 
Q 42.625 51.21875 45.40625 46.390625 
L 45.40625 54.6875 
L 54.390625 54.6875 
z
" id="DejaVuSans-103"/>
      <path d="M 12.40625 8.296875 
L 28.515625 8.296875 
L 28.515625 63.921875 
L 10.984375 60.40625 
L 10.984375 69.390625 
L 28.421875 72.90625 
L 38.28125 72.90625 
L 38.28125 8.296875 
L 54.390625 8.296875 
L 54.390625 0 
L 12.40625 0 
z
" id="DejaVuSans-49"/>
      <path id="DejaVuSans-32"/>
      <path d="M 9.8125 72.90625 
L 24.515625 72.90625 
L 43.109375 23.296875 
L 61.8125 72.90625 
L 76.515625 72.90625 
L 76.515625 0 
L 66.890625 0 
L 66.890625 64.015625 
L 48.09375 14.015625 
L 38.1875 14.015625 
L 19.390625 64.015625 
L 19.390625 0 
L 9.8125 0 
z
" id="DejaVuSans-77"/>
      <path d="M 9.8125 72.90625 
L 19.671875 72.90625 
L 19.671875 0 
L 9.8125 0 
z
" id="DejaVuSans-73"/>
      <path d="M 34.1875 63.1875 
L 20.796875 26.90625 
L 47.609375 26.90625 
z
M 28.609375 72.90625 
L 39.796875 72.90625 
L 67.578125 0 
L 57.328125 0 
L 50.6875 18.703125 
L 17.828125 18.703125 
L 11.1875 0 
L 0.78125 0 
z
" id="DejaVuSans-65"/>
      <path d="M 9.8125 72.90625 
L 55.90625 72.90625 
L 55.90625 64.59375 
L 19.671875 64.59375 
L 19.671875 43.015625 
L 54.390625 43.015625 
L 54.390625 34.71875 
L 19.671875 34.71875 
L 19.671875 8.296875 
L 56.78125 8.296875 
L 56.78125 0 
L 9.8125 0 
z
" id="DejaVuSans-69"/>
      <path d="M 53.515625 70.515625 
L 53.515625 60.890625 
Q 47.90625 63.578125 42.921875 64.890625 
Q 37.9375 66.21875 33.296875 66.21875 
Q 25.25 66.21875 20.875 63.09375 
Q 16.5 59.96875 16.5 54.203125 
Q 16.5 49.359375 19.40625 46.890625 
Q 22.3125 44.4375 30.421875 42.921875 
L 36.375 41.703125 
Q 47.40625 39.59375 52.65625 34.296875 
Q 57.90625 29 57.90625 20.125 
Q 57.90625 9.515625 50.796875 4.046875 
Q 43.703125 -1.421875 29.984375 -1.421875 
Q 24.8125 -1.421875 18.96875 -0.25 
Q 13.140625 0.921875 6.890625 3.21875 
L 6.890625 13.375 
Q 12.890625 10.015625 18.65625 8.296875 
Q 24.421875 6.59375 29.984375 6.59375 
Q 38.421875 6.59375 43.015625 9.90625 
Q 47.609375 13.234375 47.609375 19.390625 
Q 47.609375 24.75 44.3125 27.78125 
Q 41.015625 30.8125 33.5 32.328125 
L 27.484375 33.5 
Q 16.453125 35.6875 11.515625 40.375 
Q 6.59375 45.0625 6.59375 53.421875 
Q 6.59375 63.09375 13.40625 68.65625 
Q 20.21875 74.21875 32.171875 74.21875 
Q 37.3125 74.21875 42.625 73.28125 
Q 47.953125 72.359375 53.515625 70.515625 
z
" id="DejaVuSans-83"/>
      <path d="M 64.40625 67.28125 
L 64.40625 56.890625 
Q 59.421875 61.53125 53.78125 63.8125 
Q 48.140625 66.109375 41.796875 66.109375 
Q 29.296875 66.109375 22.65625 58.46875 
Q 16.015625 50.828125 16.015625 36.375 
Q 16.015625 21.96875 22.65625 14.328125 
Q 29.296875 6.6875 41.796875 6.6875 
Q 48.140625 6.6875 53.78125 8.984375 
Q 59.421875 11.28125 64.40625 15.921875 
L 64.40625 5.609375 
Q 59.234375 2.09375 53.4375 0.328125 
Q 47.65625 -1.421875 41.21875 -1.421875 
Q 24.65625 -1.421875 15.125 8.703125 
Q 5.609375 18.84375 5.609375 36.375 
Q 5.609375 53.953125 15.125 64.078125 
Q 24.65625 74.21875 41.21875 74.21875 
Q 47.75 74.21875 53.53125 72.484375 
Q 59.328125 70.75 64.40625 67.28125 
z
" id="DejaVuSans-67"/>
      <path d="M 25.390625 72.90625 
L 33.6875 72.90625 
L 8.296875 -9.28125 
L 0 -9.28125 
z
" id="DejaVuSans-47"/>
      <path d="M 19.671875 64.796875 
L 19.671875 8.109375 
L 31.59375 8.109375 
Q 46.6875 8.109375 53.6875 14.9375 
Q 60.6875 21.78125 60.6875 36.53125 
Q 60.6875 51.171875 53.6875 57.984375 
Q 46.6875 64.796875 31.59375 64.796875 
z
M 9.8125 72.90625 
L 30.078125 72.90625 
Q 51.265625 72.90625 61.171875 64.09375 
Q 71.09375 55.28125 71.09375 36.53125 
Q 71.09375 17.671875 61.125 8.828125 
Q 51.171875 0 30.078125 0 
L 9.8125 0 
z
" id="DejaVuSans-68"/>
     </defs>
     <g transform="translate(118.661879 337.206094)scale(0.18 -0.18)">
      <use xlink:href="#DejaVuSans-108"/>
      <use x="27.783203" xlink:href="#DejaVuSans-111"/>
      <use x="88.964844" xlink:href="#DejaVuSans-103"/>
      <use x="152.441406" xlink:href="#DejaVuSans-49"/>
      <use x="216.064453" xlink:href="#DejaVuSans-48"/>
      <use x="279.6875" xlink:href="#DejaVuSans-32"/>
      <use x="311.474609" xlink:href="#DejaVuSans-77"/>
      <use x="397.753906" xlink:href="#DejaVuSans-73"/>
      <use x="427.246094" xlink:href="#DejaVuSans-65"/>
      <use x="495.685547" xlink:href="#DejaVuSans-65"/>
      <use x="564.09375" xlink:href="#DejaVuSans-32"/>
      <use x="595.880859" xlink:href="#DejaVuSans-69"/>
      <use x="659.064453" xlink:href="#DejaVuSans-83"/>
      <use x="722.541016" xlink:href="#DejaVuSans-67"/>
      <use x="792.365234" xlink:href="#DejaVuSans-32"/>
      <use x="824.152344" xlink:href="#DejaVuSans-47"/>
      <use x="857.84375" xlink:href="#DejaVuSans-32"/>
      <use x="889.630859" xlink:href="#DejaVuSans-68"/>
      <use x="966.632812" xlink:href="#DejaVuSans-69"/>
     </g>
    </g>
   </g>
   <g id="matplotlib.axis_2">
    <g id="ytick_1">
     <g id="line2d_5">
      <defs>
       <path d="M 0 0 
L -6 0 
" id="m3de9167447" style="stroke:#000000;stroke-width:1.25;"/>
      </defs>
      <g>
       <use style="stroke:#000000;stroke-width:1.25;" x="91.065" xlink:href="#m3de9167447" y="279.197905"/>
      </g>
     </g>
     <g id="text_6">
      <!-- −1.0 -->
      <g transform="translate(41.498359 285.466616)scale(0.165 -0.165)">
       <use xlink:href="#DejaVuSans-8722"/>
       <use x="83.789062" xlink:href="#DejaVuSans-49"/>
       <use x="147.412109" xlink:href="#DejaVuSans-46"/>
       <use x="179.199219" xlink:href="#DejaVuSans-48"/>
      </g>
     </g>
    </g>
    <g id="ytick_2">
     <g id="line2d_6">
      <g>
       <use style="stroke:#000000;stroke-width:1.25;" x="91.065" xlink:href="#m3de9167447" y="221.398141"/>
      </g>
     </g>
     <g id="text_7">
      <!-- −0.5 -->
      <defs>
       <path d="M 10.796875 72.90625 
L 49.515625 72.90625 
L 49.515625 64.59375 
L 19.828125 64.59375 
L 19.828125 46.734375 
Q 21.96875 47.46875 24.109375 47.828125 
Q 26.265625 48.1875 28.421875 48.1875 
Q 40.625 48.1875 47.75 41.5 
Q 54.890625 34.8125 54.890625 23.390625 
Q 54.890625 11.625 47.5625 5.09375 
Q 40.234375 -1.421875 26.90625 -1.421875 
Q 22.3125 -1.421875 17.546875 -0.640625 
Q 12.796875 0.140625 7.71875 1.703125 
L 7.71875 11.625 
Q 12.109375 9.234375 16.796875 8.0625 
Q 21.484375 6.890625 26.703125 6.890625 
Q 35.15625 6.890625 40.078125 11.328125 
Q 45.015625 15.765625 45.015625 23.390625 
Q 45.015625 31 40.078125 35.4375 
Q 35.15625 39.890625 26.703125 39.890625 
Q 22.75 39.890625 18.8125 39.015625 
Q 14.890625 38.140625 10.796875 36.28125 
z
" id="DejaVuSans-53"/>
      </defs>
      <g transform="translate(41.498359 227.666852)scale(0.165 -0.165)">
       <use xlink:href="#DejaVuSans-8722"/>
       <use x="83.789062" xlink:href="#DejaVuSans-48"/>
       <use x="147.412109" xlink:href="#DejaVuSans-46"/>
       <use x="179.199219" xlink:href="#DejaVuSans-53"/>
      </g>
     </g>
    </g>
    <g id="ytick_3">
     <g id="line2d_7">
      <g>
       <use style="stroke:#000000;stroke-width:1.25;" x="91.065" xlink:href="#m3de9167447" y="163.598376"/>
      </g>
     </g>
     <g id="text_8">
      <!-- 0.0 -->
      <g transform="translate(55.324844 169.867087)scale(0.165 -0.165)">
       <use xlink:href="#DejaVuSans-48"/>
       <use x="63.623047" xlink:href="#DejaVuSans-46"/>
       <use x="95.410156" xlink:href="#DejaVuSans-48"/>
      </g>
     </g>
    </g>
    <g id="ytick_4">
     <g id="line2d_8">
      <g>
       <use style="stroke:#000000;stroke-width:1.25;" x="91.065" xlink:href="#m3de9167447" y="105.798611"/>
      </g>
     </g>
     <g id="text_9">
      <!-- 0.5 -->
      <g transform="translate(55.324844 112.067322)scale(0.165 -0.165)">
       <use xlink:href="#DejaVuSans-48"/>
       <use x="63.623047" xlink:href="#DejaVuSans-46"/>
       <use x="95.410156" xlink:href="#DejaVuSans-53"/>
      </g>
     </g>
    </g>
    <g id="ytick_5">
     <g id="line2d_9">
      <g>
       <use style="stroke:#000000;stroke-width:1.25;" x="91.065" xlink:href="#m3de9167447" y="47.998846"/>
      </g>
     </g>
     <g id="text_10">
      <!-- 1.0 -->
      <g transform="translate(55.324844 54.267557)scale(0.165 -0.165)">
       <use xlink:href="#DejaVuSans-49"/>
       <use x="63.623047" xlink:href="#DejaVuSans-46"/>
       <use x="95.410156" xlink:href="#DejaVuSans-48"/>
      </g>
     </g>
    </g>
    <g id="text_11">
     <!-- log10 DNAse-seq ESC / DE -->
     <defs>
      <path d="M 9.8125 72.90625 
L 23.09375 72.90625 
L 55.421875 11.921875 
L 55.421875 72.90625 
L 64.984375 72.90625 
L 64.984375 0 
L 51.703125 0 
L 19.390625 60.984375 
L 19.390625 0 
L 9.8125 0 
z
" id="DejaVuSans-78"/>
      <path d="M 44.28125 53.078125 
L 44.28125 44.578125 
Q 40.484375 46.53125 36.375 47.5 
Q 32.28125 48.484375 27.875 48.484375 
Q 21.1875 48.484375 17.84375 46.4375 
Q 14.5 44.390625 14.5 40.28125 
Q 14.5 37.15625 16.890625 35.375 
Q 19.28125 33.59375 26.515625 31.984375 
L 29.59375 31.296875 
Q 39.15625 29.25 43.1875 25.515625 
Q 47.21875 21.78125 47.21875 15.09375 
Q 47.21875 7.46875 41.1875 3.015625 
Q 35.15625 -1.421875 24.609375 -1.421875 
Q 20.21875 -1.421875 15.453125 -0.5625 
Q 10.6875 0.296875 5.421875 2 
L 5.421875 11.28125 
Q 10.40625 8.6875 15.234375 7.390625 
Q 20.0625 6.109375 24.8125 6.109375 
Q 31.15625 6.109375 34.5625 8.28125 
Q 37.984375 10.453125 37.984375 14.40625 
Q 37.984375 18.0625 35.515625 20.015625 
Q 33.0625 21.96875 24.703125 23.78125 
L 21.578125 24.515625 
Q 13.234375 26.265625 9.515625 29.90625 
Q 5.8125 33.546875 5.8125 39.890625 
Q 5.8125 47.609375 11.28125 51.796875 
Q 16.75 56 26.8125 56 
Q 31.78125 56 36.171875 55.265625 
Q 40.578125 54.546875 44.28125 53.078125 
z
" id="DejaVuSans-115"/>
      <path d="M 56.203125 29.59375 
L 56.203125 25.203125 
L 14.890625 25.203125 
Q 15.484375 15.921875 20.484375 11.0625 
Q 25.484375 6.203125 34.421875 6.203125 
Q 39.59375 6.203125 44.453125 7.46875 
Q 49.3125 8.734375 54.109375 11.28125 
L 54.109375 2.78125 
Q 49.265625 0.734375 44.1875 -0.34375 
Q 39.109375 -1.421875 33.890625 -1.421875 
Q 20.796875 -1.421875 13.15625 6.1875 
Q 5.515625 13.8125 5.515625 26.8125 
Q 5.515625 40.234375 12.765625 48.109375 
Q 20.015625 56 32.328125 56 
Q 43.359375 56 49.78125 48.890625 
Q 56.203125 41.796875 56.203125 29.59375 
z
M 47.21875 32.234375 
Q 47.125 39.59375 43.09375 43.984375 
Q 39.0625 48.390625 32.421875 48.390625 
Q 24.90625 48.390625 20.390625 44.140625 
Q 15.875 39.890625 15.1875 32.171875 
z
" id="DejaVuSans-101"/>
      <path d="M 4.890625 31.390625 
L 31.203125 31.390625 
L 31.203125 23.390625 
L 4.890625 23.390625 
z
" id="DejaVuSans-45"/>
      <path d="M 14.796875 27.296875 
Q 14.796875 17.390625 18.875 11.75 
Q 22.953125 6.109375 30.078125 6.109375 
Q 37.203125 6.109375 41.296875 11.75 
Q 45.40625 17.390625 45.40625 27.296875 
Q 45.40625 37.203125 41.296875 42.84375 
Q 37.203125 48.484375 30.078125 48.484375 
Q 22.953125 48.484375 18.875 42.84375 
Q 14.796875 37.203125 14.796875 27.296875 
z
M 45.40625 8.203125 
Q 42.578125 3.328125 38.25 0.953125 
Q 33.9375 -1.421875 27.875 -1.421875 
Q 17.96875 -1.421875 11.734375 6.484375 
Q 5.515625 14.40625 5.515625 27.296875 
Q 5.515625 40.1875 11.734375 48.09375 
Q 17.96875 56 27.875 56 
Q 33.9375 56 38.25 53.625 
Q 42.578125 51.265625 45.40625 46.390625 
L 45.40625 54.6875 
L 54.390625 54.6875 
L 54.390625 -20.796875 
L 45.40625 -20.796875 
z
" id="DejaVuSans-113"/>
     </defs>
     <g transform="translate(33.754922 275.931094)rotate(-90)scale(0.18 -0.18)">
      <use xlink:href="#DejaVuSans-108"/>
      <use x="27.783203" xlink:href="#DejaVuSans-111"/>
      <use x="88.964844" xlink:href="#DejaVuSans-103"/>
      <use x="152.441406" xlink:href="#DejaVuSans-49"/>
      <use x="216.064453" xlink:href="#DejaVuSans-48"/>
      <use x="279.6875" xlink:href="#DejaVuSans-32"/>
      <use x="311.474609" xlink:href="#DejaVuSans-68"/>
      <use x="388.476562" xlink:href="#DejaVuSans-78"/>
      <use x="463.28125" xlink:href="#DejaVuSans-65"/>
      <use x="531.689453" xlink:href="#DejaVuSans-115"/>
      <use x="583.789062" xlink:href="#DejaVuSans-101"/>
      <use x="645.3125" xlink:href="#DejaVuSans-45"/>
      <use x="681.396484" xlink:href="#DejaVuSans-115"/>
      <use x="733.496094" xlink:href="#DejaVuSans-101"/>
      <use x="795.019531" xlink:href="#DejaVuSans-113"/>
      <use x="858.496094" xlink:href="#DejaVuSans-32"/>
      <use x="890.283203" xlink:href="#DejaVuSans-69"/>
      <use x="953.466797" xlink:href="#DejaVuSans-83"/>
      <use x="1016.943359" xlink:href="#DejaVuSans-67"/>
      <use x="1086.767578" xlink:href="#DejaVuSans-32"/>
      <use x="1118.554688" xlink:href="#DejaVuSans-47"/>
      <use x="1152.246094" xlink:href="#DejaVuSans-32"/>
      <use x="1184.033203" xlink:href="#DejaVuSans-68"/>
      <use x="1261.035156" xlink:href="#DejaVuSans-69"/>
     </g>
    </g>
   </g>
   <g id="patch_3">
    <path d="M 91.065 294.06 
L 91.065 19.44 
" style="fill:none;stroke:#000000;stroke-linecap:square;stroke-linejoin:miter;stroke-width:1.25;"/>
   </g>
   <g id="patch_4">
    <path d="M 331.62782 294.06 
L 331.62782 19.44 
" style="fill:none;stroke:#000000;stroke-linecap:square;stroke-linejoin:miter;stroke-width:1.25;"/>
   </g>
   <g id="patch_5">
    <path d="M 91.065 294.06 
L 331.62782 294.06 
" style="fill:none;stroke:#000000;stroke-linecap:square;stroke-linejoin:miter;stroke-width:1.25;"/>
   </g>
   <g id="patch_6">
    <path d="M 91.065 19.44 
L 331.62782 19.44 
" style="fill:none;stroke:#000000;stroke-linecap:square;stroke-linejoin:miter;stroke-width:1.25;"/>
   </g>
   <g id="text_12">
    <!-- R=0.53 -->
    <defs>
     <path d="M 44.390625 34.1875 
Q 47.5625 33.109375 50.5625 29.59375 
Q 53.5625 26.078125 56.59375 19.921875 
L 66.609375 0 
L 56 0 
L 46.6875 18.703125 
Q 43.0625 26.03125 39.671875 28.421875 
Q 36.28125 30.8125 30.421875 30.8125 
L 19.671875 30.8125 
L 19.671875 0 
L 9.8125 0 
L 9.8125 72.90625 
L 32.078125 72.90625 
Q 44.578125 72.90625 50.734375 67.671875 
Q 56.890625 62.453125 56.890625 51.90625 
Q 56.890625 45.015625 53.6875 40.46875 
Q 50.484375 35.9375 44.390625 34.1875 
z
M 19.671875 64.796875 
L 19.671875 38.921875 
L 32.078125 38.921875 
Q 39.203125 38.921875 42.84375 42.21875 
Q 46.484375 45.515625 46.484375 51.90625 
Q 46.484375 58.296875 42.84375 61.546875 
Q 39.203125 64.796875 32.078125 64.796875 
z
" id="DejaVuSans-82"/>
     <path d="M 10.59375 45.40625 
L 73.1875 45.40625 
L 73.1875 37.203125 
L 10.59375 37.203125 
z
M 10.59375 25.484375 
L 73.1875 25.484375 
L 73.1875 17.1875 
L 10.59375 17.1875 
z
" id="DejaVuSans-61"/>
     <path d="M 40.578125 39.3125 
Q 47.65625 37.796875 51.625 33 
Q 55.609375 28.21875 55.609375 21.1875 
Q 55.609375 10.40625 48.1875 4.484375 
Q 40.765625 -1.421875 27.09375 -1.421875 
Q 22.515625 -1.421875 17.65625 -0.515625 
Q 12.796875 0.390625 7.625 2.203125 
L 7.625 11.71875 
Q 11.71875 9.328125 16.59375 8.109375 
Q 21.484375 6.890625 26.8125 6.890625 
Q 36.078125 6.890625 40.9375 10.546875 
Q 45.796875 14.203125 45.796875 21.1875 
Q 45.796875 27.640625 41.28125 31.265625 
Q 36.765625 34.90625 28.71875 34.90625 
L 20.21875 34.90625 
L 20.21875 43.015625 
L 29.109375 43.015625 
Q 36.375 43.015625 40.234375 45.921875 
Q 44.09375 48.828125 44.09375 54.296875 
Q 44.09375 59.90625 40.109375 62.90625 
Q 36.140625 65.921875 28.71875 65.921875 
Q 24.65625 65.921875 20.015625 65.03125 
Q 15.375 64.15625 9.8125 62.3125 
L 9.8125 71.09375 
Q 15.4375 72.65625 20.34375 73.4375 
Q 25.25 74.21875 29.59375 74.21875 
Q 40.828125 74.21875 47.359375 69.109375 
Q 53.90625 64.015625 53.90625 55.328125 
Q 53.90625 49.265625 50.4375 45.09375 
Q 46.96875 40.921875 40.578125 39.3125 
z
" id="DejaVuSans-51"/>
    </defs>
    <g transform="translate(255.397874 279.197905)scale(0.18 -0.18)">
     <use xlink:href="#DejaVuSans-82"/>
     <use x="69.482422" xlink:href="#DejaVuSans-61"/>
     <use x="153.271484" xlink:href="#DejaVuSans-48"/>
     <use x="216.894531" xlink:href="#DejaVuSans-46"/>
     <use x="248.681641" xlink:href="#DejaVuSans-53"/>
     <use x="312.304688" xlink:href="#DejaVuSans-51"/>
    </g>
   </g>
  </g>
 </g>
 <defs>
  <clipPath id="pff173424cd">
   <rect height="274.62" width="240.56282" x="91.065" y="19.44"/>
  </clipPath>
 </defs>
</svg>
