<?xml version="1.0" encoding="utf-8" standalone="no"?>
<!DOCTYPE svg PUBLIC "-//W3C//DTD SVG 1.1//EN"
  "http://www.w3.org/Graphics/SVG/1.1/DTD/svg11.dtd">
<!-- Created with matplotlib (https://matplotlib.org/) -->
<svg height="360pt" version="1.1" viewBox="0 0 360 360" width="360pt" xmlns="http://www.w3.org/2000/svg" xmlns:xlink="http://www.w3.org/1999/xlink">
 <defs>
  <style type="text/css">
*{stroke-linecap:butt;stroke-linejoin:round;}
  </style>
 </defs>
 <g id="figure_1">
  <g id="patch_1">
   <path d="M 0 360 
L 360 360 
L 360 0 
L 0 0 
z
" style="fill:#ffffff;"/>
  </g>
  <g id="axes_1">
   <g id="patch_2">
    <path d="M 45 315 
L 324 315 
L 324 43.2 
L 45 43.2 
z
" style="fill:#ffffff;"/>
   </g>
   <g id="PathCollection_1">
    <defs>
     <path d="M 0 3 
C 0.795609 3 1.55874 2.683901 2.12132 2.12132 
C 2.683901 1.55874 3 0.795609 3 0 
C 3 -0.795609 2.683901 -1.55874 2.12132 -2.12132 
C 1.55874 -2.683901 0.795609 -3 0 -3 
C -0.795609 -3 -1.55874 -2.683901 -2.12132 -2.12132 
C -2.683901 -1.55874 -3 -0.795609 -3 0 
C -3 0.795609 -2.683901 1.55874 -2.12132 2.12132 
C -1.55874 2.683901 -0.795609 3 0 3 
z
" id="mc9645c9719" style="stroke:#0000ff;"/>
    </defs>
    <g clip-path="url(#p9ff4700f4f)">
     <use style="fill:#0000ff;stroke:#0000ff;" x="306.141503" xlink:href="#mc9645c9719" y="60.595371"/>
     <use style="fill:#0000ff;stroke:#0000ff;" x="114.655884" xlink:href="#mc9645c9719" y="231.192711"/>
     <use style="fill:#0000ff;stroke:#0000ff;" x="163.289412" xlink:href="#mc9645c9719" y="195.53023"/>
     <use style="fill:#0000ff;stroke:#0000ff;" x="150.082966" xlink:href="#mc9645c9719" y="207.54674"/>
     <use style="fill:#0000ff;stroke:#0000ff;" x="132.523631" xlink:href="#mc9645c9719" y="203.648328"/>
     <use style="fill:#0000ff;stroke:#0000ff;" x="72.818281" xlink:href="#mc9645c9719" y="297.604629"/>
     <use style="fill:#0000ff;stroke:#0000ff;" x="119.030342" xlink:href="#mc9645c9719" y="234.765171"/>
     <use style="fill:#0000ff;stroke:#0000ff;" x="101.567135" xlink:href="#mc9645c9719" y="262.773353"/>
     <use style="fill:#0000ff;stroke:#0000ff;" x="238.810343" xlink:href="#mc9645c9719" y="143.178323"/>
     <use style="fill:#0000ff;stroke:#0000ff;" x="282.74559" xlink:href="#mc9645c9719" y="108.010516"/>
     <use style="fill:#0000ff;stroke:#0000ff;" x="162.466754" xlink:href="#mc9645c9719" y="191.575962"/>
     <use style="fill:#0000ff;stroke:#0000ff;" x="129.452703" xlink:href="#mc9645c9719" y="226.182302"/>
     <use style="fill:#0000ff;stroke:#0000ff;" x="196.423408" xlink:href="#mc9645c9719" y="167.8737"/>
     <use style="fill:#0000ff;stroke:#0000ff;" x="156.335606" xlink:href="#mc9645c9719" y="198.135719"/>
     <use style="fill:#0000ff;stroke:#0000ff;" x="167.049455" xlink:href="#mc9645c9719" y="194.395774"/>
     <use style="fill:#0000ff;stroke:#0000ff;" x="77.029624" xlink:href="#mc9645c9719" y="267.995253"/>
     <use style="fill:#0000ff;stroke:#0000ff;" x="283.941026" xlink:href="#mc9645c9719" y="85.989886"/>
     <use style="fill:#0000ff;stroke:#0000ff;" x="62.858497" xlink:href="#mc9645c9719" y="279.953257"/>
     <use style="fill:#0000ff;stroke:#0000ff;" x="155.572225" xlink:href="#mc9645c9719" y="209.897129"/>
     <use style="fill:#0000ff;stroke:#0000ff;" x="100.07905" xlink:href="#mc9645c9719" y="261.226125"/>
     <use style="fill:#0000ff;stroke:#0000ff;" x="254.915737" xlink:href="#mc9645c9719" y="125.241208"/>
     <use style="fill:#0000ff;stroke:#0000ff;" x="187.373087" xlink:href="#mc9645c9719" y="158.623234"/>
     <use style="fill:#0000ff;stroke:#0000ff;" x="159.994745" xlink:href="#mc9645c9719" y="213.397479"/>
     <use style="fill:#0000ff;stroke:#0000ff;" x="122.933214" xlink:href="#mc9645c9719" y="236.691193"/>
     <use style="fill:#0000ff;stroke:#0000ff;" x="301.282815" xlink:href="#mc9645c9719" y="65.105032"/>
     <use style="fill:#0000ff;stroke:#0000ff;" x="241.054135" xlink:href="#mc9645c9719" y="130.239309"/>
     <use style="fill:#0000ff;stroke:#0000ff;" x="173.696645" xlink:href="#mc9645c9719" y="200.951576"/>
     <use style="fill:#0000ff;stroke:#0000ff;" x="139.978673" xlink:href="#mc9645c9719" y="213.65408"/>
     <use style="fill:#0000ff;stroke:#0000ff;" x="170.523713" xlink:href="#mc9645c9719" y="181.261347"/>
     <use style="fill:#0000ff;stroke:#0000ff;" x="176.437704" xlink:href="#mc9645c9719" y="189.544495"/>
     <use style="fill:#0000ff;stroke:#0000ff;" x="144.786227" xlink:href="#mc9645c9719" y="213.272444"/>
     <use style="fill:#0000ff;stroke:#0000ff;" x="162.275357" xlink:href="#mc9645c9719" y="209.501612"/>
     <use style="fill:#0000ff;stroke:#0000ff;" x="168.720826" xlink:href="#mc9645c9719" y="195.391966"/>
     <use style="fill:#0000ff;stroke:#0000ff;" x="113.900663" xlink:href="#mc9645c9719" y="240.701336"/>
     <use style="fill:#0000ff;stroke:#0000ff;" x="152.673526" xlink:href="#mc9645c9719" y="222.060771"/>
     <use style="fill:#0000ff;stroke:#0000ff;" x="136.59869" xlink:href="#mc9645c9719" y="214.812754"/>
     <use style="fill:#0000ff;stroke:#0000ff;" x="121.322895" xlink:href="#mc9645c9719" y="234.484815"/>
     <use style="fill:#0000ff;stroke:#0000ff;" x="246.412778" xlink:href="#mc9645c9719" y="101.476542"/>
     <use style="fill:#0000ff;stroke:#0000ff;" x="235.220862" xlink:href="#mc9645c9719" y="147.502661"/>
     <use style="fill:#0000ff;stroke:#0000ff;" x="233.902893" xlink:href="#mc9645c9719" y="135.909035"/>
     <use style="fill:#0000ff;stroke:#0000ff;" x="277.151376" xlink:href="#mc9645c9719" y="90.596644"/>
     <use style="fill:#0000ff;stroke:#0000ff;" x="109.575286" xlink:href="#mc9645c9719" y="225.20703"/>
     <use style="fill:#0000ff;stroke:#0000ff;" x="171.725359" xlink:href="#mc9645c9719" y="187.075702"/>
     <use style="fill:#0000ff;stroke:#0000ff;" x="160.992154" xlink:href="#mc9645c9719" y="190.016093"/>
     <use style="fill:#0000ff;stroke:#0000ff;" x="122.831107" xlink:href="#mc9645c9719" y="246.580422"/>
     <use style="fill:#0000ff;stroke:#0000ff;" x="121.149223" xlink:href="#mc9645c9719" y="257.252321"/>
    </g>
   </g>
   <g id="PathCollection_2">
    <defs>
     <path d="M 0 3 
C 0.795609 3 1.55874 2.683901 2.12132 2.12132 
C 2.683901 1.55874 3 0.795609 3 0 
C 3 -0.795609 2.683901 -1.55874 2.12132 -2.12132 
C 1.55874 -2.683901 0.795609 -3 0 -3 
C -0.795609 -3 -1.55874 -2.683901 -2.12132 -2.12132 
C -2.683901 -1.55874 -3 -0.795609 -3 0 
C -3 0.795609 -2.683901 1.55874 -2.12132 2.12132 
C -1.55874 2.683901 -0.795609 3 0 3 
z
" id="m16b318d8aa" style="stroke:#ff0000;"/>
    </defs>
    <g clip-path="url(#p9ff4700f4f)">
     <use style="fill:#ff0000;stroke:#ff0000;" x="256.323221" xlink:href="#m16b318d8aa" y="106.537432"/>
     <use style="fill:#ff0000;stroke:#ff0000;" x="175.18825" xlink:href="#m16b318d8aa" y="152.618825"/>
     <use style="fill:#ff0000;stroke:#ff0000;" x="134.367852" xlink:href="#m16b318d8aa" y="194.293587"/>
     <use style="fill:#ff0000;stroke:#ff0000;" x="172.588117" xlink:href="#m16b318d8aa" y="133.697384"/>
     <use style="fill:#ff0000;stroke:#ff0000;" x="180.529794" xlink:href="#m16b318d8aa" y="167.384997"/>
     <use style="fill:#ff0000;stroke:#ff0000;" x="109.156394" xlink:href="#m16b318d8aa" y="241.490158"/>
     <use style="fill:#ff0000;stroke:#ff0000;" x="185.071866" xlink:href="#m16b318d8aa" y="160.349906"/>
     <use style="fill:#ff0000;stroke:#ff0000;" x="150.054342" xlink:href="#m16b318d8aa" y="195.55048"/>
     <use style="fill:#ff0000;stroke:#ff0000;" x="149.15946" xlink:href="#m16b318d8aa" y="197.831026"/>
     <use style="fill:#ff0000;stroke:#ff0000;" x="239.967147" xlink:href="#m16b318d8aa" y="136.676916"/>
     <use style="fill:#ff0000;stroke:#ff0000;" x="180.69489" xlink:href="#m16b318d8aa" y="161.774315"/>
     <use style="fill:#ff0000;stroke:#ff0000;" x="168.194156" xlink:href="#m16b318d8aa" y="194.736483"/>
     <use style="fill:#ff0000;stroke:#ff0000;" x="136.397263" xlink:href="#m16b318d8aa" y="204.887697"/>
     <use style="fill:#ff0000;stroke:#ff0000;" x="133.296695" xlink:href="#m16b318d8aa" y="206.019747"/>
     <use style="fill:#ff0000;stroke:#ff0000;" x="153.821639" xlink:href="#m16b318d8aa" y="214.52227"/>
     <use style="fill:#ff0000;stroke:#ff0000;" x="151.184128" xlink:href="#m16b318d8aa" y="216.011495"/>
     <use style="fill:#ff0000;stroke:#ff0000;" x="250.551294" xlink:href="#m16b318d8aa" y="113.74844"/>
     <use style="fill:#ff0000;stroke:#ff0000;" x="182.140254" xlink:href="#m16b318d8aa" y="168.819548"/>
     <use style="fill:#ff0000;stroke:#ff0000;" x="219.919833" xlink:href="#m16b318d8aa" y="140.040635"/>
     <use style="fill:#ff0000;stroke:#ff0000;" x="138.17803" xlink:href="#m16b318d8aa" y="231.03389"/>
     <use style="fill:#ff0000;stroke:#ff0000;" x="210.109603" xlink:href="#m16b318d8aa" y="155.463559"/>
     <use style="fill:#ff0000;stroke:#ff0000;" x="225.63243" xlink:href="#m16b318d8aa" y="115.014546"/>
     <use style="fill:#ff0000;stroke:#ff0000;" x="229.380067" xlink:href="#m16b318d8aa" y="142.033736"/>
     <use style="fill:#ff0000;stroke:#ff0000;" x="177.145277" xlink:href="#m16b318d8aa" y="163.569354"/>
     <use style="fill:#ff0000;stroke:#ff0000;" x="268.504839" xlink:href="#m16b318d8aa" y="105.653496"/>
     <use style="fill:#ff0000;stroke:#ff0000;" x="245.496025" xlink:href="#m16b318d8aa" y="130.665818"/>
     <use style="fill:#ff0000;stroke:#ff0000;" x="215.846504" xlink:href="#m16b318d8aa" y="125.409646"/>
     <use style="fill:#ff0000;stroke:#ff0000;" x="179.531879" xlink:href="#m16b318d8aa" y="169.327862"/>
     <use style="fill:#ff0000;stroke:#ff0000;" x="127.182379" xlink:href="#m16b318d8aa" y="219.945382"/>
     <use style="fill:#ff0000;stroke:#ff0000;" x="218.686306" xlink:href="#m16b318d8aa" y="156.652725"/>
     <use style="fill:#ff0000;stroke:#ff0000;" x="203.764209" xlink:href="#m16b318d8aa" y="160.026913"/>
     <use style="fill:#ff0000;stroke:#ff0000;" x="192.685056" xlink:href="#m16b318d8aa" y="158.762968"/>
     <use style="fill:#ff0000;stroke:#ff0000;" x="132.592021" xlink:href="#m16b318d8aa" y="230.999371"/>
     <use style="fill:#ff0000;stroke:#ff0000;" x="176.495688" xlink:href="#m16b318d8aa" y="178.246028"/>
     <use style="fill:#ff0000;stroke:#ff0000;" x="222.851896" xlink:href="#m16b318d8aa" y="124.286073"/>
     <use style="fill:#ff0000;stroke:#ff0000;" x="181.459979" xlink:href="#m16b318d8aa" y="152.048166"/>
     <use style="fill:#ff0000;stroke:#ff0000;" x="106.418269" xlink:href="#m16b318d8aa" y="244.8303"/>
     <use style="fill:#ff0000;stroke:#ff0000;" x="188.892175" xlink:href="#m16b318d8aa" y="182.449912"/>
     <use style="fill:#ff0000;stroke:#ff0000;" x="167.198597" xlink:href="#m16b318d8aa" y="186.551978"/>
     <use style="fill:#ff0000;stroke:#ff0000;" x="197.879715" xlink:href="#m16b318d8aa" y="167.475029"/>
     <use style="fill:#ff0000;stroke:#ff0000;" x="222.075025" xlink:href="#m16b318d8aa" y="146.392745"/>
     <use style="fill:#ff0000;stroke:#ff0000;" x="164.479924" xlink:href="#m16b318d8aa" y="163.889952"/>
     <use style="fill:#ff0000;stroke:#ff0000;" x="191.308387" xlink:href="#m16b318d8aa" y="187.09321"/>
     <use style="fill:#ff0000;stroke:#ff0000;" x="162.113482" xlink:href="#m16b318d8aa" y="188.748338"/>
     <use style="fill:#ff0000;stroke:#ff0000;" x="139.862656" xlink:href="#m16b318d8aa" y="222.758005"/>
     <use style="fill:#ff0000;stroke:#ff0000;" x="142.135763" xlink:href="#m16b318d8aa" y="220.834815"/>
    </g>
   </g>
   <g id="matplotlib.axis_1">
    <g id="xtick_1">
     <g id="line2d_1">
      <defs>
       <path d="M 0 0 
L 0 6 
" id="mf92ee886ec" style="stroke:#000000;stroke-width:1.25;"/>
      </defs>
      <g>
       <use style="stroke:#000000;stroke-width:1.25;" x="55.908407" xlink:href="#mf92ee886ec" y="315"/>
      </g>
     </g>
     <g id="text_1">
      <!-- −0.3 -->
      <defs>
       <path d="M 10.59375 35.5 
L 73.1875 35.5 
L 73.1875 27.203125 
L 10.59375 27.203125 
z
" id="DejaVuSans-8722"/>
       <path d="M 31.78125 66.40625 
Q 24.171875 66.40625 20.328125 58.90625 
Q 16.5 51.421875 16.5 36.375 
Q 16.5 21.390625 20.328125 13.890625 
Q 24.171875 6.390625 31.78125 6.390625 
Q 39.453125 6.390625 43.28125 13.890625 
Q 47.125 21.390625 47.125 36.375 
Q 47.125 51.421875 43.28125 58.90625 
Q 39.453125 66.40625 31.78125 66.40625 
z
M 31.78125 74.21875 
Q 44.046875 74.21875 50.515625 64.515625 
Q 56.984375 54.828125 56.984375 36.375 
Q 56.984375 17.96875 50.515625 8.265625 
Q 44.046875 -1.421875 31.78125 -1.421875 
Q 19.53125 -1.421875 13.0625 8.265625 
Q 6.59375 17.96875 6.59375 36.375 
Q 6.59375 54.828125 13.0625 64.515625 
Q 19.53125 74.21875 31.78125 74.21875 
z
" id="DejaVuSans-48"/>
       <path d="M 10.6875 12.40625 
L 21 12.40625 
L 21 0 
L 10.6875 0 
z
" id="DejaVuSans-46"/>
       <path d="M 40.578125 39.3125 
Q 47.65625 37.796875 51.625 33 
Q 55.609375 28.21875 55.609375 21.1875 
Q 55.609375 10.40625 48.1875 4.484375 
Q 40.765625 -1.421875 27.09375 -1.421875 
Q 22.515625 -1.421875 17.65625 -0.515625 
Q 12.796875 0.390625 7.625 2.203125 
L 7.625 11.71875 
Q 11.71875 9.328125 16.59375 8.109375 
Q 21.484375 6.890625 26.8125 6.890625 
Q 36.078125 6.890625 40.9375 10.546875 
Q 45.796875 14.203125 45.796875 21.1875 
Q 45.796875 27.640625 41.28125 31.265625 
Q 36.765625 34.90625 28.71875 34.90625 
L 20.21875 34.90625 
L 20.21875 43.015625 
L 29.109375 43.015625 
Q 36.375 43.015625 40.234375 45.921875 
Q 44.09375 48.828125 44.09375 54.296875 
Q 44.09375 59.90625 40.109375 62.90625 
Q 36.140625 65.921875 28.71875 65.921875 
Q 24.65625 65.921875 20.015625 65.03125 
Q 15.375 64.15625 9.8125 62.3125 
L 9.8125 71.09375 
Q 15.4375 72.65625 20.34375 73.4375 
Q 25.25 74.21875 29.59375 74.21875 
Q 40.828125 74.21875 47.359375 69.109375 
Q 53.90625 64.015625 53.90625 55.328125 
Q 53.90625 49.265625 50.4375 45.09375 
Q 46.96875 40.921875 40.578125 39.3125 
z
" id="DejaVuSans-51"/>
      </defs>
      <g transform="translate(38.546196 335.365766)scale(0.143 -0.143)">
       <use xlink:href="#DejaVuSans-8722"/>
       <use x="83.789062" xlink:href="#DejaVuSans-48"/>
       <use x="147.412109" xlink:href="#DejaVuSans-46"/>
       <use x="179.199219" xlink:href="#DejaVuSans-51"/>
      </g>
     </g>
    </g>
    <g id="xtick_2">
     <g id="line2d_2">
      <g>
       <use style="stroke:#000000;stroke-width:1.25;" x="104.051523" xlink:href="#mf92ee886ec" y="315"/>
      </g>
     </g>
     <g id="text_2">
      <!-- −0.2 -->
      <defs>
       <path d="M 19.1875 8.296875 
L 53.609375 8.296875 
L 53.609375 0 
L 7.328125 0 
L 7.328125 8.296875 
Q 12.9375 14.109375 22.625 23.890625 
Q 32.328125 33.6875 34.8125 36.53125 
Q 39.546875 41.84375 41.421875 45.53125 
Q 43.3125 49.21875 43.3125 52.78125 
Q 43.3125 58.59375 39.234375 62.25 
Q 35.15625 65.921875 28.609375 65.921875 
Q 23.96875 65.921875 18.8125 64.3125 
Q 13.671875 62.703125 7.8125 59.421875 
L 7.8125 69.390625 
Q 13.765625 71.78125 18.9375 73 
Q 24.125 74.21875 28.421875 74.21875 
Q 39.75 74.21875 46.484375 68.546875 
Q 53.21875 62.890625 53.21875 53.421875 
Q 53.21875 48.921875 51.53125 44.890625 
Q 49.859375 40.875 45.40625 35.40625 
Q 44.1875 33.984375 37.640625 27.21875 
Q 31.109375 20.453125 19.1875 8.296875 
z
" id="DejaVuSans-50"/>
      </defs>
      <g transform="translate(86.689312 335.365766)scale(0.143 -0.143)">
       <use xlink:href="#DejaVuSans-8722"/>
       <use x="83.789062" xlink:href="#DejaVuSans-48"/>
       <use x="147.412109" xlink:href="#DejaVuSans-46"/>
       <use x="179.199219" xlink:href="#DejaVuSans-50"/>
      </g>
     </g>
    </g>
    <g id="xtick_3">
     <g id="line2d_3">
      <g>
       <use style="stroke:#000000;stroke-width:1.25;" x="152.194638" xlink:href="#mf92ee886ec" y="315"/>
      </g>
     </g>
     <g id="text_3">
      <!-- −0.1 -->
      <defs>
       <path d="M 12.40625 8.296875 
L 28.515625 8.296875 
L 28.515625 63.921875 
L 10.984375 60.40625 
L 10.984375 69.390625 
L 28.421875 72.90625 
L 38.28125 72.90625 
L 38.28125 8.296875 
L 54.390625 8.296875 
L 54.390625 0 
L 12.40625 0 
z
" id="DejaVuSans-49"/>
      </defs>
      <g transform="translate(134.832427 335.365766)scale(0.143 -0.143)">
       <use xlink:href="#DejaVuSans-8722"/>
       <use x="83.789062" xlink:href="#DejaVuSans-48"/>
       <use x="147.412109" xlink:href="#DejaVuSans-46"/>
       <use x="179.199219" xlink:href="#DejaVuSans-49"/>
      </g>
     </g>
    </g>
    <g id="xtick_4">
     <g id="line2d_4">
      <g>
       <use style="stroke:#000000;stroke-width:1.25;" x="200.337754" xlink:href="#mf92ee886ec" y="315"/>
      </g>
     </g>
     <g id="text_4">
      <!-- 0.0 -->
      <g transform="translate(188.967019 335.365766)scale(0.143 -0.143)">
       <use xlink:href="#DejaVuSans-48"/>
       <use x="63.623047" xlink:href="#DejaVuSans-46"/>
       <use x="95.410156" xlink:href="#DejaVuSans-48"/>
      </g>
     </g>
    </g>
    <g id="xtick_5">
     <g id="line2d_5">
      <g>
       <use style="stroke:#000000;stroke-width:1.25;" x="248.480869" xlink:href="#mf92ee886ec" y="315"/>
      </g>
     </g>
     <g id="text_5">
      <!-- 0.1 -->
      <g transform="translate(237.110135 335.365766)scale(0.143 -0.143)">
       <use xlink:href="#DejaVuSans-48"/>
       <use x="63.623047" xlink:href="#DejaVuSans-46"/>
       <use x="95.410156" xlink:href="#DejaVuSans-49"/>
      </g>
     </g>
    </g>
    <g id="xtick_6">
     <g id="line2d_6">
      <g>
       <use style="stroke:#000000;stroke-width:1.25;" x="296.623985" xlink:href="#mf92ee886ec" y="315"/>
      </g>
     </g>
     <g id="text_6">
      <!-- 0.2 -->
      <g transform="translate(285.253251 335.365766)scale(0.143 -0.143)">
       <use xlink:href="#DejaVuSans-48"/>
       <use x="63.623047" xlink:href="#DejaVuSans-46"/>
       <use x="95.410156" xlink:href="#DejaVuSans-50"/>
      </g>
     </g>
    </g>
    <g id="text_7">
     <!-- K-mer impact model 1 -->
     <defs>
      <path d="M 9.8125 72.90625 
L 19.671875 72.90625 
L 19.671875 42.09375 
L 52.390625 72.90625 
L 65.09375 72.90625 
L 28.90625 38.921875 
L 67.671875 0 
L 54.6875 0 
L 19.671875 35.109375 
L 19.671875 0 
L 9.8125 0 
z
" id="DejaVuSans-75"/>
      <path d="M 4.890625 31.390625 
L 31.203125 31.390625 
L 31.203125 23.390625 
L 4.890625 23.390625 
z
" id="DejaVuSans-45"/>
      <path d="M 52 44.1875 
Q 55.375 50.25 60.0625 53.125 
Q 64.75 56 71.09375 56 
Q 79.640625 56 84.28125 50.015625 
Q 88.921875 44.046875 88.921875 33.015625 
L 88.921875 0 
L 79.890625 0 
L 79.890625 32.71875 
Q 79.890625 40.578125 77.09375 44.375 
Q 74.3125 48.1875 68.609375 48.1875 
Q 61.625 48.1875 57.5625 43.546875 
Q 53.515625 38.921875 53.515625 30.90625 
L 53.515625 0 
L 44.484375 0 
L 44.484375 32.71875 
Q 44.484375 40.625 41.703125 44.40625 
Q 38.921875 48.1875 33.109375 48.1875 
Q 26.21875 48.1875 22.15625 43.53125 
Q 18.109375 38.875 18.109375 30.90625 
L 18.109375 0 
L 9.078125 0 
L 9.078125 54.6875 
L 18.109375 54.6875 
L 18.109375 46.1875 
Q 21.1875 51.21875 25.484375 53.609375 
Q 29.78125 56 35.6875 56 
Q 41.65625 56 45.828125 52.96875 
Q 50 49.953125 52 44.1875 
z
" id="DejaVuSans-109"/>
      <path d="M 56.203125 29.59375 
L 56.203125 25.203125 
L 14.890625 25.203125 
Q 15.484375 15.921875 20.484375 11.0625 
Q 25.484375 6.203125 34.421875 6.203125 
Q 39.59375 6.203125 44.453125 7.46875 
Q 49.3125 8.734375 54.109375 11.28125 
L 54.109375 2.78125 
Q 49.265625 0.734375 44.1875 -0.34375 
Q 39.109375 -1.421875 33.890625 -1.421875 
Q 20.796875 -1.421875 13.15625 6.1875 
Q 5.515625 13.8125 5.515625 26.8125 
Q 5.515625 40.234375 12.765625 48.109375 
Q 20.015625 56 32.328125 56 
Q 43.359375 56 49.78125 48.890625 
Q 56.203125 41.796875 56.203125 29.59375 
z
M 47.21875 32.234375 
Q 47.125 39.59375 43.09375 43.984375 
Q 39.0625 48.390625 32.421875 48.390625 
Q 24.90625 48.390625 20.390625 44.140625 
Q 15.875 39.890625 15.1875 32.171875 
z
" id="DejaVuSans-101"/>
      <path d="M 41.109375 46.296875 
Q 39.59375 47.171875 37.8125 47.578125 
Q 36.03125 48 33.890625 48 
Q 26.265625 48 22.1875 43.046875 
Q 18.109375 38.09375 18.109375 28.8125 
L 18.109375 0 
L 9.078125 0 
L 9.078125 54.6875 
L 18.109375 54.6875 
L 18.109375 46.1875 
Q 20.953125 51.171875 25.484375 53.578125 
Q 30.03125 56 36.53125 56 
Q 37.453125 56 38.578125 55.875 
Q 39.703125 55.765625 41.0625 55.515625 
z
" id="DejaVuSans-114"/>
      <path id="DejaVuSans-32"/>
      <path d="M 9.421875 54.6875 
L 18.40625 54.6875 
L 18.40625 0 
L 9.421875 0 
z
M 9.421875 75.984375 
L 18.40625 75.984375 
L 18.40625 64.59375 
L 9.421875 64.59375 
z
" id="DejaVuSans-105"/>
      <path d="M 18.109375 8.203125 
L 18.109375 -20.796875 
L 9.078125 -20.796875 
L 9.078125 54.6875 
L 18.109375 54.6875 
L 18.109375 46.390625 
Q 20.953125 51.265625 25.265625 53.625 
Q 29.59375 56 35.59375 56 
Q 45.5625 56 51.78125 48.09375 
Q 58.015625 40.1875 58.015625 27.296875 
Q 58.015625 14.40625 51.78125 6.484375 
Q 45.5625 -1.421875 35.59375 -1.421875 
Q 29.59375 -1.421875 25.265625 0.953125 
Q 20.953125 3.328125 18.109375 8.203125 
z
M 48.6875 27.296875 
Q 48.6875 37.203125 44.609375 42.84375 
Q 40.53125 48.484375 33.40625 48.484375 
Q 26.265625 48.484375 22.1875 42.84375 
Q 18.109375 37.203125 18.109375 27.296875 
Q 18.109375 17.390625 22.1875 11.75 
Q 26.265625 6.109375 33.40625 6.109375 
Q 40.53125 6.109375 44.609375 11.75 
Q 48.6875 17.390625 48.6875 27.296875 
z
" id="DejaVuSans-112"/>
      <path d="M 34.28125 27.484375 
Q 23.390625 27.484375 19.1875 25 
Q 14.984375 22.515625 14.984375 16.5 
Q 14.984375 11.71875 18.140625 8.90625 
Q 21.296875 6.109375 26.703125 6.109375 
Q 34.1875 6.109375 38.703125 11.40625 
Q 43.21875 16.703125 43.21875 25.484375 
L 43.21875 27.484375 
z
M 52.203125 31.203125 
L 52.203125 0 
L 43.21875 0 
L 43.21875 8.296875 
Q 40.140625 3.328125 35.546875 0.953125 
Q 30.953125 -1.421875 24.3125 -1.421875 
Q 15.921875 -1.421875 10.953125 3.296875 
Q 6 8.015625 6 15.921875 
Q 6 25.140625 12.171875 29.828125 
Q 18.359375 34.515625 30.609375 34.515625 
L 43.21875 34.515625 
L 43.21875 35.40625 
Q 43.21875 41.609375 39.140625 45 
Q 35.0625 48.390625 27.6875 48.390625 
Q 23 48.390625 18.546875 47.265625 
Q 14.109375 46.140625 10.015625 43.890625 
L 10.015625 52.203125 
Q 14.9375 54.109375 19.578125 55.046875 
Q 24.21875 56 28.609375 56 
Q 40.484375 56 46.34375 49.84375 
Q 52.203125 43.703125 52.203125 31.203125 
z
" id="DejaVuSans-97"/>
      <path d="M 48.78125 52.59375 
L 48.78125 44.1875 
Q 44.96875 46.296875 41.140625 47.34375 
Q 37.3125 48.390625 33.40625 48.390625 
Q 24.65625 48.390625 19.8125 42.84375 
Q 14.984375 37.3125 14.984375 27.296875 
Q 14.984375 17.28125 19.8125 11.734375 
Q 24.65625 6.203125 33.40625 6.203125 
Q 37.3125 6.203125 41.140625 7.25 
Q 44.96875 8.296875 48.78125 10.40625 
L 48.78125 2.09375 
Q 45.015625 0.34375 40.984375 -0.53125 
Q 36.96875 -1.421875 32.421875 -1.421875 
Q 20.0625 -1.421875 12.78125 6.34375 
Q 5.515625 14.109375 5.515625 27.296875 
Q 5.515625 40.671875 12.859375 48.328125 
Q 20.21875 56 33.015625 56 
Q 37.15625 56 41.109375 55.140625 
Q 45.0625 54.296875 48.78125 52.59375 
z
" id="DejaVuSans-99"/>
      <path d="M 18.3125 70.21875 
L 18.3125 54.6875 
L 36.8125 54.6875 
L 36.8125 47.703125 
L 18.3125 47.703125 
L 18.3125 18.015625 
Q 18.3125 11.328125 20.140625 9.421875 
Q 21.96875 7.515625 27.59375 7.515625 
L 36.8125 7.515625 
L 36.8125 0 
L 27.59375 0 
Q 17.1875 0 13.234375 3.875 
Q 9.28125 7.765625 9.28125 18.015625 
L 9.28125 47.703125 
L 2.6875 47.703125 
L 2.6875 54.6875 
L 9.28125 54.6875 
L 9.28125 70.21875 
z
" id="DejaVuSans-116"/>
      <path d="M 30.609375 48.390625 
Q 23.390625 48.390625 19.1875 42.75 
Q 14.984375 37.109375 14.984375 27.296875 
Q 14.984375 17.484375 19.15625 11.84375 
Q 23.34375 6.203125 30.609375 6.203125 
Q 37.796875 6.203125 41.984375 11.859375 
Q 46.1875 17.53125 46.1875 27.296875 
Q 46.1875 37.015625 41.984375 42.703125 
Q 37.796875 48.390625 30.609375 48.390625 
z
M 30.609375 56 
Q 42.328125 56 49.015625 48.375 
Q 55.71875 40.765625 55.71875 27.296875 
Q 55.71875 13.875 49.015625 6.21875 
Q 42.328125 -1.421875 30.609375 -1.421875 
Q 18.84375 -1.421875 12.171875 6.21875 
Q 5.515625 13.875 5.515625 27.296875 
Q 5.515625 40.765625 12.171875 48.375 
Q 18.84375 56 30.609375 56 
z
" id="DejaVuSans-111"/>
      <path d="M 45.40625 46.390625 
L 45.40625 75.984375 
L 54.390625 75.984375 
L 54.390625 0 
L 45.40625 0 
L 45.40625 8.203125 
Q 42.578125 3.328125 38.25 0.953125 
Q 33.9375 -1.421875 27.875 -1.421875 
Q 17.96875 -1.421875 11.734375 6.484375 
Q 5.515625 14.40625 5.515625 27.296875 
Q 5.515625 40.1875 11.734375 48.09375 
Q 17.96875 56 27.875 56 
Q 33.9375 56 38.25 53.625 
Q 42.578125 51.265625 45.40625 46.390625 
z
M 14.796875 27.296875 
Q 14.796875 17.390625 18.875 11.75 
Q 22.953125 6.109375 30.078125 6.109375 
Q 37.203125 6.109375 41.296875 11.75 
Q 45.40625 17.390625 45.40625 27.296875 
Q 45.40625 37.203125 41.296875 42.84375 
Q 37.203125 48.484375 30.078125 48.484375 
Q 22.953125 48.484375 18.875 42.84375 
Q 14.796875 37.203125 14.796875 27.296875 
z
" id="DejaVuSans-100"/>
      <path d="M 9.421875 75.984375 
L 18.40625 75.984375 
L 18.40625 0 
L 9.421875 0 
z
" id="DejaVuSans-108"/>
     </defs>
     <g transform="translate(97.448344 354.193281)scale(0.156 -0.156)">
      <use xlink:href="#DejaVuSans-75"/>
      <use x="65.419922" xlink:href="#DejaVuSans-45"/>
      <use x="101.503906" xlink:href="#DejaVuSans-109"/>
      <use x="198.916016" xlink:href="#DejaVuSans-101"/>
      <use x="260.439453" xlink:href="#DejaVuSans-114"/>
      <use x="301.552734" xlink:href="#DejaVuSans-32"/>
      <use x="333.339844" xlink:href="#DejaVuSans-105"/>
      <use x="361.123047" xlink:href="#DejaVuSans-109"/>
      <use x="458.535156" xlink:href="#DejaVuSans-112"/>
      <use x="522.011719" xlink:href="#DejaVuSans-97"/>
      <use x="583.291016" xlink:href="#DejaVuSans-99"/>
      <use x="638.271484" xlink:href="#DejaVuSans-116"/>
      <use x="677.480469" xlink:href="#DejaVuSans-32"/>
      <use x="709.267578" xlink:href="#DejaVuSans-109"/>
      <use x="806.679688" xlink:href="#DejaVuSans-111"/>
      <use x="867.861328" xlink:href="#DejaVuSans-100"/>
      <use x="931.337891" xlink:href="#DejaVuSans-101"/>
      <use x="992.861328" xlink:href="#DejaVuSans-108"/>
      <use x="1020.644531" xlink:href="#DejaVuSans-32"/>
      <use x="1052.431641" xlink:href="#DejaVuSans-49"/>
     </g>
    </g>
   </g>
   <g id="matplotlib.axis_2">
    <g id="ytick_1">
     <g id="line2d_7">
      <defs>
       <path d="M 0 0 
L -6 0 
" id="m6f0ad41251" style="stroke:#000000;stroke-width:1.25;"/>
      </defs>
      <g>
       <use style="stroke:#000000;stroke-width:1.25;" x="45" xlink:href="#m6f0ad41251" y="301.208486"/>
      </g>
     </g>
     <g id="text_8">
      <!-- −0.3 -->
      <g transform="translate(0.775578 306.641369)scale(0.143 -0.143)">
       <use xlink:href="#DejaVuSans-8722"/>
       <use x="83.789062" xlink:href="#DejaVuSans-48"/>
       <use x="147.412109" xlink:href="#DejaVuSans-46"/>
       <use x="179.199219" xlink:href="#DejaVuSans-51"/>
      </g>
     </g>
    </g>
    <g id="ytick_2">
     <g id="line2d_8">
      <g>
       <use style="stroke:#000000;stroke-width:1.25;" x="45" xlink:href="#m6f0ad41251" y="255.538604"/>
      </g>
     </g>
     <g id="text_9">
      <!-- −0.2 -->
      <g transform="translate(0.775578 260.971487)scale(0.143 -0.143)">
       <use xlink:href="#DejaVuSans-8722"/>
       <use x="83.789062" xlink:href="#DejaVuSans-48"/>
       <use x="147.412109" xlink:href="#DejaVuSans-46"/>
       <use x="179.199219" xlink:href="#DejaVuSans-50"/>
      </g>
     </g>
    </g>
    <g id="ytick_3">
     <g id="line2d_9">
      <g>
       <use style="stroke:#000000;stroke-width:1.25;" x="45" xlink:href="#m6f0ad41251" y="209.868722"/>
      </g>
     </g>
     <g id="text_10">
      <!-- −0.1 -->
      <g transform="translate(0.775578 215.301605)scale(0.143 -0.143)">
       <use xlink:href="#DejaVuSans-8722"/>
       <use x="83.789062" xlink:href="#DejaVuSans-48"/>
       <use x="147.412109" xlink:href="#DejaVuSans-46"/>
       <use x="179.199219" xlink:href="#DejaVuSans-49"/>
      </g>
     </g>
    </g>
    <g id="ytick_4">
     <g id="line2d_10">
      <g>
       <use style="stroke:#000000;stroke-width:1.25;" x="45" xlink:href="#m6f0ad41251" y="164.19884"/>
      </g>
     </g>
     <g id="text_11">
      <!-- 0.0 -->
      <g transform="translate(12.758531 169.631722)scale(0.143 -0.143)">
       <use xlink:href="#DejaVuSans-48"/>
       <use x="63.623047" xlink:href="#DejaVuSans-46"/>
       <use x="95.410156" xlink:href="#DejaVuSans-48"/>
      </g>
     </g>
    </g>
    <g id="ytick_5">
     <g id="line2d_11">
      <g>
       <use style="stroke:#000000;stroke-width:1.25;" x="45" xlink:href="#m6f0ad41251" y="118.528957"/>
      </g>
     </g>
     <g id="text_12">
      <!-- 0.1 -->
      <g transform="translate(12.758531 123.96184)scale(0.143 -0.143)">
       <use xlink:href="#DejaVuSans-48"/>
       <use x="63.623047" xlink:href="#DejaVuSans-46"/>
       <use x="95.410156" xlink:href="#DejaVuSans-49"/>
      </g>
     </g>
    </g>
    <g id="ytick_6">
     <g id="line2d_12">
      <g>
       <use style="stroke:#000000;stroke-width:1.25;" x="45" xlink:href="#m6f0ad41251" y="72.859075"/>
      </g>
     </g>
     <g id="text_13">
      <!-- 0.2 -->
      <g transform="translate(12.758531 78.291958)scale(0.143 -0.143)">
       <use xlink:href="#DejaVuSans-48"/>
       <use x="63.623047" xlink:href="#DejaVuSans-46"/>
       <use x="95.410156" xlink:href="#DejaVuSans-50"/>
      </g>
     </g>
    </g>
    <g id="text_14">
     <!-- K-mer impact model 2 -->
     <g transform="translate(-6.468734 266.151656)rotate(-90)scale(0.156 -0.156)">
      <use xlink:href="#DejaVuSans-75"/>
      <use x="65.419922" xlink:href="#DejaVuSans-45"/>
      <use x="101.503906" xlink:href="#DejaVuSans-109"/>
      <use x="198.916016" xlink:href="#DejaVuSans-101"/>
      <use x="260.439453" xlink:href="#DejaVuSans-114"/>
      <use x="301.552734" xlink:href="#DejaVuSans-32"/>
      <use x="333.339844" xlink:href="#DejaVuSans-105"/>
      <use x="361.123047" xlink:href="#DejaVuSans-109"/>
      <use x="458.535156" xlink:href="#DejaVuSans-112"/>
      <use x="522.011719" xlink:href="#DejaVuSans-97"/>
      <use x="583.291016" xlink:href="#DejaVuSans-99"/>
      <use x="638.271484" xlink:href="#DejaVuSans-116"/>
      <use x="677.480469" xlink:href="#DejaVuSans-32"/>
      <use x="709.267578" xlink:href="#DejaVuSans-109"/>
      <use x="806.679688" xlink:href="#DejaVuSans-111"/>
      <use x="867.861328" xlink:href="#DejaVuSans-100"/>
      <use x="931.337891" xlink:href="#DejaVuSans-101"/>
      <use x="992.861328" xlink:href="#DejaVuSans-108"/>
      <use x="1020.644531" xlink:href="#DejaVuSans-32"/>
      <use x="1052.431641" xlink:href="#DejaVuSans-50"/>
     </g>
    </g>
   </g>
   <g id="patch_3">
    <path d="M 45 315 
L 45 43.2 
" style="fill:none;stroke:#000000;stroke-linecap:square;stroke-linejoin:miter;stroke-width:1.25;"/>
   </g>
   <g id="patch_4">
    <path d="M 324 315 
L 324 43.2 
" style="fill:none;stroke:#000000;stroke-linecap:square;stroke-linejoin:miter;stroke-width:1.25;"/>
   </g>
   <g id="patch_5">
    <path d="M 45 315 
L 324 315 
" style="fill:none;stroke:#000000;stroke-linecap:square;stroke-linejoin:miter;stroke-width:1.25;"/>
   </g>
   <g id="patch_6">
    <path d="M 45 43.2 
L 324 43.2 
" style="fill:none;stroke:#000000;stroke-linecap:square;stroke-linejoin:miter;stroke-width:1.25;"/>
   </g>
   <g id="text_15">
    <!-- r = 0.963 p &lt; 0.001 -->
    <defs>
     <path d="M 10.59375 45.40625 
L 73.1875 45.40625 
L 73.1875 37.203125 
L 10.59375 37.203125 
z
M 10.59375 25.484375 
L 73.1875 25.484375 
L 73.1875 17.1875 
L 10.59375 17.1875 
z
" id="DejaVuSans-61"/>
     <path d="M 10.984375 1.515625 
L 10.984375 10.5 
Q 14.703125 8.734375 18.5 7.8125 
Q 22.3125 6.890625 25.984375 6.890625 
Q 35.75 6.890625 40.890625 13.453125 
Q 46.046875 20.015625 46.78125 33.40625 
Q 43.953125 29.203125 39.59375 26.953125 
Q 35.25 24.703125 29.984375 24.703125 
Q 19.046875 24.703125 12.671875 31.3125 
Q 6.296875 37.9375 6.296875 49.421875 
Q 6.296875 60.640625 12.9375 67.421875 
Q 19.578125 74.21875 30.609375 74.21875 
Q 43.265625 74.21875 49.921875 64.515625 
Q 56.59375 54.828125 56.59375 36.375 
Q 56.59375 19.140625 48.40625 8.859375 
Q 40.234375 -1.421875 26.421875 -1.421875 
Q 22.703125 -1.421875 18.890625 -0.6875 
Q 15.09375 0.046875 10.984375 1.515625 
z
M 30.609375 32.421875 
Q 37.25 32.421875 41.125 36.953125 
Q 45.015625 41.5 45.015625 49.421875 
Q 45.015625 57.28125 41.125 61.84375 
Q 37.25 66.40625 30.609375 66.40625 
Q 23.96875 66.40625 20.09375 61.84375 
Q 16.21875 57.28125 16.21875 49.421875 
Q 16.21875 41.5 20.09375 36.953125 
Q 23.96875 32.421875 30.609375 32.421875 
z
" id="DejaVuSans-57"/>
     <path d="M 33.015625 40.375 
Q 26.375 40.375 22.484375 35.828125 
Q 18.609375 31.296875 18.609375 23.390625 
Q 18.609375 15.53125 22.484375 10.953125 
Q 26.375 6.390625 33.015625 6.390625 
Q 39.65625 6.390625 43.53125 10.953125 
Q 47.40625 15.53125 47.40625 23.390625 
Q 47.40625 31.296875 43.53125 35.828125 
Q 39.65625 40.375 33.015625 40.375 
z
M 52.59375 71.296875 
L 52.59375 62.3125 
Q 48.875 64.0625 45.09375 64.984375 
Q 41.3125 65.921875 37.59375 65.921875 
Q 27.828125 65.921875 22.671875 59.328125 
Q 17.53125 52.734375 16.796875 39.40625 
Q 19.671875 43.65625 24.015625 45.921875 
Q 28.375 48.1875 33.59375 48.1875 
Q 44.578125 48.1875 50.953125 41.515625 
Q 57.328125 34.859375 57.328125 23.390625 
Q 57.328125 12.15625 50.6875 5.359375 
Q 44.046875 -1.421875 33.015625 -1.421875 
Q 20.359375 -1.421875 13.671875 8.265625 
Q 6.984375 17.96875 6.984375 36.375 
Q 6.984375 53.65625 15.1875 63.9375 
Q 23.390625 74.21875 37.203125 74.21875 
Q 40.921875 74.21875 44.703125 73.484375 
Q 48.484375 72.75 52.59375 71.296875 
z
" id="DejaVuSans-54"/>
     <path d="M 73.1875 49.21875 
L 22.796875 31.296875 
L 73.1875 13.484375 
L 73.1875 4.59375 
L 10.59375 27.296875 
L 10.59375 35.40625 
L 73.1875 58.109375 
z
" id="DejaVuSans-60"/>
    </defs>
    <g transform="translate(106.214812 37.2)scale(0.156 -0.156)">
     <use xlink:href="#DejaVuSans-114"/>
     <use x="41.113281" xlink:href="#DejaVuSans-32"/>
     <use x="72.900391" xlink:href="#DejaVuSans-61"/>
     <use x="156.689453" xlink:href="#DejaVuSans-32"/>
     <use x="188.476562" xlink:href="#DejaVuSans-48"/>
     <use x="252.099609" xlink:href="#DejaVuSans-46"/>
     <use x="283.886719" xlink:href="#DejaVuSans-57"/>
     <use x="347.509766" xlink:href="#DejaVuSans-54"/>
     <use x="411.132812" xlink:href="#DejaVuSans-51"/>
     <use x="474.755859" xlink:href="#DejaVuSans-32"/>
     <use x="506.542969" xlink:href="#DejaVuSans-112"/>
     <use x="570.019531" xlink:href="#DejaVuSans-32"/>
     <use x="601.806641" xlink:href="#DejaVuSans-60"/>
     <use x="685.595703" xlink:href="#DejaVuSans-32"/>
     <use x="717.382812" xlink:href="#DejaVuSans-48"/>
     <use x="781.005859" xlink:href="#DejaVuSans-46"/>
     <use x="812.792969" xlink:href="#DejaVuSans-48"/>
     <use x="876.416016" xlink:href="#DejaVuSans-48"/>
     <use x="940.039062" xlink:href="#DejaVuSans-49"/>
    </g>
   </g>
   <g id="legend_1">
    <g id="patch_7">
     <path d="M 55.01 96.619437 
L 128.8695 96.619437 
Q 131.7295 96.619437 131.7295 93.759437 
L 131.7295 53.21 
Q 131.7295 50.35 128.8695 50.35 
L 55.01 50.35 
Q 52.15 50.35 52.15 53.21 
L 52.15 93.759437 
Q 52.15 96.619437 55.01 96.619437 
z
" style="fill:#ffffff;opacity:0.8;stroke:#cccccc;stroke-linejoin:miter;"/>
    </g>
    <g id="PathCollection_3">
     <g>
      <use style="fill:#0000ff;stroke:#0000ff;" x="72.17" xlink:href="#mc9645c9719" y="63.182016"/>
     </g>
    </g>
    <g id="text_16">
     <!-- ESC -->
     <defs>
      <path d="M 9.8125 72.90625 
L 55.90625 72.90625 
L 55.90625 64.59375 
L 19.671875 64.59375 
L 19.671875 43.015625 
L 54.390625 43.015625 
L 54.390625 34.71875 
L 19.671875 34.71875 
L 19.671875 8.296875 
L 56.78125 8.296875 
L 56.78125 0 
L 9.8125 0 
z
" id="DejaVuSans-69"/>
      <path d="M 53.515625 70.515625 
L 53.515625 60.890625 
Q 47.90625 63.578125 42.921875 64.890625 
Q 37.9375 66.21875 33.296875 66.21875 
Q 25.25 66.21875 20.875 63.09375 
Q 16.5 59.96875 16.5 54.203125 
Q 16.5 49.359375 19.40625 46.890625 
Q 22.3125 44.4375 30.421875 42.921875 
L 36.375 41.703125 
Q 47.40625 39.59375 52.65625 34.296875 
Q 57.90625 29 57.90625 20.125 
Q 57.90625 9.515625 50.796875 4.046875 
Q 43.703125 -1.421875 29.984375 -1.421875 
Q 24.8125 -1.421875 18.96875 -0.25 
Q 13.140625 0.921875 6.890625 3.21875 
L 6.890625 13.375 
Q 12.890625 10.015625 18.65625 8.296875 
Q 24.421875 6.59375 29.984375 6.59375 
Q 38.421875 6.59375 43.015625 9.90625 
Q 47.609375 13.234375 47.609375 19.390625 
Q 47.609375 24.75 44.3125 27.78125 
Q 41.015625 30.8125 33.5 32.328125 
L 27.484375 33.5 
Q 16.453125 35.6875 11.515625 40.375 
Q 6.59375 45.0625 6.59375 53.421875 
Q 6.59375 63.09375 13.40625 68.65625 
Q 20.21875 74.21875 32.171875 74.21875 
Q 37.3125 74.21875 42.625 73.28125 
Q 47.953125 72.359375 53.515625 70.515625 
z
" id="DejaVuSans-83"/>
      <path d="M 64.40625 67.28125 
L 64.40625 56.890625 
Q 59.421875 61.53125 53.78125 63.8125 
Q 48.140625 66.109375 41.796875 66.109375 
Q 29.296875 66.109375 22.65625 58.46875 
Q 16.015625 50.828125 16.015625 36.375 
Q 16.015625 21.96875 22.65625 14.328125 
Q 29.296875 6.6875 41.796875 6.6875 
Q 48.140625 6.6875 53.78125 8.984375 
Q 59.421875 11.28125 64.40625 15.921875 
L 64.40625 5.609375 
Q 59.234375 2.09375 53.4375 0.328125 
Q 47.65625 -1.421875 41.21875 -1.421875 
Q 24.65625 -1.421875 15.125 8.703125 
Q 5.609375 18.84375 5.609375 36.375 
Q 5.609375 53.953125 15.125 64.078125 
Q 24.65625 74.21875 41.21875 74.21875 
Q 47.75 74.21875 53.53125 72.484375 
Q 59.328125 70.75 64.40625 67.28125 
z
" id="DejaVuSans-67"/>
     </defs>
     <g transform="translate(97.91 66.935766)scale(0.143 -0.143)">
      <use xlink:href="#DejaVuSans-69"/>
      <use x="63.183594" xlink:href="#DejaVuSans-83"/>
      <use x="126.660156" xlink:href="#DejaVuSans-67"/>
     </g>
    </g>
    <g id="PathCollection_4">
     <g>
      <use style="fill:#ff0000;stroke:#ff0000;" x="72.17" xlink:href="#m16b318d8aa" y="84.171734"/>
     </g>
    </g>
    <g id="text_17">
     <!-- DE -->
     <defs>
      <path d="M 19.671875 64.796875 
L 19.671875 8.109375 
L 31.59375 8.109375 
Q 46.6875 8.109375 53.6875 14.9375 
Q 60.6875 21.78125 60.6875 36.53125 
Q 60.6875 51.171875 53.6875 57.984375 
Q 46.6875 64.796875 31.59375 64.796875 
z
M 9.8125 72.90625 
L 30.078125 72.90625 
Q 51.265625 72.90625 61.171875 64.09375 
Q 71.09375 55.28125 71.09375 36.53125 
Q 71.09375 17.671875 61.125 8.828125 
Q 51.171875 0 30.078125 0 
L 9.8125 0 
z
" id="DejaVuSans-68"/>
     </defs>
     <g transform="translate(97.91 87.925484)scale(0.143 -0.143)">
      <use xlink:href="#DejaVuSans-68"/>
      <use x="77.001953" xlink:href="#DejaVuSans-69"/>
     </g>
    </g>
   </g>
  </g>
 </g>
 <defs>
  <clipPath id="p9ff4700f4f">
   <rect height="271.8" width="279" x="45" y="43.2"/>
  </clipPath>
 </defs>
</svg>
