<?xml version="1.0" encoding="utf-8" standalone="no"?>
<!DOCTYPE svg PUBLIC "-//W3C//DTD SVG 1.1//EN"
  "http://www.w3.org/Graphics/SVG/1.1/DTD/svg11.dtd">
<!-- Created with matplotlib (https://matplotlib.org/) -->
<svg height="576pt" version="1.1" viewBox="0 0 288 576" width="288pt" xmlns="http://www.w3.org/2000/svg" xmlns:xlink="http://www.w3.org/1999/xlink">
 <defs>
  <style type="text/css">
*{stroke-linecap:butt;stroke-linejoin:round;white-space:pre;}
  </style>
 </defs>
 <g id="figure_1">
  <g id="patch_1">
   <path d="M 0 576 
L 288 576 
L 288 0 
L 0 0 
z
" style="fill:#ffffff;"/>
  </g>
  <g id="axes_1">
   <g id="patch_2">
    <path d="M 92.94 259.736818 
L 268.56 259.736818 
L 268.56 28.853636 
L 92.94 28.853636 
z
" style="fill:#ffffff;"/>
   </g>
   <g id="PathCollection_1">
    <defs>
     <path d="M 0 3 
C 0.795609 3 1.55874 2.683901 2.12132 2.12132 
C 2.683901 1.55874 3 0.795609 3 0 
C 3 -0.795609 2.683901 -1.55874 2.12132 -2.12132 
C 1.55874 -2.683901 0.795609 -3 0 -3 
C -0.795609 -3 -1.55874 -2.683901 -2.12132 -2.12132 
C -2.683901 -1.55874 -3 -0.795609 -3 0 
C -3 0.795609 -2.683901 1.55874 -2.12132 2.12132 
C -1.55874 2.683901 -0.795609 3 0 3 
z
" id="m9b6aba5bb8" style="stroke:#fa8072;"/>
    </defs>
    <g clip-path="url(#p81cd3b4823)">
     <use style="fill:#fa8072;stroke:#fa8072;" x="133.620381" xlink:href="#m9b6aba5bb8" y="237.993696"/>
     <use style="fill:#fa8072;stroke:#fa8072;" x="104.831148" xlink:href="#m9b6aba5bb8" y="247.61355"/>
     <use style="fill:#fa8072;stroke:#fa8072;" x="173.006526" xlink:href="#m9b6aba5bb8" y="225.411796"/>
     <use style="fill:#fa8072;stroke:#fa8072;" x="164.276962" xlink:href="#m9b6aba5bb8" y="236.852357"/>
     <use style="fill:#fa8072;stroke:#fa8072;" x="185.115647" xlink:href="#m9b6aba5bb8" y="232.531575"/>
     <use style="fill:#fa8072;stroke:#fa8072;" x="161.023423" xlink:href="#m9b6aba5bb8" y="220.629043"/>
     <use style="fill:#fa8072;stroke:#fa8072;" x="130.28665" xlink:href="#m9b6aba5bb8" y="242.504701"/>
     <use style="fill:#fa8072;stroke:#fa8072;" x="156.9565" xlink:href="#m9b6aba5bb8" y="239.56983"/>
     <use style="fill:#fa8072;stroke:#fa8072;" x="139.359898" xlink:href="#m9b6aba5bb8" y="234.433806"/>
     <use style="fill:#fa8072;stroke:#fa8072;" x="148.261304" xlink:href="#m9b6aba5bb8" y="236.689309"/>
     <use style="fill:#fa8072;stroke:#fa8072;" x="109.035544" xlink:href="#m9b6aba5bb8" y="243.184069"/>
     <use style="fill:#fa8072;stroke:#fa8072;" x="162.867859" xlink:href="#m9b6aba5bb8" y="223.645438"/>
     <use style="fill:#fa8072;stroke:#fa8072;" x="169.695707" xlink:href="#m9b6aba5bb8" y="236.770833"/>
     <use style="fill:#fa8072;stroke:#fa8072;" x="170.245601" xlink:href="#m9b6aba5bb8" y="230.167374"/>
     <use style="fill:#fa8072;stroke:#fa8072;" x="174.129226" xlink:href="#m9b6aba5bb8" y="231.689158"/>
     <use style="fill:#fa8072;stroke:#fa8072;" x="140.494054" xlink:href="#m9b6aba5bb8" y="244.434107"/>
     <use style="fill:#fa8072;stroke:#fa8072;" x="141.937525" xlink:href="#m9b6aba5bb8" y="225.303097"/>
     <use style="fill:#fa8072;stroke:#fa8072;" x="128.705705" xlink:href="#m9b6aba5bb8" y="243.428642"/>
     <use style="fill:#fa8072;stroke:#fa8072;" x="119.724106" xlink:href="#m9b6aba5bb8" y="246.200464"/>
     <use style="fill:#fa8072;stroke:#fa8072;" x="116.630953" xlink:href="#m9b6aba5bb8" y="242.015556"/>
     <use style="fill:#fa8072;stroke:#fa8072;" x="113.343046" xlink:href="#m9b6aba5bb8" y="246.907007"/>
     <use style="fill:#fa8072;stroke:#fa8072;" x="243.919918" xlink:href="#m9b6aba5bb8" y="185.872564"/>
     <use style="fill:#fa8072;stroke:#fa8072;" x="153.622769" xlink:href="#m9b6aba5bb8" y="240.194849"/>
     <use style="fill:#fa8072;stroke:#fa8072;" x="133.196504" xlink:href="#m9b6aba5bb8" y="241.689459"/>
     <use style="fill:#fa8072;stroke:#fa8072;" x="105.655989" xlink:href="#m9b6aba5bb8" y="246.662435"/>
     <use style="fill:#fa8072;stroke:#fa8072;" x="126.666515" xlink:href="#m9b6aba5bb8" y="239.814403"/>
     <use style="fill:#fa8072;stroke:#fa8072;" x="132.841365" xlink:href="#m9b6aba5bb8" y="235.982766"/>
     <use style="fill:#fa8072;stroke:#fa8072;" x="192.206986" xlink:href="#m9b6aba5bb8" y="209.514579"/>
     <use style="fill:#fa8072;stroke:#fa8072;" x="117.902582" xlink:href="#m9b6aba5bb8" y="239.732879"/>
     <use style="fill:#fa8072;stroke:#fa8072;" x="118.315003" xlink:href="#m9b6aba5bb8" y="243.184069"/>
     <use style="fill:#fa8072;stroke:#fa8072;" x="126.838357" xlink:href="#m9b6aba5bb8" y="236.634959"/>
     <use style="fill:#fa8072;stroke:#fa8072;" x="138.901653" xlink:href="#m9b6aba5bb8" y="238.401317"/>
     <use style="fill:#fa8072;stroke:#fa8072;" x="135.338799" xlink:href="#m9b6aba5bb8" y="237.830647"/>
     <use style="fill:#fa8072;stroke:#fa8072;" x="133.379802" xlink:href="#m9b6aba5bb8" y="242.912322"/>
     <use style="fill:#fa8072;stroke:#fa8072;" x="140.769001" xlink:href="#m9b6aba5bb8" y="232.314177"/>
     <use style="fill:#fa8072;stroke:#fa8072;" x="204.006791" xlink:href="#m9b6aba5bb8" y="238.971986"/>
     <use style="fill:#fa8072;stroke:#fa8072;" x="137.882058" xlink:href="#m9b6aba5bb8" y="245.222174"/>
     <use style="fill:#fa8072;stroke:#fa8072;" x="173.189824" xlink:href="#m9b6aba5bb8" y="227.775997"/>
     <use style="fill:#fa8072;stroke:#fa8072;" x="162.753298" xlink:href="#m9b6aba5bb8" y="233.944661"/>
     <use style="fill:#fa8072;stroke:#fa8072;" x="115.279131" xlink:href="#m9b6aba5bb8" y="244.814553"/>
     <use style="fill:#fa8072;stroke:#fa8072;" x="118.509757" xlink:href="#m9b6aba5bb8" y="245.222174"/>
     <use style="fill:#fa8072;stroke:#fa8072;" x="175.755996" xlink:href="#m9b6aba5bb8" y="234.162059"/>
     <use style="fill:#fa8072;stroke:#fa8072;" x="159.935092" xlink:href="#m9b6aba5bb8" y="229.51518"/>
     <use style="fill:#fa8072;stroke:#fa8072;" x="178.551289" xlink:href="#m9b6aba5bb8" y="227.314027"/>
     <use style="fill:#fa8072;stroke:#fa8072;" x="104.70513" xlink:href="#m9b6aba5bb8" y="239.461131"/>
     <use style="fill:#fa8072;stroke:#fa8072;" x="220.297396" xlink:href="#m9b6aba5bb8" y="218.292017"/>
     <use style="fill:#fa8072;stroke:#fa8072;" x="119.999053" xlink:href="#m9b6aba5bb8" y="240.738344"/>
     <use style="fill:#fa8072;stroke:#fa8072;" x="163.142806" xlink:href="#m9b6aba5bb8" y="212.992944"/>
     <use style="fill:#fa8072;stroke:#fa8072;" x="136.220921" xlink:href="#m9b6aba5bb8" y="241.336188"/>
     <use style="fill:#fa8072;stroke:#fa8072;" x="260.577119" xlink:href="#m9b6aba5bb8" y="226.743358"/>
    </g>
   </g>
   <g id="PathCollection_2">
    <defs>
     <path d="M 0 3 
C 0.795609 3 1.55874 2.683901 2.12132 2.12132 
C 2.683901 1.55874 3 0.795609 3 0 
C 3 -0.795609 2.683901 -1.55874 2.12132 -2.12132 
C 1.55874 -2.683901 0.795609 -3 0 -3 
C -0.795609 -3 -1.55874 -2.683901 -2.12132 -2.12132 
C -2.683901 -1.55874 -3 -0.795609 -3 0 
C -3 0.795609 -2.683901 1.55874 -2.12132 2.12132 
C -1.55874 2.683901 -0.795609 3 0 3 
z
" id="m16df18a31f" style="stroke:#00ffff;"/>
    </defs>
    <g clip-path="url(#p81cd3b4823)">
     <use style="fill:#00ffff;stroke:#00ffff;" x="120.400017" xlink:href="#m16df18a31f" y="165.926312"/>
     <use style="fill:#00ffff;stroke:#00ffff;" x="126.322832" xlink:href="#m16df18a31f" y="163.344713"/>
     <use style="fill:#00ffff;stroke:#00ffff;" x="120.789525" xlink:href="#m16df18a31f" y="179.676726"/>
     <use style="fill:#00ffff;stroke:#00ffff;" x="108.794966" xlink:href="#m16df18a31f" y="230.629344"/>
     <use style="fill:#00ffff;stroke:#00ffff;" x="115.588446" xlink:href="#m16df18a31f" y="207.585173"/>
     <use style="fill:#00ffff;stroke:#00ffff;" x="109.711456" xlink:href="#m16df18a31f" y="209.813501"/>
     <use style="fill:#00ffff;stroke:#00ffff;" x="107.374407" xlink:href="#m16df18a31f" y="223.48239"/>
     <use style="fill:#00ffff;stroke:#00ffff;" x="120.12507" xlink:href="#m16df18a31f" y="179.133231"/>
     <use style="fill:#00ffff;stroke:#00ffff;" x="105.06027" xlink:href="#m16df18a31f" y="238.265443"/>
     <use style="fill:#00ffff;stroke:#00ffff;" x="112.953538" xlink:href="#m16df18a31f" y="190.220521"/>
     <use style="fill:#00ffff;stroke:#00ffff;" x="112.151609" xlink:href="#m16df18a31f" y="197.394649"/>
     <use style="fill:#00ffff;stroke:#00ffff;" x="107.878476" xlink:href="#m16df18a31f" y="237.531725"/>
     <use style="fill:#00ffff;stroke:#00ffff;" x="116.310181" xlink:href="#m16df18a31f" y="167.203525"/>
     <use style="fill:#00ffff;stroke:#00ffff;" x="114.213711" xlink:href="#m16df18a31f" y="227.259678"/>
     <use style="fill:#00ffff;stroke:#00ffff;" x="103.227291" xlink:href="#m16df18a31f" y="246.553736"/>
     <use style="fill:#00ffff;stroke:#00ffff;" x="105.988216" xlink:href="#m16df18a31f" y="228.591239"/>
     <use style="fill:#00ffff;stroke:#00ffff;" x="117.639092" xlink:href="#m16df18a31f" y="193.372789"/>
     <use style="fill:#00ffff;stroke:#00ffff;" x="109.470877" xlink:href="#m16df18a31f" y="197.122902"/>
     <use style="fill:#00ffff;stroke:#00ffff;" x="105.587252" xlink:href="#m16df18a31f" y="246.445037"/>
     <use style="fill:#00ffff;stroke:#00ffff;" x="109.390684" xlink:href="#m16df18a31f" y="219.705103"/>
     <use style="fill:#00ffff;stroke:#00ffff;" x="104.659306" xlink:href="#m16df18a31f" y="238.482841"/>
     <use style="fill:#00ffff;stroke:#00ffff;" x="112.861889" xlink:href="#m16df18a31f" y="189.677026"/>
     <use style="fill:#00ffff;stroke:#00ffff;" x="112.586942" xlink:href="#m16df18a31f" y="213.155993"/>
     <use style="fill:#00ffff;stroke:#00ffff;" x="126.884182" xlink:href="#m16df18a31f" y="199.595803"/>
     <use style="fill:#00ffff;stroke:#00ffff;" x="111.704821" xlink:href="#m16df18a31f" y="224.732428"/>
     <use style="fill:#00ffff;stroke:#00ffff;" x="121.236314" xlink:href="#m16df18a31f" y="151.333482"/>
     <use style="fill:#00ffff;stroke:#00ffff;" x="104.739499" xlink:href="#m16df18a31f" y="239.05351"/>
     <use style="fill:#00ffff;stroke:#00ffff;" x="108.245072" xlink:href="#m16df18a31f" y="225.167223"/>
     <use style="fill:#00ffff;stroke:#00ffff;" x="131.294788" xlink:href="#m16df18a31f" y="193.997808"/>
     <use style="fill:#00ffff;stroke:#00ffff;" x="132.050892" xlink:href="#m16df18a31f" y="217.368076"/>
     <use style="fill:#00ffff;stroke:#00ffff;" x="105.518515" xlink:href="#m16df18a31f" y="233.944661"/>
     <use style="fill:#00ffff;stroke:#00ffff;" x="110.822699" xlink:href="#m16df18a31f" y="212.666848"/>
     <use style="fill:#00ffff;stroke:#00ffff;" x="109.677087" xlink:href="#m16df18a31f" y="230.411946"/>
     <use style="fill:#00ffff;stroke:#00ffff;" x="105.117551" xlink:href="#m16df18a31f" y="240.167674"/>
     <use style="fill:#00ffff;stroke:#00ffff;" x="117.639092" xlink:href="#m16df18a31f" y="207.313426"/>
     <use style="fill:#00ffff;stroke:#00ffff;" x="103.341852" xlink:href="#m16df18a31f" y="240.955741"/>
     <use style="fill:#00ffff;stroke:#00ffff;" x="120.010509" xlink:href="#m16df18a31f" y="202.557848"/>
     <use style="fill:#00ffff;stroke:#00ffff;" x="113.984589" xlink:href="#m16df18a31f" y="231.145664"/>
     <use style="fill:#00ffff;stroke:#00ffff;" x="114.671956" xlink:href="#m16df18a31f" y="214.92235"/>
     <use style="fill:#00ffff;stroke:#00ffff;" x="112.506749" xlink:href="#m16df18a31f" y="190.954238"/>
     <use style="fill:#00ffff;stroke:#00ffff;" x="108.199247" xlink:href="#m16df18a31f" y="221.444285"/>
     <use style="fill:#00ffff;stroke:#00ffff;" x="103.37622" xlink:href="#m16df18a31f" y="248.211394"/>
     <use style="fill:#00ffff;stroke:#00ffff;" x="107.477512" xlink:href="#m16df18a31f" y="213.047294"/>
     <use style="fill:#00ffff;stroke:#00ffff;" x="112.964994" xlink:href="#m16df18a31f" y="225.928116"/>
     <use style="fill:#00ffff;stroke:#00ffff;" x="110.994541" xlink:href="#m16df18a31f" y="197.720746"/>
     <use style="fill:#00ffff;stroke:#00ffff;" x="107.534792" xlink:href="#m16df18a31f" y="211.715732"/>
     <use style="fill:#00ffff;stroke:#00ffff;" x="106.687039" xlink:href="#m16df18a31f" y="220.574694"/>
     <use style="fill:#00ffff;stroke:#00ffff;" x="104.762411" xlink:href="#m16df18a31f" y="240.874217"/>
     <use style="fill:#00ffff;stroke:#00ffff;" x="139.004758" xlink:href="#m16df18a31f" y="105.353839"/>
     <use style="fill:#00ffff;stroke:#00ffff;" x="176.764134" xlink:href="#m16df18a31f" y="40.37906"/>
    </g>
   </g>
   <g id="matplotlib.axis_1">
    <g id="xtick_1">
     <g id="line2d_1">
      <defs>
       <path d="M 0 0 
L 0 6 
" id="m3d75ea506d" style="stroke:#000000;stroke-width:1.25;"/>
      </defs>
      <g>
       <use style="stroke:#000000;stroke-width:1.25;" x="103.215835" xlink:href="#m3d75ea506d" y="259.736818"/>
      </g>
     </g>
     <g id="text_1">
      <!-- 0 -->
      <defs>
       <path d="M 31.78125 66.40625 
Q 24.171875 66.40625 20.328125 58.90625 
Q 16.5 51.421875 16.5 36.375 
Q 16.5 21.390625 20.328125 13.890625 
Q 24.171875 6.390625 31.78125 6.390625 
Q 39.453125 6.390625 43.28125 13.890625 
Q 47.125 21.390625 47.125 36.375 
Q 47.125 51.421875 43.28125 58.90625 
Q 39.453125 66.40625 31.78125 66.40625 
z
M 31.78125 74.21875 
Q 44.046875 74.21875 50.515625 64.515625 
Q 56.984375 54.828125 56.984375 36.375 
Q 56.984375 17.96875 50.515625 8.265625 
Q 44.046875 -1.421875 31.78125 -1.421875 
Q 19.53125 -1.421875 13.0625 8.265625 
Q 6.59375 17.96875 6.59375 36.375 
Q 6.59375 54.828125 13.0625 64.515625 
Q 19.53125 74.21875 31.78125 74.21875 
z
" id="DejaVuSans-48"/>
      </defs>
      <g transform="translate(97.966772 281.77424)scale(0.165 -0.165)">
       <use xlink:href="#DejaVuSans-48"/>
      </g>
     </g>
    </g>
    <g id="xtick_2">
     <g id="line2d_2">
      <g>
       <use style="stroke:#000000;stroke-width:1.25;" x="217.777049" xlink:href="#m3d75ea506d" y="259.736818"/>
      </g>
     </g>
     <g id="text_2">
      <!-- 10000 -->
      <defs>
       <path d="M 12.40625 8.296875 
L 28.515625 8.296875 
L 28.515625 63.921875 
L 10.984375 60.40625 
L 10.984375 69.390625 
L 28.421875 72.90625 
L 38.28125 72.90625 
L 38.28125 8.296875 
L 54.390625 8.296875 
L 54.390625 0 
L 12.40625 0 
z
" id="DejaVuSans-49"/>
      </defs>
      <g transform="translate(191.531737 281.77424)scale(0.165 -0.165)">
       <use xlink:href="#DejaVuSans-49"/>
       <use x="63.623047" xlink:href="#DejaVuSans-48"/>
       <use x="127.246094" xlink:href="#DejaVuSans-48"/>
       <use x="190.869141" xlink:href="#DejaVuSans-48"/>
       <use x="254.492188" xlink:href="#DejaVuSans-48"/>
      </g>
     </g>
    </g>
    <g id="text_3">
     <!-- DpnII Digest Read Count -->
     <defs>
      <path d="M 19.671875 64.796875 
L 19.671875 8.109375 
L 31.59375 8.109375 
Q 46.6875 8.109375 53.6875 14.9375 
Q 60.6875 21.78125 60.6875 36.53125 
Q 60.6875 51.171875 53.6875 57.984375 
Q 46.6875 64.796875 31.59375 64.796875 
z
M 9.8125 72.90625 
L 30.078125 72.90625 
Q 51.265625 72.90625 61.171875 64.09375 
Q 71.09375 55.28125 71.09375 36.53125 
Q 71.09375 17.671875 61.125 8.828125 
Q 51.171875 0 30.078125 0 
L 9.8125 0 
z
" id="DejaVuSans-68"/>
      <path d="M 18.109375 8.203125 
L 18.109375 -20.796875 
L 9.078125 -20.796875 
L 9.078125 54.6875 
L 18.109375 54.6875 
L 18.109375 46.390625 
Q 20.953125 51.265625 25.265625 53.625 
Q 29.59375 56 35.59375 56 
Q 45.5625 56 51.78125 48.09375 
Q 58.015625 40.1875 58.015625 27.296875 
Q 58.015625 14.40625 51.78125 6.484375 
Q 45.5625 -1.421875 35.59375 -1.421875 
Q 29.59375 -1.421875 25.265625 0.953125 
Q 20.953125 3.328125 18.109375 8.203125 
z
M 48.6875 27.296875 
Q 48.6875 37.203125 44.609375 42.84375 
Q 40.53125 48.484375 33.40625 48.484375 
Q 26.265625 48.484375 22.1875 42.84375 
Q 18.109375 37.203125 18.109375 27.296875 
Q 18.109375 17.390625 22.1875 11.75 
Q 26.265625 6.109375 33.40625 6.109375 
Q 40.53125 6.109375 44.609375 11.75 
Q 48.6875 17.390625 48.6875 27.296875 
z
" id="DejaVuSans-112"/>
      <path d="M 54.890625 33.015625 
L 54.890625 0 
L 45.90625 0 
L 45.90625 32.71875 
Q 45.90625 40.484375 42.875 44.328125 
Q 39.84375 48.1875 33.796875 48.1875 
Q 26.515625 48.1875 22.3125 43.546875 
Q 18.109375 38.921875 18.109375 30.90625 
L 18.109375 0 
L 9.078125 0 
L 9.078125 54.6875 
L 18.109375 54.6875 
L 18.109375 46.1875 
Q 21.34375 51.125 25.703125 53.5625 
Q 30.078125 56 35.796875 56 
Q 45.21875 56 50.046875 50.171875 
Q 54.890625 44.34375 54.890625 33.015625 
z
" id="DejaVuSans-110"/>
      <path d="M 9.8125 72.90625 
L 19.671875 72.90625 
L 19.671875 0 
L 9.8125 0 
z
" id="DejaVuSans-73"/>
      <path id="DejaVuSans-32"/>
      <path d="M 9.421875 54.6875 
L 18.40625 54.6875 
L 18.40625 0 
L 9.421875 0 
z
M 9.421875 75.984375 
L 18.40625 75.984375 
L 18.40625 64.59375 
L 9.421875 64.59375 
z
" id="DejaVuSans-105"/>
      <path d="M 45.40625 27.984375 
Q 45.40625 37.75 41.375 43.109375 
Q 37.359375 48.484375 30.078125 48.484375 
Q 22.859375 48.484375 18.828125 43.109375 
Q 14.796875 37.75 14.796875 27.984375 
Q 14.796875 18.265625 18.828125 12.890625 
Q 22.859375 7.515625 30.078125 7.515625 
Q 37.359375 7.515625 41.375 12.890625 
Q 45.40625 18.265625 45.40625 27.984375 
z
M 54.390625 6.78125 
Q 54.390625 -7.171875 48.1875 -13.984375 
Q 42 -20.796875 29.203125 -20.796875 
Q 24.46875 -20.796875 20.265625 -20.09375 
Q 16.0625 -19.390625 12.109375 -17.921875 
L 12.109375 -9.1875 
Q 16.0625 -11.328125 19.921875 -12.34375 
Q 23.78125 -13.375 27.78125 -13.375 
Q 36.625 -13.375 41.015625 -8.765625 
Q 45.40625 -4.15625 45.40625 5.171875 
L 45.40625 9.625 
Q 42.625 4.78125 38.28125 2.390625 
Q 33.9375 0 27.875 0 
Q 17.828125 0 11.671875 7.65625 
Q 5.515625 15.328125 5.515625 27.984375 
Q 5.515625 40.671875 11.671875 48.328125 
Q 17.828125 56 27.875 56 
Q 33.9375 56 38.28125 53.609375 
Q 42.625 51.21875 45.40625 46.390625 
L 45.40625 54.6875 
L 54.390625 54.6875 
z
" id="DejaVuSans-103"/>
      <path d="M 56.203125 29.59375 
L 56.203125 25.203125 
L 14.890625 25.203125 
Q 15.484375 15.921875 20.484375 11.0625 
Q 25.484375 6.203125 34.421875 6.203125 
Q 39.59375 6.203125 44.453125 7.46875 
Q 49.3125 8.734375 54.109375 11.28125 
L 54.109375 2.78125 
Q 49.265625 0.734375 44.1875 -0.34375 
Q 39.109375 -1.421875 33.890625 -1.421875 
Q 20.796875 -1.421875 13.15625 6.1875 
Q 5.515625 13.8125 5.515625 26.8125 
Q 5.515625 40.234375 12.765625 48.109375 
Q 20.015625 56 32.328125 56 
Q 43.359375 56 49.78125 48.890625 
Q 56.203125 41.796875 56.203125 29.59375 
z
M 47.21875 32.234375 
Q 47.125 39.59375 43.09375 43.984375 
Q 39.0625 48.390625 32.421875 48.390625 
Q 24.90625 48.390625 20.390625 44.140625 
Q 15.875 39.890625 15.1875 32.171875 
z
" id="DejaVuSans-101"/>
      <path d="M 44.28125 53.078125 
L 44.28125 44.578125 
Q 40.484375 46.53125 36.375 47.5 
Q 32.28125 48.484375 27.875 48.484375 
Q 21.1875 48.484375 17.84375 46.4375 
Q 14.5 44.390625 14.5 40.28125 
Q 14.5 37.15625 16.890625 35.375 
Q 19.28125 33.59375 26.515625 31.984375 
L 29.59375 31.296875 
Q 39.15625 29.25 43.1875 25.515625 
Q 47.21875 21.78125 47.21875 15.09375 
Q 47.21875 7.46875 41.1875 3.015625 
Q 35.15625 -1.421875 24.609375 -1.421875 
Q 20.21875 -1.421875 15.453125 -0.5625 
Q 10.6875 0.296875 5.421875 2 
L 5.421875 11.28125 
Q 10.40625 8.6875 15.234375 7.390625 
Q 20.0625 6.109375 24.8125 6.109375 
Q 31.15625 6.109375 34.5625 8.28125 
Q 37.984375 10.453125 37.984375 14.40625 
Q 37.984375 18.0625 35.515625 20.015625 
Q 33.0625 21.96875 24.703125 23.78125 
L 21.578125 24.515625 
Q 13.234375 26.265625 9.515625 29.90625 
Q 5.8125 33.546875 5.8125 39.890625 
Q 5.8125 47.609375 11.28125 51.796875 
Q 16.75 56 26.8125 56 
Q 31.78125 56 36.171875 55.265625 
Q 40.578125 54.546875 44.28125 53.078125 
z
" id="DejaVuSans-115"/>
      <path d="M 18.3125 70.21875 
L 18.3125 54.6875 
L 36.8125 54.6875 
L 36.8125 47.703125 
L 18.3125 47.703125 
L 18.3125 18.015625 
Q 18.3125 11.328125 20.140625 9.421875 
Q 21.96875 7.515625 27.59375 7.515625 
L 36.8125 7.515625 
L 36.8125 0 
L 27.59375 0 
Q 17.1875 0 13.234375 3.875 
Q 9.28125 7.765625 9.28125 18.015625 
L 9.28125 47.703125 
L 2.6875 47.703125 
L 2.6875 54.6875 
L 9.28125 54.6875 
L 9.28125 70.21875 
z
" id="DejaVuSans-116"/>
      <path d="M 44.390625 34.1875 
Q 47.5625 33.109375 50.5625 29.59375 
Q 53.5625 26.078125 56.59375 19.921875 
L 66.609375 0 
L 56 0 
L 46.6875 18.703125 
Q 43.0625 26.03125 39.671875 28.421875 
Q 36.28125 30.8125 30.421875 30.8125 
L 19.671875 30.8125 
L 19.671875 0 
L 9.8125 0 
L 9.8125 72.90625 
L 32.078125 72.90625 
Q 44.578125 72.90625 50.734375 67.671875 
Q 56.890625 62.453125 56.890625 51.90625 
Q 56.890625 45.015625 53.6875 40.46875 
Q 50.484375 35.9375 44.390625 34.1875 
z
M 19.671875 64.796875 
L 19.671875 38.921875 
L 32.078125 38.921875 
Q 39.203125 38.921875 42.84375 42.21875 
Q 46.484375 45.515625 46.484375 51.90625 
Q 46.484375 58.296875 42.84375 61.546875 
Q 39.203125 64.796875 32.078125 64.796875 
z
" id="DejaVuSans-82"/>
      <path d="M 34.28125 27.484375 
Q 23.390625 27.484375 19.1875 25 
Q 14.984375 22.515625 14.984375 16.5 
Q 14.984375 11.71875 18.140625 8.90625 
Q 21.296875 6.109375 26.703125 6.109375 
Q 34.1875 6.109375 38.703125 11.40625 
Q 43.21875 16.703125 43.21875 25.484375 
L 43.21875 27.484375 
z
M 52.203125 31.203125 
L 52.203125 0 
L 43.21875 0 
L 43.21875 8.296875 
Q 40.140625 3.328125 35.546875 0.953125 
Q 30.953125 -1.421875 24.3125 -1.421875 
Q 15.921875 -1.421875 10.953125 3.296875 
Q 6 8.015625 6 15.921875 
Q 6 25.140625 12.171875 29.828125 
Q 18.359375 34.515625 30.609375 34.515625 
L 43.21875 34.515625 
L 43.21875 35.40625 
Q 43.21875 41.609375 39.140625 45 
Q 35.0625 48.390625 27.6875 48.390625 
Q 23 48.390625 18.546875 47.265625 
Q 14.109375 46.140625 10.015625 43.890625 
L 10.015625 52.203125 
Q 14.9375 54.109375 19.578125 55.046875 
Q 24.21875 56 28.609375 56 
Q 40.484375 56 46.34375 49.84375 
Q 52.203125 43.703125 52.203125 31.203125 
z
" id="DejaVuSans-97"/>
      <path d="M 45.40625 46.390625 
L 45.40625 75.984375 
L 54.390625 75.984375 
L 54.390625 0 
L 45.40625 0 
L 45.40625 8.203125 
Q 42.578125 3.328125 38.25 0.953125 
Q 33.9375 -1.421875 27.875 -1.421875 
Q 17.96875 -1.421875 11.734375 6.484375 
Q 5.515625 14.40625 5.515625 27.296875 
Q 5.515625 40.1875 11.734375 48.09375 
Q 17.96875 56 27.875 56 
Q 33.9375 56 38.25 53.625 
Q 42.578125 51.265625 45.40625 46.390625 
z
M 14.796875 27.296875 
Q 14.796875 17.390625 18.875 11.75 
Q 22.953125 6.109375 30.078125 6.109375 
Q 37.203125 6.109375 41.296875 11.75 
Q 45.40625 17.390625 45.40625 27.296875 
Q 45.40625 37.203125 41.296875 42.84375 
Q 37.203125 48.484375 30.078125 48.484375 
Q 22.953125 48.484375 18.875 42.84375 
Q 14.796875 37.203125 14.796875 27.296875 
z
" id="DejaVuSans-100"/>
      <path d="M 64.40625 67.28125 
L 64.40625 56.890625 
Q 59.421875 61.53125 53.78125 63.8125 
Q 48.140625 66.109375 41.796875 66.109375 
Q 29.296875 66.109375 22.65625 58.46875 
Q 16.015625 50.828125 16.015625 36.375 
Q 16.015625 21.96875 22.65625 14.328125 
Q 29.296875 6.6875 41.796875 6.6875 
Q 48.140625 6.6875 53.78125 8.984375 
Q 59.421875 11.28125 64.40625 15.921875 
L 64.40625 5.609375 
Q 59.234375 2.09375 53.4375 0.328125 
Q 47.65625 -1.421875 41.21875 -1.421875 
Q 24.65625 -1.421875 15.125 8.703125 
Q 5.609375 18.84375 5.609375 36.375 
Q 5.609375 53.953125 15.125 64.078125 
Q 24.65625 74.21875 41.21875 74.21875 
Q 47.75 74.21875 53.53125 72.484375 
Q 59.328125 70.75 64.40625 67.28125 
z
" id="DejaVuSans-67"/>
      <path d="M 30.609375 48.390625 
Q 23.390625 48.390625 19.1875 42.75 
Q 14.984375 37.109375 14.984375 27.296875 
Q 14.984375 17.484375 19.15625 11.84375 
Q 23.34375 6.203125 30.609375 6.203125 
Q 37.796875 6.203125 41.984375 11.859375 
Q 46.1875 17.53125 46.1875 27.296875 
Q 46.1875 37.015625 41.984375 42.703125 
Q 37.796875 48.390625 30.609375 48.390625 
z
M 30.609375 56 
Q 42.328125 56 49.015625 48.375 
Q 55.71875 40.765625 55.71875 27.296875 
Q 55.71875 13.875 49.015625 6.21875 
Q 42.328125 -1.421875 30.609375 -1.421875 
Q 18.84375 -1.421875 12.171875 6.21875 
Q 5.515625 13.875 5.515625 27.296875 
Q 5.515625 40.765625 12.171875 48.375 
Q 18.84375 56 30.609375 56 
z
" id="DejaVuSans-111"/>
      <path d="M 8.5 21.578125 
L 8.5 54.6875 
L 17.484375 54.6875 
L 17.484375 21.921875 
Q 17.484375 14.15625 20.5 10.265625 
Q 23.53125 6.390625 29.59375 6.390625 
Q 36.859375 6.390625 41.078125 11.03125 
Q 45.3125 15.671875 45.3125 23.6875 
L 45.3125 54.6875 
L 54.296875 54.6875 
L 54.296875 0 
L 45.3125 0 
L 45.3125 8.40625 
Q 42.046875 3.421875 37.71875 1 
Q 33.40625 -1.421875 27.6875 -1.421875 
Q 18.265625 -1.421875 13.375 4.4375 
Q 8.5 10.296875 8.5 21.578125 
z
M 31.109375 56 
z
" id="DejaVuSans-117"/>
     </defs>
     <g transform="translate(69.871406 302.882912)scale(0.18 -0.18)">
      <use xlink:href="#DejaVuSans-68"/>
      <use x="77.001953" xlink:href="#DejaVuSans-112"/>
      <use x="140.478516" xlink:href="#DejaVuSans-110"/>
      <use x="203.857422" xlink:href="#DejaVuSans-73"/>
      <use x="233.349609" xlink:href="#DejaVuSans-73"/>
      <use x="262.841797" xlink:href="#DejaVuSans-32"/>
      <use x="294.628906" xlink:href="#DejaVuSans-68"/>
      <use x="371.630859" xlink:href="#DejaVuSans-105"/>
      <use x="399.414062" xlink:href="#DejaVuSans-103"/>
      <use x="462.890625" xlink:href="#DejaVuSans-101"/>
      <use x="524.414062" xlink:href="#DejaVuSans-115"/>
      <use x="576.513672" xlink:href="#DejaVuSans-116"/>
      <use x="615.722656" xlink:href="#DejaVuSans-32"/>
      <use x="647.509766" xlink:href="#DejaVuSans-82"/>
      <use x="716.929688" xlink:href="#DejaVuSans-101"/>
      <use x="778.453125" xlink:href="#DejaVuSans-97"/>
      <use x="839.732422" xlink:href="#DejaVuSans-100"/>
      <use x="903.208984" xlink:href="#DejaVuSans-32"/>
      <use x="934.996094" xlink:href="#DejaVuSans-67"/>
      <use x="1004.820312" xlink:href="#DejaVuSans-111"/>
      <use x="1066.001953" xlink:href="#DejaVuSans-117"/>
      <use x="1129.380859" xlink:href="#DejaVuSans-110"/>
      <use x="1192.759766" xlink:href="#DejaVuSans-116"/>
     </g>
    </g>
   </g>
   <g id="matplotlib.axis_2">
    <g id="ytick_1">
     <g id="line2d_3">
      <defs>
       <path d="M 0 0 
L -6 0 
" id="ma4aac104e8" style="stroke:#000000;stroke-width:1.25;"/>
      </defs>
      <g>
       <use style="stroke:#000000;stroke-width:1.25;" x="92.94" xlink:href="#ma4aac104e8" y="248.347268"/>
      </g>
     </g>
     <g id="text_4">
      <!-- 0 -->
      <g transform="translate(72.941875 254.615979)scale(0.165 -0.165)">
       <use xlink:href="#DejaVuSans-48"/>
      </g>
     </g>
    </g>
    <g id="ytick_2">
     <g id="line2d_4">
      <g>
       <use style="stroke:#000000;stroke-width:1.25;" x="92.94" xlink:href="#ma4aac104e8" y="193.997808"/>
      </g>
     </g>
     <g id="text_5">
      <!-- 2000 -->
      <defs>
       <path d="M 19.1875 8.296875 
L 53.609375 8.296875 
L 53.609375 0 
L 7.328125 0 
L 7.328125 8.296875 
Q 12.9375 14.109375 22.625 23.890625 
Q 32.328125 33.6875 34.8125 36.53125 
Q 39.546875 41.84375 41.421875 45.53125 
Q 43.3125 49.21875 43.3125 52.78125 
Q 43.3125 58.59375 39.234375 62.25 
Q 35.15625 65.921875 28.609375 65.921875 
Q 23.96875 65.921875 18.8125 64.3125 
Q 13.671875 62.703125 7.8125 59.421875 
L 7.8125 69.390625 
Q 13.765625 71.78125 18.9375 73 
Q 24.125 74.21875 28.421875 74.21875 
Q 39.75 74.21875 46.484375 68.546875 
Q 53.21875 62.890625 53.21875 53.421875 
Q 53.21875 48.921875 51.53125 44.890625 
Q 49.859375 40.875 45.40625 35.40625 
Q 44.1875 33.984375 37.640625 27.21875 
Q 31.109375 20.453125 19.1875 8.296875 
z
" id="DejaVuSans-50"/>
      </defs>
      <g transform="translate(41.4475 200.266519)scale(0.165 -0.165)">
       <use xlink:href="#DejaVuSans-50"/>
       <use x="63.623047" xlink:href="#DejaVuSans-48"/>
       <use x="127.246094" xlink:href="#DejaVuSans-48"/>
       <use x="190.869141" xlink:href="#DejaVuSans-48"/>
      </g>
     </g>
    </g>
    <g id="ytick_3">
     <g id="line2d_5">
      <g>
       <use style="stroke:#000000;stroke-width:1.25;" x="92.94" xlink:href="#ma4aac104e8" y="139.648348"/>
      </g>
     </g>
     <g id="text_6">
      <!-- 4000 -->
      <defs>
       <path d="M 37.796875 64.3125 
L 12.890625 25.390625 
L 37.796875 25.390625 
z
M 35.203125 72.90625 
L 47.609375 72.90625 
L 47.609375 25.390625 
L 58.015625 25.390625 
L 58.015625 17.1875 
L 47.609375 17.1875 
L 47.609375 0 
L 37.796875 0 
L 37.796875 17.1875 
L 4.890625 17.1875 
L 4.890625 26.703125 
z
" id="DejaVuSans-52"/>
      </defs>
      <g transform="translate(41.4475 145.917059)scale(0.165 -0.165)">
       <use xlink:href="#DejaVuSans-52"/>
       <use x="63.623047" xlink:href="#DejaVuSans-48"/>
       <use x="127.246094" xlink:href="#DejaVuSans-48"/>
       <use x="190.869141" xlink:href="#DejaVuSans-48"/>
      </g>
     </g>
    </g>
    <g id="ytick_4">
     <g id="line2d_6">
      <g>
       <use style="stroke:#000000;stroke-width:1.25;" x="92.94" xlink:href="#ma4aac104e8" y="85.298889"/>
      </g>
     </g>
     <g id="text_7">
      <!-- 6000 -->
      <defs>
       <path d="M 33.015625 40.375 
Q 26.375 40.375 22.484375 35.828125 
Q 18.609375 31.296875 18.609375 23.390625 
Q 18.609375 15.53125 22.484375 10.953125 
Q 26.375 6.390625 33.015625 6.390625 
Q 39.65625 6.390625 43.53125 10.953125 
Q 47.40625 15.53125 47.40625 23.390625 
Q 47.40625 31.296875 43.53125 35.828125 
Q 39.65625 40.375 33.015625 40.375 
z
M 52.59375 71.296875 
L 52.59375 62.3125 
Q 48.875 64.0625 45.09375 64.984375 
Q 41.3125 65.921875 37.59375 65.921875 
Q 27.828125 65.921875 22.671875 59.328125 
Q 17.53125 52.734375 16.796875 39.40625 
Q 19.671875 43.65625 24.015625 45.921875 
Q 28.375 48.1875 33.59375 48.1875 
Q 44.578125 48.1875 50.953125 41.515625 
Q 57.328125 34.859375 57.328125 23.390625 
Q 57.328125 12.15625 50.6875 5.359375 
Q 44.046875 -1.421875 33.015625 -1.421875 
Q 20.359375 -1.421875 13.671875 8.265625 
Q 6.984375 17.96875 6.984375 36.375 
Q 6.984375 53.65625 15.1875 63.9375 
Q 23.390625 74.21875 37.203125 74.21875 
Q 40.921875 74.21875 44.703125 73.484375 
Q 48.484375 72.75 52.59375 71.296875 
z
" id="DejaVuSans-54"/>
      </defs>
      <g transform="translate(41.4475 91.5676)scale(0.165 -0.165)">
       <use xlink:href="#DejaVuSans-54"/>
       <use x="63.623047" xlink:href="#DejaVuSans-48"/>
       <use x="127.246094" xlink:href="#DejaVuSans-48"/>
       <use x="190.869141" xlink:href="#DejaVuSans-48"/>
      </g>
     </g>
    </g>
    <g id="ytick_5">
     <g id="line2d_7">
      <g>
       <use style="stroke:#000000;stroke-width:1.25;" x="92.94" xlink:href="#ma4aac104e8" y="30.949429"/>
      </g>
     </g>
     <g id="text_8">
      <!-- 8000 -->
      <defs>
       <path d="M 31.78125 34.625 
Q 24.75 34.625 20.71875 30.859375 
Q 16.703125 27.09375 16.703125 20.515625 
Q 16.703125 13.921875 20.71875 10.15625 
Q 24.75 6.390625 31.78125 6.390625 
Q 38.8125 6.390625 42.859375 10.171875 
Q 46.921875 13.96875 46.921875 20.515625 
Q 46.921875 27.09375 42.890625 30.859375 
Q 38.875 34.625 31.78125 34.625 
z
M 21.921875 38.8125 
Q 15.578125 40.375 12.03125 44.71875 
Q 8.5 49.078125 8.5 55.328125 
Q 8.5 64.0625 14.71875 69.140625 
Q 20.953125 74.21875 31.78125 74.21875 
Q 42.671875 74.21875 48.875 69.140625 
Q 55.078125 64.0625 55.078125 55.328125 
Q 55.078125 49.078125 51.53125 44.71875 
Q 48 40.375 41.703125 38.8125 
Q 48.828125 37.15625 52.796875 32.3125 
Q 56.78125 27.484375 56.78125 20.515625 
Q 56.78125 9.90625 50.3125 4.234375 
Q 43.84375 -1.421875 31.78125 -1.421875 
Q 19.734375 -1.421875 13.25 4.234375 
Q 6.78125 9.90625 6.78125 20.515625 
Q 6.78125 27.484375 10.78125 32.3125 
Q 14.796875 37.15625 21.921875 38.8125 
z
M 18.3125 54.390625 
Q 18.3125 48.734375 21.84375 45.5625 
Q 25.390625 42.390625 31.78125 42.390625 
Q 38.140625 42.390625 41.71875 45.5625 
Q 45.3125 48.734375 45.3125 54.390625 
Q 45.3125 60.0625 41.71875 63.234375 
Q 38.140625 66.40625 31.78125 66.40625 
Q 25.390625 66.40625 21.84375 63.234375 
Q 18.3125 60.0625 18.3125 54.390625 
z
" id="DejaVuSans-56"/>
      </defs>
      <g transform="translate(41.4475 37.21814)scale(0.165 -0.165)">
       <use xlink:href="#DejaVuSans-56"/>
       <use x="63.623047" xlink:href="#DejaVuSans-48"/>
       <use x="127.246094" xlink:href="#DejaVuSans-48"/>
       <use x="190.869141" xlink:href="#DejaVuSans-48"/>
      </g>
     </g>
    </g>
    <g id="text_9">
     <!-- DpnI Digest Read Count -->
     <g transform="translate(33.704063 252.518821)rotate(-90)scale(0.18 -0.18)">
      <use xlink:href="#DejaVuSans-68"/>
      <use x="77.001953" xlink:href="#DejaVuSans-112"/>
      <use x="140.478516" xlink:href="#DejaVuSans-110"/>
      <use x="203.857422" xlink:href="#DejaVuSans-73"/>
      <use x="233.349609" xlink:href="#DejaVuSans-32"/>
      <use x="265.136719" xlink:href="#DejaVuSans-68"/>
      <use x="342.138672" xlink:href="#DejaVuSans-105"/>
      <use x="369.921875" xlink:href="#DejaVuSans-103"/>
      <use x="433.398438" xlink:href="#DejaVuSans-101"/>
      <use x="494.921875" xlink:href="#DejaVuSans-115"/>
      <use x="547.021484" xlink:href="#DejaVuSans-116"/>
      <use x="586.230469" xlink:href="#DejaVuSans-32"/>
      <use x="618.017578" xlink:href="#DejaVuSans-82"/>
      <use x="687.4375" xlink:href="#DejaVuSans-101"/>
      <use x="748.960938" xlink:href="#DejaVuSans-97"/>
      <use x="810.240234" xlink:href="#DejaVuSans-100"/>
      <use x="873.716797" xlink:href="#DejaVuSans-32"/>
      <use x="905.503906" xlink:href="#DejaVuSans-67"/>
      <use x="975.328125" xlink:href="#DejaVuSans-111"/>
      <use x="1036.509766" xlink:href="#DejaVuSans-117"/>
      <use x="1099.888672" xlink:href="#DejaVuSans-110"/>
      <use x="1163.267578" xlink:href="#DejaVuSans-116"/>
     </g>
    </g>
   </g>
   <g id="patch_3">
    <path d="M 92.94 259.736818 
L 92.94 28.853636 
" style="fill:none;stroke:#000000;stroke-linecap:square;stroke-linejoin:miter;stroke-width:1.25;"/>
   </g>
   <g id="patch_4">
    <path d="M 268.56 259.736818 
L 268.56 28.853636 
" style="fill:none;stroke:#000000;stroke-linecap:square;stroke-linejoin:miter;stroke-width:1.25;"/>
   </g>
   <g id="patch_5">
    <path d="M 92.94 259.736818 
L 268.56 259.736818 
" style="fill:none;stroke:#000000;stroke-linecap:square;stroke-linejoin:miter;stroke-width:1.25;"/>
   </g>
   <g id="patch_6">
    <path d="M 92.94 28.853636 
L 268.56 28.853636 
" style="fill:none;stroke:#000000;stroke-linecap:square;stroke-linejoin:miter;stroke-width:1.25;"/>
   </g>
   <g id="legend_1">
    <g id="patch_7">
     <path d="M 280.11 90.491449 
L 470.019844 90.491449 
Q 473.319844 90.491449 473.319844 87.191449 
L 473.319844 40.403636 
Q 473.319844 37.103636 470.019844 37.103636 
L 280.11 37.103636 
Q 276.81 37.103636 276.81 40.403636 
L 276.81 87.191449 
Q 276.81 90.491449 280.11 90.491449 
z
" style="fill:#ffffff;opacity:0.8;stroke:#cccccc;stroke-linejoin:miter;"/>
    </g>
    <g id="PathCollection_3">
     <g>
      <use style="fill:#fa8072;stroke:#fa8072;" x="299.91" xlink:href="#m9b6aba5bb8" y="51.909808"/>
     </g>
    </g>
    <g id="text_10">
     <!-- opening phrases -->
     <defs>
      <path d="M 54.890625 33.015625 
L 54.890625 0 
L 45.90625 0 
L 45.90625 32.71875 
Q 45.90625 40.484375 42.875 44.328125 
Q 39.84375 48.1875 33.796875 48.1875 
Q 26.515625 48.1875 22.3125 43.546875 
Q 18.109375 38.921875 18.109375 30.90625 
L 18.109375 0 
L 9.078125 0 
L 9.078125 75.984375 
L 18.109375 75.984375 
L 18.109375 46.1875 
Q 21.34375 51.125 25.703125 53.5625 
Q 30.078125 56 35.796875 56 
Q 45.21875 56 50.046875 50.171875 
Q 54.890625 44.34375 54.890625 33.015625 
z
" id="DejaVuSans-104"/>
      <path d="M 41.109375 46.296875 
Q 39.59375 47.171875 37.8125 47.578125 
Q 36.03125 48 33.890625 48 
Q 26.265625 48 22.1875 43.046875 
Q 18.109375 38.09375 18.109375 28.8125 
L 18.109375 0 
L 9.078125 0 
L 9.078125 54.6875 
L 18.109375 54.6875 
L 18.109375 46.1875 
Q 20.953125 51.171875 25.484375 53.578125 
Q 30.03125 56 36.53125 56 
Q 37.453125 56 38.578125 55.875 
Q 39.703125 55.765625 41.0625 55.515625 
z
" id="DejaVuSans-114"/>
     </defs>
     <g transform="translate(329.61 56.241058)scale(0.165 -0.165)">
      <use xlink:href="#DejaVuSans-111"/>
      <use x="61.181641" xlink:href="#DejaVuSans-112"/>
      <use x="124.658203" xlink:href="#DejaVuSans-101"/>
      <use x="186.181641" xlink:href="#DejaVuSans-110"/>
      <use x="249.560547" xlink:href="#DejaVuSans-105"/>
      <use x="277.34375" xlink:href="#DejaVuSans-110"/>
      <use x="340.722656" xlink:href="#DejaVuSans-103"/>
      <use x="404.199219" xlink:href="#DejaVuSans-32"/>
      <use x="435.986328" xlink:href="#DejaVuSans-112"/>
      <use x="499.462891" xlink:href="#DejaVuSans-104"/>
      <use x="562.841797" xlink:href="#DejaVuSans-114"/>
      <use x="603.955078" xlink:href="#DejaVuSans-97"/>
      <use x="665.234375" xlink:href="#DejaVuSans-115"/>
      <use x="717.333984" xlink:href="#DejaVuSans-101"/>
      <use x="778.857422" xlink:href="#DejaVuSans-115"/>
     </g>
    </g>
    <g id="PathCollection_4">
     <g>
      <use style="fill:#00ffff;stroke:#00ffff;" x="299.91" xlink:href="#m16df18a31f" y="76.128714"/>
     </g>
    </g>
    <g id="text_11">
     <!-- closing phrases -->
     <defs>
      <path d="M 48.78125 52.59375 
L 48.78125 44.1875 
Q 44.96875 46.296875 41.140625 47.34375 
Q 37.3125 48.390625 33.40625 48.390625 
Q 24.65625 48.390625 19.8125 42.84375 
Q 14.984375 37.3125 14.984375 27.296875 
Q 14.984375 17.28125 19.8125 11.734375 
Q 24.65625 6.203125 33.40625 6.203125 
Q 37.3125 6.203125 41.140625 7.25 
Q 44.96875 8.296875 48.78125 10.40625 
L 48.78125 2.09375 
Q 45.015625 0.34375 40.984375 -0.53125 
Q 36.96875 -1.421875 32.421875 -1.421875 
Q 20.0625 -1.421875 12.78125 6.34375 
Q 5.515625 14.109375 5.515625 27.296875 
Q 5.515625 40.671875 12.859375 48.328125 
Q 20.21875 56 33.015625 56 
Q 37.15625 56 41.109375 55.140625 
Q 45.0625 54.296875 48.78125 52.59375 
z
" id="DejaVuSans-99"/>
      <path d="M 9.421875 75.984375 
L 18.40625 75.984375 
L 18.40625 0 
L 9.421875 0 
z
" id="DejaVuSans-108"/>
     </defs>
     <g transform="translate(329.61 80.459964)scale(0.165 -0.165)">
      <use xlink:href="#DejaVuSans-99"/>
      <use x="54.980469" xlink:href="#DejaVuSans-108"/>
      <use x="82.763672" xlink:href="#DejaVuSans-111"/>
      <use x="143.945312" xlink:href="#DejaVuSans-115"/>
      <use x="196.044922" xlink:href="#DejaVuSans-105"/>
      <use x="223.828125" xlink:href="#DejaVuSans-110"/>
      <use x="287.207031" xlink:href="#DejaVuSans-103"/>
      <use x="350.683594" xlink:href="#DejaVuSans-32"/>
      <use x="382.470703" xlink:href="#DejaVuSans-112"/>
      <use x="445.947266" xlink:href="#DejaVuSans-104"/>
      <use x="509.326172" xlink:href="#DejaVuSans-114"/>
      <use x="550.439453" xlink:href="#DejaVuSans-97"/>
      <use x="611.71875" xlink:href="#DejaVuSans-115"/>
      <use x="663.818359" xlink:href="#DejaVuSans-101"/>
      <use x="725.341797" xlink:href="#DejaVuSans-115"/>
     </g>
    </g>
   </g>
  </g>
  <g id="axes_2">
   <g id="patch_8">
    <path d="M 92.94 556.56 
L 268.56 556.56 
L 268.56 325.676818 
L 92.94 325.676818 
z
" style="fill:#ffffff;"/>
   </g>
   <g id="matplotlib.axis_3">
    <g id="xtick_3">
     <g id="line2d_8">
      <g>
       <use style="stroke:#000000;stroke-width:1.25;" x="136.845" xlink:href="#m3d75ea506d" y="556.56"/>
      </g>
     </g>
     <g id="text_12">
      <!-- opening -->
      <g transform="translate(103.496953 578.597422)scale(0.165 -0.165)">
       <use xlink:href="#DejaVuSans-111"/>
       <use x="61.181641" xlink:href="#DejaVuSans-112"/>
       <use x="124.658203" xlink:href="#DejaVuSans-101"/>
       <use x="186.181641" xlink:href="#DejaVuSans-110"/>
       <use x="249.560547" xlink:href="#DejaVuSans-105"/>
       <use x="277.34375" xlink:href="#DejaVuSans-110"/>
       <use x="340.722656" xlink:href="#DejaVuSans-103"/>
      </g>
     </g>
    </g>
    <g id="xtick_4">
     <g id="line2d_9">
      <g>
       <use style="stroke:#000000;stroke-width:1.25;" x="224.655" xlink:href="#m3d75ea506d" y="556.56"/>
      </g>
     </g>
     <g id="text_13">
      <!-- closing -->
      <g transform="translate(195.723281 578.597422)scale(0.165 -0.165)">
       <use xlink:href="#DejaVuSans-99"/>
       <use x="54.980469" xlink:href="#DejaVuSans-108"/>
       <use x="82.763672" xlink:href="#DejaVuSans-111"/>
       <use x="143.945312" xlink:href="#DejaVuSans-115"/>
       <use x="196.044922" xlink:href="#DejaVuSans-105"/>
       <use x="223.828125" xlink:href="#DejaVuSans-110"/>
       <use x="287.207031" xlink:href="#DejaVuSans-103"/>
      </g>
     </g>
    </g>
   </g>
   <g id="matplotlib.axis_4">
    <g id="ytick_6">
     <g id="line2d_10">
      <g>
       <use style="stroke:#000000;stroke-width:1.25;" x="92.94" xlink:href="#ma4aac104e8" y="556.56"/>
      </g>
     </g>
     <g id="text_14">
      <!-- 0.0 -->
      <defs>
       <path d="M 10.6875 12.40625 
L 21 12.40625 
L 21 0 
L 10.6875 0 
z
" id="DejaVuSans-46"/>
      </defs>
      <g transform="translate(57.199844 562.828711)scale(0.165 -0.165)">
       <use xlink:href="#DejaVuSans-48"/>
       <use x="63.623047" xlink:href="#DejaVuSans-46"/>
       <use x="95.410156" xlink:href="#DejaVuSans-48"/>
      </g>
     </g>
    </g>
    <g id="ytick_7">
     <g id="line2d_11">
      <g>
       <use style="stroke:#000000;stroke-width:1.25;" x="92.94" xlink:href="#ma4aac104e8" y="510.383364"/>
      </g>
     </g>
     <g id="text_15">
      <!-- 0.2 -->
      <g transform="translate(57.199844 516.652075)scale(0.165 -0.165)">
       <use xlink:href="#DejaVuSans-48"/>
       <use x="63.623047" xlink:href="#DejaVuSans-46"/>
       <use x="95.410156" xlink:href="#DejaVuSans-50"/>
      </g>
     </g>
    </g>
    <g id="ytick_8">
     <g id="line2d_12">
      <g>
       <use style="stroke:#000000;stroke-width:1.25;" x="92.94" xlink:href="#ma4aac104e8" y="464.206727"/>
      </g>
     </g>
     <g id="text_16">
      <!-- 0.4 -->
      <g transform="translate(57.199844 470.475438)scale(0.165 -0.165)">
       <use xlink:href="#DejaVuSans-48"/>
       <use x="63.623047" xlink:href="#DejaVuSans-46"/>
       <use x="95.410156" xlink:href="#DejaVuSans-52"/>
      </g>
     </g>
    </g>
    <g id="ytick_9">
     <g id="line2d_13">
      <g>
       <use style="stroke:#000000;stroke-width:1.25;" x="92.94" xlink:href="#ma4aac104e8" y="418.030091"/>
      </g>
     </g>
     <g id="text_17">
      <!-- 0.6 -->
      <g transform="translate(57.199844 424.298802)scale(0.165 -0.165)">
       <use xlink:href="#DejaVuSans-48"/>
       <use x="63.623047" xlink:href="#DejaVuSans-46"/>
       <use x="95.410156" xlink:href="#DejaVuSans-54"/>
      </g>
     </g>
    </g>
    <g id="ytick_10">
     <g id="line2d_14">
      <g>
       <use style="stroke:#000000;stroke-width:1.25;" x="92.94" xlink:href="#ma4aac104e8" y="371.853455"/>
      </g>
     </g>
     <g id="text_18">
      <!-- 0.8 -->
      <g transform="translate(57.199844 378.122165)scale(0.165 -0.165)">
       <use xlink:href="#DejaVuSans-48"/>
       <use x="63.623047" xlink:href="#DejaVuSans-46"/>
       <use x="95.410156" xlink:href="#DejaVuSans-56"/>
      </g>
     </g>
    </g>
    <g id="ytick_11">
     <g id="line2d_15">
      <g>
       <use style="stroke:#000000;stroke-width:1.25;" x="92.94" xlink:href="#ma4aac104e8" y="325.676818"/>
      </g>
     </g>
     <g id="text_19">
      <!-- 1.0 -->
      <g transform="translate(57.199844 331.945529)scale(0.165 -0.165)">
       <use xlink:href="#DejaVuSans-49"/>
       <use x="63.623047" xlink:href="#DejaVuSans-46"/>
       <use x="95.410156" xlink:href="#DejaVuSans-48"/>
      </g>
     </g>
    </g>
    <g id="text_20">
     <!-- DpnII/(DpnI+DpnII) -->
     <defs>
      <path d="M 25.390625 72.90625 
L 33.6875 72.90625 
L 8.296875 -9.28125 
L 0 -9.28125 
z
" id="DejaVuSans-47"/>
      <path d="M 31 75.875 
Q 24.46875 64.65625 21.28125 53.65625 
Q 18.109375 42.671875 18.109375 31.390625 
Q 18.109375 20.125 21.3125 9.0625 
Q 24.515625 -2 31 -13.1875 
L 23.1875 -13.1875 
Q 15.875 -1.703125 12.234375 9.375 
Q 8.59375 20.453125 8.59375 31.390625 
Q 8.59375 42.28125 12.203125 53.3125 
Q 15.828125 64.359375 23.1875 75.875 
z
" id="DejaVuSans-40"/>
      <path d="M 46 62.703125 
L 46 35.5 
L 73.1875 35.5 
L 73.1875 27.203125 
L 46 27.203125 
L 46 0 
L 37.796875 0 
L 37.796875 27.203125 
L 10.59375 27.203125 
L 10.59375 35.5 
L 37.796875 35.5 
L 37.796875 62.703125 
z
" id="DejaVuSans-43"/>
      <path d="M 8.015625 75.875 
L 15.828125 75.875 
Q 23.140625 64.359375 26.78125 53.3125 
Q 30.421875 42.28125 30.421875 31.390625 
Q 30.421875 20.453125 26.78125 9.375 
Q 23.140625 -1.703125 15.828125 -13.1875 
L 8.015625 -13.1875 
Q 14.5 -2 17.703125 9.0625 
Q 20.90625 20.125 20.90625 31.390625 
Q 20.90625 42.671875 17.703125 53.65625 
Q 14.5 64.65625 8.015625 75.875 
z
" id="DejaVuSans-41"/>
     </defs>
     <g transform="translate(49.456406 527.031847)rotate(-90)scale(0.18 -0.18)">
      <use xlink:href="#DejaVuSans-68"/>
      <use x="77.001953" xlink:href="#DejaVuSans-112"/>
      <use x="140.478516" xlink:href="#DejaVuSans-110"/>
      <use x="203.857422" xlink:href="#DejaVuSans-73"/>
      <use x="233.349609" xlink:href="#DejaVuSans-73"/>
      <use x="262.841797" xlink:href="#DejaVuSans-47"/>
      <use x="296.533203" xlink:href="#DejaVuSans-40"/>
      <use x="335.546875" xlink:href="#DejaVuSans-68"/>
      <use x="412.548828" xlink:href="#DejaVuSans-112"/>
      <use x="476.025391" xlink:href="#DejaVuSans-110"/>
      <use x="539.404297" xlink:href="#DejaVuSans-73"/>
      <use x="568.896484" xlink:href="#DejaVuSans-43"/>
      <use x="652.685547" xlink:href="#DejaVuSans-68"/>
      <use x="729.6875" xlink:href="#DejaVuSans-112"/>
      <use x="793.164062" xlink:href="#DejaVuSans-110"/>
      <use x="856.542969" xlink:href="#DejaVuSans-73"/>
      <use x="886.035156" xlink:href="#DejaVuSans-73"/>
      <use x="915.527344" xlink:href="#DejaVuSans-41"/>
     </g>
    </g>
   </g>
   <g id="patch_9">
    <path d="M 92.94 556.56 
L 92.94 325.676818 
" style="fill:none;stroke:#000000;stroke-linecap:square;stroke-linejoin:miter;stroke-width:1.25;"/>
   </g>
   <g id="patch_10">
    <path d="M 268.56 556.56 
L 268.56 325.676818 
" style="fill:none;stroke:#000000;stroke-linecap:square;stroke-linejoin:miter;stroke-width:1.25;"/>
   </g>
   <g id="patch_11">
    <path d="M 92.94 556.56 
L 268.56 556.56 
" style="fill:none;stroke:#000000;stroke-linecap:square;stroke-linejoin:miter;stroke-width:1.25;"/>
   </g>
   <g id="patch_12">
    <path d="M 92.94 325.676818 
L 268.56 325.676818 
" style="fill:none;stroke:#000000;stroke-linecap:square;stroke-linejoin:miter;stroke-width:1.25;"/>
   </g>
   <g id="PathCollection_5">
    <defs>
     <path d="M 0 3.5 
C 0.928211 3.5 1.81853 3.131218 2.474874 2.474874 
C 3.131218 1.81853 3.5 0.928211 3.5 0 
C 3.5 -0.928211 3.131218 -1.81853 2.474874 -2.474874 
C 1.81853 -3.131218 0.928211 -3.5 0 -3.5 
C -0.928211 -3.5 -1.81853 -3.131218 -2.474874 -2.474874 
C -3.131218 -1.81853 -3.5 -0.928211 -3.5 0 
C -3.5 0.928211 -3.131218 1.81853 -2.474874 2.474874 
C -1.81853 3.131218 -0.928211 3.5 0 3.5 
z
" id="C0_0_6b101239f1"/>
    </defs>
    <g clip-path="url(#pf5dc341b19)">
     <use style="fill:#fa8072;" x="136.845" xlink:href="#C0_0_6b101239f1" y="483.567432"/>
    </g>
    <g clip-path="url(#pf5dc341b19)">
     <use style="fill:#fa8072;" x="136.845" xlink:href="#C0_0_6b101239f1" y="381.864868"/>
    </g>
    <g clip-path="url(#pf5dc341b19)">
     <use style="fill:#fa8072;" x="136.845" xlink:href="#C0_0_6b101239f1" y="371.899859"/>
    </g>
    <g clip-path="url(#pf5dc341b19)">
     <use style="fill:#fa8072;" x="131.57761" xlink:href="#C0_0_6b101239f1" y="366.650044"/>
    </g>
    <g clip-path="url(#pf5dc341b19)">
     <use style="fill:#fa8072;" x="141.817949" xlink:href="#C0_0_6b101239f1" y="366.357025"/>
    </g>
    <g clip-path="url(#pf5dc341b19)">
     <use style="fill:#fa8072;" x="149.165502" xlink:href="#C0_0_6b101239f1" y="366.16283"/>
    </g>
    <g clip-path="url(#pf5dc341b19)">
     <use style="fill:#fa8072;" x="136.845" xlink:href="#C0_0_6b101239f1" y="360.854342"/>
    </g>
    <g clip-path="url(#pf5dc341b19)">
     <use style="fill:#fa8072;" x="128.388989" xlink:href="#C0_0_6b101239f1" y="359.867918"/>
    </g>
    <g clip-path="url(#pf5dc341b19)">
     <use style="fill:#fa8072;" x="144.649758" xlink:href="#C0_0_6b101239f1" y="359.410781"/>
    </g>
    <g clip-path="url(#pf5dc341b19)">
     <use style="fill:#fa8072;" x="151.922333" xlink:href="#C0_0_6b101239f1" y="358.321079"/>
    </g>
    <g clip-path="url(#pf5dc341b19)">
     <use style="fill:#fa8072;" x="121.206947" xlink:href="#C0_0_6b101239f1" y="358.26792"/>
    </g>
    <g clip-path="url(#pf5dc341b19)">
     <use style="fill:#fa8072;" x="159.246371" xlink:href="#C0_0_6b101239f1" y="357.688957"/>
    </g>
    <g clip-path="url(#pf5dc341b19)">
     <use style="fill:#fa8072;" x="113.929511" xlink:href="#C0_0_6b101239f1" y="357.212804"/>
    </g>
    <g clip-path="url(#pf5dc341b19)">
     <use style="fill:#fa8072;" x="166.522322" xlink:href="#C0_0_6b101239f1" y="356.62315"/>
    </g>
    <g clip-path="url(#pf5dc341b19)">
     <use style="fill:#fa8072;" x="106.672416" xlink:href="#C0_0_6b101239f1" y="356.019759"/>
    </g>
    <g clip-path="url(#pf5dc341b19)">
     <use style="fill:#fa8072;" x="171.969" xlink:href="#C0_0_6b101239f1" y="355.813628"/>
    </g>
    <g clip-path="url(#pf5dc341b19)">
     <use style="fill:#fa8072;" x="133.91326" xlink:href="#C0_0_6b101239f1" y="353.951717"/>
    </g>
    <g clip-path="url(#pf5dc341b19)">
     <use style="fill:#fa8072;" x="141.140872" xlink:href="#C0_0_6b101239f1" y="352.583777"/>
    </g>
    <g clip-path="url(#pf5dc341b19)">
     <use style="fill:#fa8072;" x="127.094424" xlink:href="#C0_0_6b101239f1" y="351.142166"/>
    </g>
    <g clip-path="url(#pf5dc341b19)">
     <use style="fill:#fa8072;" x="148.336203" xlink:href="#C0_0_6b101239f1" y="351.047678"/>
    </g>
    <g clip-path="url(#pf5dc341b19)">
     <use style="fill:#fa8072;" x="119.772734" xlink:href="#C0_0_6b101239f1" y="350.482142"/>
    </g>
    <g clip-path="url(#pf5dc341b19)">
     <use style="fill:#fa8072;" x="155.645418" xlink:href="#C0_0_6b101239f1" y="350.2558"/>
    </g>
    <g clip-path="url(#pf5dc341b19)">
     <use style="fill:#fa8072;" x="111.32857" xlink:href="#C0_0_6b101239f1" y="350.172504"/>
    </g>
    <g clip-path="url(#pf5dc341b19)">
     <use style="fill:#fa8072;" x="162.630685" xlink:href="#C0_0_6b101239f1" y="347.91402"/>
    </g>
    <g clip-path="url(#pf5dc341b19)">
     <use style="fill:#fa8072;" x="104.341518" xlink:href="#C0_0_6b101239f1" y="347.836319"/>
    </g>
    <g clip-path="url(#pf5dc341b19)">
     <use style="fill:#fa8072;" x="136.479607" xlink:href="#C0_0_6b101239f1" y="346.898115"/>
    </g>
    <g clip-path="url(#pf5dc341b19)">
     <use style="fill:#fa8072;" x="169.908904" xlink:href="#C0_0_6b101239f1" y="346.864587"/>
    </g>
    <g clip-path="url(#pf5dc341b19)">
     <use style="fill:#fa8072;" x="101.721" xlink:href="#C0_0_6b101239f1" y="346.346331"/>
    </g>
    <g clip-path="url(#pf5dc341b19)">
     <use style="fill:#fa8072;" x="143.575075" xlink:href="#C0_0_6b101239f1" y="345.481216"/>
    </g>
    <g clip-path="url(#pf5dc341b19)">
     <use style="fill:#fa8072;" x="171.969" xlink:href="#C0_0_6b101239f1" y="345.33415"/>
    </g>
    <g clip-path="url(#pf5dc341b19)">
     <use style="fill:#fa8072;" x="124.046475" xlink:href="#C0_0_6b101239f1" y="344.292539"/>
    </g>
    <g clip-path="url(#pf5dc341b19)">
     <use style="fill:#fa8072;" x="150.738533" xlink:href="#C0_0_6b101239f1" y="343.796102"/>
    </g>
    <g clip-path="url(#pf5dc341b19)">
     <use style="fill:#fa8072;" x="116.82711" xlink:href="#C0_0_6b101239f1" y="342.87966"/>
    </g>
    <g clip-path="url(#pf5dc341b19)">
     <use style="fill:#fa8072;" x="109.490177" xlink:href="#C0_0_6b101239f1" y="342.43101"/>
    </g>
    <g clip-path="url(#pf5dc341b19)">
     <use style="fill:#fa8072;" x="157.862165" xlink:href="#C0_0_6b101239f1" y="342.185869"/>
    </g>
    <g clip-path="url(#pf5dc341b19)">
     <use style="fill:#fa8072;" x="131.257946" xlink:href="#C0_0_6b101239f1" y="341.600602"/>
    </g>
    <g clip-path="url(#pf5dc341b19)">
     <use style="fill:#fa8072;" x="165.348649" xlink:href="#C0_0_6b101239f1" y="340.961244"/>
    </g>
    <g clip-path="url(#pf5dc341b19)">
     <use style="fill:#fa8072;" x="101.721" xlink:href="#C0_0_6b101239f1" y="340.783045"/>
    </g>
    <g clip-path="url(#pf5dc341b19)">
     <use style="fill:#fa8072;" x="171.969" xlink:href="#C0_0_6b101239f1" y="340.77235"/>
    </g>
    <g clip-path="url(#pf5dc341b19)">
     <use style="fill:#fa8072;" x="102.405355" xlink:href="#C0_0_6b101239f1" y="340.427322"/>
    </g>
    <g clip-path="url(#pf5dc341b19)">
     <use style="fill:#fa8072;" x="101.721" xlink:href="#C0_0_6b101239f1" y="339.83359"/>
    </g>
    <g clip-path="url(#pf5dc341b19)">
     <use style="fill:#fa8072;" x="138.282884" xlink:href="#C0_0_6b101239f1" y="339.38679"/>
    </g>
    <g clip-path="url(#pf5dc341b19)">
     <use style="fill:#fa8072;" x="171.969" xlink:href="#C0_0_6b101239f1" y="338.583652"/>
    </g>
    <g clip-path="url(#pf5dc341b19)">
     <use style="fill:#fa8072;" x="171.969" xlink:href="#C0_0_6b101239f1" y="338.464409"/>
    </g>
    <g clip-path="url(#pf5dc341b19)">
     <use style="fill:#fa8072;" x="145.252652" xlink:href="#C0_0_6b101239f1" y="336.997065"/>
    </g>
    <g clip-path="url(#pf5dc341b19)">
     <use style="fill:#fa8072;" x="125.74402" xlink:href="#C0_0_6b101239f1" y="336.623378"/>
    </g>
    <g clip-path="url(#pf5dc341b19)">
     <use style="fill:#fa8072;" x="152.546908" xlink:href="#C0_0_6b101239f1" y="336.071754"/>
    </g>
    <g clip-path="url(#pf5dc341b19)">
     <use style="fill:#fa8072;" x="133.011581" xlink:href="#C0_0_6b101239f1" y="334.141096"/>
    </g>
    <g clip-path="url(#pf5dc341b19)">
     <use style="fill:#fa8072;" x="119.193849" xlink:href="#C0_0_6b101239f1" y="333.208589"/>
    </g>
    <g clip-path="url(#pf5dc341b19)">
     <use style="fill:#fa8072;" x="159.249901" xlink:href="#C0_0_6b101239f1" y="332.983633"/>
    </g>
   </g>
   <g id="PathCollection_6">
    <defs>
     <path d="M 0 3.5 
C 0.928211 3.5 1.81853 3.131218 2.474874 2.474874 
C 3.131218 1.81853 3.5 0.928211 3.5 0 
C 3.5 -0.928211 3.131218 -1.81853 2.474874 -2.474874 
C 1.81853 -3.131218 0.928211 -3.5 0 -3.5 
C -0.928211 -3.5 -1.81853 -3.131218 -2.474874 -2.474874 
C -3.131218 -1.81853 -3.5 -0.928211 -3.5 0 
C -3.5 0.928211 -3.131218 1.81853 -2.474874 2.474874 
C -1.81853 3.131218 -0.928211 3.5 0 3.5 
z
" id="C1_0_12a12b31ba"/>
    </defs>
    <g clip-path="url(#pf5dc341b19)">
     <use style="fill:#00ffff;" x="224.655" xlink:href="#C1_0_12a12b31ba" y="552.562487"/>
    </g>
    <g clip-path="url(#pf5dc341b19)">
     <use style="fill:#00ffff;" x="220.743063" xlink:href="#C1_0_12a12b31ba" y="546.189856"/>
    </g>
    <g clip-path="url(#pf5dc341b19)">
     <use style="fill:#00ffff;" x="224.655" xlink:href="#C1_0_12a12b31ba" y="499.899256"/>
    </g>
    <g clip-path="url(#pf5dc341b19)">
     <use style="fill:#00ffff;" x="217.372575" xlink:href="#C1_0_12a12b31ba" y="498.880883"/>
    </g>
    <g clip-path="url(#pf5dc341b19)">
     <use style="fill:#00ffff;" x="231.855054" xlink:href="#C1_0_12a12b31ba" y="498.386549"/>
    </g>
    <g clip-path="url(#pf5dc341b19)">
     <use style="fill:#00ffff;" x="210.172626" xlink:href="#C1_0_12a12b31ba" y="497.367651"/>
    </g>
    <g clip-path="url(#pf5dc341b19)">
     <use style="fill:#00ffff;" x="224.655" xlink:href="#C1_0_12a12b31ba" y="492.128753"/>
    </g>
    <g clip-path="url(#pf5dc341b19)">
     <use style="fill:#00ffff;" x="231.750762" xlink:href="#C1_0_12a12b31ba" y="490.166092"/>
    </g>
    <g clip-path="url(#pf5dc341b19)">
     <use style="fill:#00ffff;" x="218.618638" xlink:href="#C1_0_12a12b31ba" y="487.834137"/>
    </g>
    <g clip-path="url(#pf5dc341b19)">
     <use style="fill:#00ffff;" x="211.515372" xlink:href="#C1_0_12a12b31ba" y="485.900154"/>
    </g>
    <g clip-path="url(#pf5dc341b19)">
     <use style="fill:#00ffff;" x="237.474333" xlink:href="#C1_0_12a12b31ba" y="485.443613"/>
    </g>
    <g clip-path="url(#pf5dc341b19)">
     <use style="fill:#00ffff;" x="244.822767" xlink:href="#C1_0_12a12b31ba" y="485.288223"/>
    </g>
    <g clip-path="url(#pf5dc341b19)">
     <use style="fill:#00ffff;" x="225.592672" xlink:href="#C1_0_12a12b31ba" y="484.6629"/>
    </g>
    <g clip-path="url(#pf5dc341b19)">
     <use style="fill:#00ffff;" x="204.28958" xlink:href="#C1_0_12a12b31ba" y="484.522162"/>
    </g>
    <g clip-path="url(#pf5dc341b19)">
     <use style="fill:#00ffff;" x="252.001343" xlink:href="#C1_0_12a12b31ba" y="483.671992"/>
    </g>
    <g clip-path="url(#pf5dc341b19)">
     <use style="fill:#00ffff;" x="196.99628" xlink:href="#C1_0_12a12b31ba" y="483.588976"/>
    </g>
    <g clip-path="url(#pf5dc341b19)">
     <use style="fill:#00ffff;" x="259.341293" xlink:href="#C1_0_12a12b31ba" y="483.278493"/>
    </g>
    <g clip-path="url(#pf5dc341b19)">
     <use style="fill:#00ffff;" x="189.999102" xlink:href="#C1_0_12a12b31ba" y="481.284798"/>
    </g>
    <g clip-path="url(#pf5dc341b19)">
     <use style="fill:#00ffff;" x="220.61488" xlink:href="#C1_0_12a12b31ba" y="479.124628"/>
    </g>
    <g clip-path="url(#pf5dc341b19)">
     <use style="fill:#00ffff;" x="229.789315" xlink:href="#C1_0_12a12b31ba" y="478.483167"/>
    </g>
    <g clip-path="url(#pf5dc341b19)">
     <use style="fill:#00ffff;" x="213.304965" xlink:href="#C1_0_12a12b31ba" y="478.339555"/>
    </g>
    <g clip-path="url(#pf5dc341b19)">
     <use style="fill:#00ffff;" x="224.655" xlink:href="#C1_0_12a12b31ba" y="472.655881"/>
    </g>
    <g clip-path="url(#pf5dc341b19)">
     <use style="fill:#00ffff;" x="217.638516" xlink:href="#C1_0_12a12b31ba" y="472.259735"/>
    </g>
    <g clip-path="url(#pf5dc341b19)">
     <use style="fill:#00ffff;" x="231.838488" xlink:href="#C1_0_12a12b31ba" y="471.06271"/>
    </g>
    <g clip-path="url(#pf5dc341b19)">
     <use style="fill:#00ffff;" x="210.501386" xlink:href="#C1_0_12a12b31ba" y="470.461262"/>
    </g>
    <g clip-path="url(#pf5dc341b19)">
     <use style="fill:#00ffff;" x="239.130243" xlink:href="#C1_0_12a12b31ba" y="470.116948"/>
    </g>
    <g clip-path="url(#pf5dc341b19)">
     <use style="fill:#00ffff;" x="204.346519" xlink:href="#C1_0_12a12b31ba" y="466.346842"/>
    </g>
    <g clip-path="url(#pf5dc341b19)">
     <use style="fill:#00ffff;" x="224.655" xlink:href="#C1_0_12a12b31ba" y="463.609552"/>
    </g>
    <g clip-path="url(#pf5dc341b19)">
     <use style="fill:#00ffff;" x="231.886537" xlink:href="#C1_0_12a12b31ba" y="462.263539"/>
    </g>
    <g clip-path="url(#pf5dc341b19)">
     <use style="fill:#00ffff;" x="217.753531" xlink:href="#C1_0_12a12b31ba" y="461.020259"/>
    </g>
    <g clip-path="url(#pf5dc341b19)">
     <use style="fill:#00ffff;" x="238.769594" xlink:href="#C1_0_12a12b31ba" y="459.623344"/>
    </g>
    <g clip-path="url(#pf5dc341b19)">
     <use style="fill:#00ffff;" x="210.734565" xlink:href="#C1_0_12a12b31ba" y="458.786662"/>
    </g>
    <g clip-path="url(#pf5dc341b19)">
     <use style="fill:#00ffff;" x="203.473002" xlink:href="#C1_0_12a12b31ba" y="457.622483"/>
    </g>
    <g clip-path="url(#pf5dc341b19)">
     <use style="fill:#00ffff;" x="224.655" xlink:href="#C1_0_12a12b31ba" y="451.34409"/>
    </g>
    <g clip-path="url(#pf5dc341b19)">
     <use style="fill:#00ffff;" x="217.598605" xlink:href="#C1_0_12a12b31ba" y="449.237816"/>
    </g>
    <g clip-path="url(#pf5dc341b19)">
     <use style="fill:#00ffff;" x="227.390827" xlink:href="#C1_0_12a12b31ba" y="444.357617"/>
    </g>
    <g clip-path="url(#pf5dc341b19)">
     <use style="fill:#00ffff;" x="234.602184" xlink:href="#C1_0_12a12b31ba" y="442.902476"/>
    </g>
    <g clip-path="url(#pf5dc341b19)">
     <use style="fill:#00ffff;" x="214.225897" xlink:href="#C1_0_12a12b31ba" y="442.549739"/>
    </g>
    <g clip-path="url(#pf5dc341b19)">
     <use style="fill:#00ffff;" x="241.842485" xlink:href="#C1_0_12a12b31ba" y="441.606818"/>
    </g>
    <g clip-path="url(#pf5dc341b19)">
     <use style="fill:#00ffff;" x="206.950172" xlink:href="#C1_0_12a12b31ba" y="441.482321"/>
    </g>
    <g clip-path="url(#pf5dc341b19)">
     <use style="fill:#00ffff;" x="221.282957" xlink:href="#C1_0_12a12b31ba" y="440.445801"/>
    </g>
    <g clip-path="url(#pf5dc341b19)">
     <use style="fill:#00ffff;" x="224.655" xlink:href="#C1_0_12a12b31ba" y="431.143675"/>
    </g>
    <g clip-path="url(#pf5dc341b19)">
     <use style="fill:#00ffff;" x="217.320998" xlink:href="#C1_0_12a12b31ba" y="430.6473"/>
    </g>
    <g clip-path="url(#pf5dc341b19)">
     <use style="fill:#00ffff;" x="221.429233" xlink:href="#C1_0_12a12b31ba" y="424.379998"/>
    </g>
    <g clip-path="url(#pf5dc341b19)">
     <use style="fill:#00ffff;" x="227.937988" xlink:href="#C1_0_12a12b31ba" y="420.883134"/>
    </g>
    <g clip-path="url(#pf5dc341b19)">
     <use style="fill:#00ffff;" x="215.2177" xlink:href="#C1_0_12a12b31ba" y="420.355887"/>
    </g>
    <g clip-path="url(#pf5dc341b19)">
     <use style="fill:#00ffff;" x="224.655" xlink:href="#C1_0_12a12b31ba" y="410.347571"/>
    </g>
    <g clip-path="url(#pf5dc341b19)">
     <use style="fill:#00ffff;" x="224.655" xlink:href="#C1_0_12a12b31ba" y="390.395874"/>
    </g>
    <g clip-path="url(#pf5dc341b19)">
     <use style="fill:#00ffff;" x="224.655" xlink:href="#C1_0_12a12b31ba" y="379.925651"/>
    </g>
    <g clip-path="url(#pf5dc341b19)">
     <use style="fill:#00ffff;" x="217.635953" xlink:href="#C1_0_12a12b31ba" y="377.692324"/>
    </g>
   </g>
  </g>
 </g>
 <defs>
  <clipPath id="p81cd3b4823">
   <rect height="230.883182" width="175.62" x="92.94" y="28.853636"/>
  </clipPath>
  <clipPath id="pf5dc341b19">
   <rect height="230.883182" width="175.62" x="92.94" y="325.676818"/>
  </clipPath>
 </defs>
</svg>
